STARTFONT 2.3
FONT -FontForge-STIX Two Math-Book-R-Normal--24-240-72-72-P-164-ISO10646-1
SIZE 24 72 72  2
FONTBOUNDINGBOX 98 104 -24 -40
COMMENT "Generated by fontforge, http://fontforge.sourceforge.net"
COMMENT "Copyright 2001-2021 The STIX Fonts Project Authors (https://github.com/stipub/stixfonts)"
STARTPROPERTIES 41
FOUNDRY "FontForge"
FAMILY_NAME "STIX Two Math"
WEIGHT_NAME "Book"
SLANT "R"
SETWIDTH_NAME "Normal"
ADD_STYLE_NAME ""
PIXEL_SIZE 24
POINT_SIZE 240
RESOLUTION_X 72
RESOLUTION_Y 72
SPACING "P"
AVERAGE_WIDTH 164
CHARSET_REGISTRY "ISO10646"
CHARSET_ENCODING "1"
FONTNAME_REGISTRY ""
CHARSET_COLLECTIONS "ASCII ISOLatin1Encoding ISO8859-2 ISO8859-5 ISO8859-7 ISO8859-9 ISO8859-4 ISO10646-1"
BITS_PER_PIXEL 2
FONT_NAME "STIXTwoMath-Regular"
FACE_NAME "STIX Two Math Regular"
COPYRIGHT "Copyright 2001-2021 The STIX Fonts Project Authors (https://github.com/stipub/stixfonts)"
FONT_VERSION "2.12 b168a"
FONT_ASCENT 18
FONT_DESCENT 6
UNDERLINE_POSITION -2
UNDERLINE_THICKNESS 2
X_HEIGHT 11
CAP_HEIGHT 15
RAW_ASCENT 762
RAW_DESCENT 238
NORM_SPACE 6
RELATIVE_WEIGHT 40
RELATIVE_SETWIDTH 50
SUPERSCRIPT_X 0
SUPERSCRIPT_Y 12
SUPERSCRIPT_SIZE 12
SUBSCRIPT_X 0
SUBSCRIPT_Y 6
SUBSCRIPT_SIZE 12
FIGURE_WIDTH 12
AVG_LOWERCASE_WIDTH 119
AVG_UPPERCASE_WIDTH 163
ENDPROPERTIES
CHARS 6611
STARTCHAR space
ENCODING 32
SWIDTH 235 0
DWIDTH 6 0
BBX 1 1 0 0
BITMAP
00
ENDCHAR
STARTCHAR exclam
ENCODING 33
SWIDTH 283 0
DWIDTH 7 0
BBX 3 16 2 0
BITMAP
B4
F8
F8
B8
B4
B4
B4
74
70
70
30
20
00
B4
F8
B4
ENDCHAR
STARTCHAR quotedbl
ENCODING 34
SWIDTH 334 0
DWIDTH 8 0
BBX 6 5 1 12
BITMAP
B5F0
B1E0
A1D0
A1C0
91C0
ENDCHAR
STARTCHAR numbersign
ENCODING 35
SWIDTH 702 0
DWIDTH 17 0
BBX 15 17 1 -1
BITMAP
00340700
00340700
00700A00
00700A00
00A00D00
3FFFFFF4
00D01C00
00D01C00
00D01C00
01C02800
01C02800
BFFFFFF0
02803400
03403400
03407000
07007000
0700A000
ENDCHAR
STARTCHAR dollar
ENCODING 36
SWIDTH 495 0
DWIDTH 12 0
BBX 10 19 1 -2
BITMAP
009000
0BFE40
7897D0
B090D0
F09090
F49050
BD9000
2FE000
0BF900
01FF40
00ABD0
0092F0
8090F0
C090F0
D091E0
F497C0
2FF900
009000
009000
ENDCHAR
STARTCHAR percent
ENCODING 37
SWIDTH 692 0
DWIDTH 17 0
BBX 15 16 1 0
BITMAP
06A40680
2C2AAB40
74180E00
B0182C00
E0147400
E020A000
B491C000
2E438000
00070690
000D2820
0028B014
0070E014
0090E024
01C0E030
0340B090
0A002E40
ENDCHAR
STARTCHAR ampersand
ENCODING 38
SWIDTH 736 0
DWIDTH 18 0
BBX 17 16 0 0
BITMAP
002FE00000
00B4380000
00E0280000
00F0280000
00B4A00000
007F43FF40
007D00B800
029F00A000
0A0B80D000
2D03D18000
3C01F30000
7C00BD0000
7C003E0000
3E00AF8080
2FFF87FF40
07F901B900
ENDCHAR
STARTCHAR quotesingle
ENCODING 39
SWIDTH 187 0
DWIDTH 4 0
BBX 3 5 1 12
BITMAP
B4
B0
B0
A0
90
ENDCHAR
STARTCHAR parenleft
ENCODING 40
SWIDTH 357 0
DWIDTH 9 0
BBX 7 23 1 -5
BITMAP
0004
0074
01C0
0740
0E00
2C00
3800
7400
B400
B000
F000
F000
F000
B000
B400
7400
3800
2C00
0E00
0740
01C0
0074
0004
ENDCHAR
STARTCHAR parenright
ENCODING 41
SWIDTH 357 0
DWIDTH 9 0
BBX 7 23 1 -5
BITMAP
4000
A000
1C00
0B00
0380
02D0
00E0
00F0
00B4
00B4
00B4
0074
00B4
00B4
00B4
00F0
00E0
01D0
0380
0B00
1C00
A000
4000
ENDCHAR
STARTCHAR asterisk
ENCODING 42
SWIDTH 410 0
DWIDTH 10 0
BBX 8 9 1 8
BITMAP
0280
E28A
FA6E
1BA4
1BA4
FA6E
E28A
0380
0280
ENDCHAR
STARTCHAR plus
ENCODING 43
SWIDTH 720 0
DWIDTH 17 0
BBX 15 15 1 -1
BITMAP
00078000
00078000
00078000
00078000
00078000
00078000
7FFFFFF8
BFFFFFF8
00078000
00078000
00078000
00078000
00078000
00078000
00014000
ENDCHAR
STARTCHAR comma
ENCODING 44
SWIDTH 245 0
DWIDTH 6 0
BBX 4 6 1 -3
BITMAP
68
BE
7E
0A
0C
64
ENDCHAR
STARTCHAR hyphen
ENCODING 45
SWIDTH 315 0
DWIDTH 8 0
BBX 6 2 1 5
BITMAP
BFD0
FFD0
ENDCHAR
STARTCHAR period
ENCODING 46
SWIDTH 245 0
DWIDTH 6 0
BBX 4 3 1 0
BITMAP
38
7D
7C
ENDCHAR
STARTCHAR slash
ENCODING 47
SWIDTH 386 0
DWIDTH 9 0
BBX 8 20 1 -2
BITMAP
0005
001C
0028
0034
0070
00A0
00A0
00D0
01C0
0280
0340
0700
0A00
0D00
1C00
2800
3400
7000
A000
D000
ENDCHAR
STARTCHAR zero
ENCODING 48
SWIDTH 495 0
DWIDTH 12 0
BBX 12 16 0 0
BITMAP
01BE40
0782D0
0E00F0
2D00B4
3D0078
3C007C
7C003C
7C003D
7C003D
7C003C
3C007C
3D0078
2D00B4
1E00F0
0782D0
01BE40
ENDCHAR
STARTCHAR one
ENCODING 49
SWIDTH 495 0
DWIDTH 12 0
BBX 9 16 2 0
BITMAP
06C000
FFC000
03C000
03C000
03C000
03C000
03C000
03C000
03C000
03C000
03C000
03C000
03C000
03C000
0BE000
FFFF40
ENDCHAR
STARTCHAR two
ENCODING 50
SWIDTH 495 0
DWIDTH 12 0
BBX 10 16 1 0
BITMAP
06F900
2FFF40
740BC0
8007D0
0003D0
0003D0
0003C0
000740
000E00
002800
00A000
018000
060020
180070
7FFFE0
FFFFD0
ENDCHAR
STARTCHAR three
ENCODING 51
SWIDTH 495 0
DWIDTH 12 0
BBX 10 16 1 0
BITMAP
06F900
1FFF40
340F80
500780
000740
000A00
006800
03FE00
001F80
0007D0
0002E0
0001E0
0001D0
000280
790600
6FE400
ENDCHAR
STARTCHAR four
ENCODING 52
SWIDTH 495 0
DWIDTH 12 0
BBX 12 16 0 0
BITMAP
0002C0
0007C0
001FC0
0027C0
00A3C0
01C3C0
0343C0
0A03C0
1803C0
3003C0
BFFFFD
BFFFFE
0003C0
0003C0
0003C0
0003C0
ENDCHAR
STARTCHAR five
ENCODING 53
SWIDTH 495 0
DWIDTH 12 0
BBX 10 16 1 0
BITMAP
07FFD0
0BFFC0
090000
0C0000
180000
1FE400
2FFF40
005FC0
0003D0
0001E0
0001E0
0000D0
0001D0
100280
7D5A00
6FE400
ENDCHAR
STARTCHAR six
ENCODING 54
SWIDTH 495 0
DWIDTH 12 0
BBX 10 16 1 0
BITMAP
001B80
01F800
07D000
1F0000
2D0000
780000
B9BE00
BD0780
F402D0
F401E0
F401F0
B400F0
7801E0
3C02D0
1E0780
06FE00
ENDCHAR
STARTCHAR seven
ENCODING 55
SWIDTH 495 0
DWIDTH 12 0
BBX 10 16 1 0
BITMAP
3FFFF0
7FFFF0
A000D0
8001C0
000280
000340
000B00
000E00
001D00
002C00
003800
00B400
00E000
01D000
02C000
078000
ENDCHAR
STARTCHAR eight
ENCODING 56
SWIDTH 495 0
DWIDTH 12 0
BBX 10 16 1 0
BITMAP
06F900
2D0740
7402C0
B402C0
7802C0
3D0740
1F9900
07F400
06BE00
281F80
7403D0
B001E0
F001E0
B401D0
7D0780
0AF900
ENDCHAR
STARTCHAR nine
ENCODING 57
SWIDTH 495 0
DWIDTH 12 0
BBX 10 16 1 0
BITMAP
0BF900
3D0B40
B403C0
F002D0
F001E0
F001E0
F401E0
B802E0
3D07E0
0BE6E0
0002D0
0007C0
000B40
002E00
01F400
2E4000
ENDCHAR
STARTCHAR colon
ENCODING 58
SWIDTH 245 0
DWIDTH 6 0
BBX 4 12 1 0
BITMAP
38
7D
7C
00
00
00
00
00
00
38
7D
7C
ENDCHAR
STARTCHAR semicolon
ENCODING 59
SWIDTH 245 0
DWIDTH 6 0
BBX 4 15 1 -3
BITMAP
38
7D
7C
00
00
00
00
00
00
68
BE
7E
0A
0C
64
ENDCHAR
STARTCHAR less
ENCODING 60
SWIDTH 720 0
DWIDTH 17 0
BBX 14 14 2 -1
BITMAP
000000A0
00000BD0
0000BE00
001BE000
01BE0000
1BE00000
BE000000
6F400000
06F40000
006F8000
0006F800
00002F80
000002E0
00000010
ENDCHAR
STARTCHAR equal
ENCODING 61
SWIDTH 720 0
DWIDTH 17 0
BBX 15 7 1 3
BITMAP
7FFFFFF8
BFFFFFF8
00000000
00000000
00000000
7FFFFFF8
BFFFFFF8
ENDCHAR
STARTCHAR greater
ENCODING 62
SWIDTH 720 0
DWIDTH 17 0
BBX 15 14 1 -1
BITMAP
64000000
7E400000
07E40000
007E4000
0007E400
00007F40
000007F4
00001BD0
0001FD00
001F9000
01F90000
1F900000
79000000
10000000
ENDCHAR
STARTCHAR question
ENCODING 63
SWIDTH 411 0
DWIDTH 10 0
BBX 10 16 0 0
BITMAP
06F900
280B80
7803C0
7C03D0
2803C0
000780
000B40
001D00
002800
007000
006000
005000
000000
00A000
01F400
01F000
ENDCHAR
STARTCHAR at
ENCODING 64
SWIDTH 905 0
DWIDTH 22 0
BBX 20 20 1 -4
BITMAP
0006BF9000
0069006E00
01D0000780
07400001E0
0E00000074
2C01BD7038
380B42F02C
741E00F01C
742D00F01D
B43C00F01D
B43C00F01D
743C00F01C
743C00F028
382D01F034
2C1E06B0A0
1E06F87F80
0B40000000
02D0000000
0079001640
0006BFA400
ENDCHAR
STARTCHAR A
ENCODING 65
SWIDTH 718 0
DWIDTH 17 0
BBX 17 16 0 0
BITMAP
0001D00000
0002E00000
0003F00000
000AF80000
000D7C0000
001C3D0000
00282E0000
00741F4000
00A00F8000
00D00BC000
01FFFFE000
038002F000
070001F400
0A0000FC00
1E0000BE00
FFC007FFC0
ENDCHAR
STARTCHAR B
ENCODING 66
SWIDTH 618 0
DWIDTH 15 0
BBX 13 16 1 0
BITMAP
BFFFE400
0F407D00
0F402F00
0B401F40
0B401F00
0B401E00
0B407800
0BFFD000
0B407D00
0B401F40
0B400B80
0B400BC0
0B400BC0
0F400F80
0F406E00
BFFFE400
ENDCHAR
STARTCHAR C
ENCODING 67
SWIDTH 670 0
DWIDTH 16 0
BBX 14 16 1 0
BITMAP
006BF9A0
02E40BE0
0F4002E0
2E0000E0
3D0000A0
7C000060
B8000000
B8000000
B8000000
B8000000
7C000000
3D000000
2E000000
0F400060
03E40680
006FF900
ENDCHAR
STARTCHAR D
ENCODING 68
SWIDTH 730 0
DWIDTH 18 0
BBX 16 16 1 0
BITMAP
BFFFE400
0F416F40
0F4007E0
0B4001F4
0B4000F8
0B4000BC
0B40007D
0B40007D
0B40007D
0B40007D
0B40007C
0B4000B8
0B4001F4
0F4003D0
0F406F40
BFFFE400
ENDCHAR
STARTCHAR E
ENCODING 69
SWIDTH 626 0
DWIDTH 15 0
BBX 14 16 1 0
BITMAP
BFFFFF40
0F401780
0F400180
0B400040
0B400800
0B401800
0B402800
0BFFF800
0B402800
0B400800
0B400000
0B400090
0B4000C0
0F4001C0
0F4017C0
BFFFFF80
ENDCHAR
STARTCHAR F
ENCODING 70
SWIDTH 588 0
DWIDTH 14 0
BBX 13 16 1 0
BITMAP
BFFFFF80
0F400780
0F400180
0B400040
0B401800
0B401800
0B402800
0BFFF800
0B402800
0B401800
0B400000
0B400000
0B400000
0F400000
1F800000
FFFC0000
ENDCHAR
STARTCHAR G
ENCODING 71
SWIDTH 720 0
DWIDTH 17 0
BBX 16 16 1 0
BITMAP
006FF9A0
02E00BE0
0F4001E0
2E0000E0
3D0000A0
7C000060
B8000000
B8000000
B8001FFD
B80002F0
BC0001F0
7D0001E0
2E0001E0
1F4001E0
07E407E0
006FF900
ENDCHAR
STARTCHAR H
ENCODING 72
SWIDTH 777 0
DWIDTH 19 0
BBX 17 16 1 0
BITMAP
BFFC0BFFC0
0BC000BD00
0B80007C00
0780007800
0780007800
0780007800
0780007800
07FFFFF800
0780007800
0780007800
0780007800
0780007800
0780007800
0B80007C00
0BC000BD00
BFFC0BFFC0
ENDCHAR
STARTCHAR I
ENCODING 73
SWIDTH 357 0
DWIDTH 9 0
BBX 8 16 0 0
BITMAP
7FFE
07E0
03D0
02D0
02D0
02D0
02D0
02D0
02D0
02D0
02D0
02D0
02D0
03D0
07E0
7FFE
ENDCHAR
STARTCHAR J
ENCODING 74
SWIDTH 396 0
DWIDTH 10 0
BBX 9 16 0 0
BITMAP
0BFFC0
00BD00
007C00
007800
007800
007800
007800
007800
007800
007800
007800
007800
007800
F07800
F8B400
6F9000
ENDCHAR
STARTCHAR K
ENCODING 75
SWIDTH 702 0
DWIDTH 17 0
BBX 17 16 0 0
BITMAP
7FFE1FFE00
07E003E000
03D0078000
02D00E0000
02D0740000
02D1D00000
02D7400000
02EE000000
02EF400000
02D7D00000
02D1F80000
02D07E0000
02D01F8000
03D007E000
07E003F800
7FFE1FFF80
ENDCHAR
STARTCHAR L
ENCODING 76
SWIDTH 585 0
DWIDTH 14 0
BBX 13 16 1 0
BITMAP
FFF80000
1F800000
0F400000
0B400000
0B400000
0B400000
0B400000
0B400000
0B400000
0B400000
0B400000
0B400040
0B400240
0B400340
0F801B00
BFFFFF00
ENDCHAR
STARTCHAR M
ENCODING 77
SWIDTH 895 0
DWIDTH 21 0
BBX 21 16 0 0
BITMAP
7FE00001FF40
07F40002F800
03F80007F400
03BC000AF400
037D000DF400
032F001CF400
031F4034F400
030B8070F400
0307C0A0F400
0303E0D0F400
0301F280F400
0300F740F400
0300BF00F400
03407E00F400
07802C01F800
7FF4180FFF40
ENDCHAR
STARTCHAR N
ENCODING 78
SWIDTH 742 0
DWIDTH 18 0
BBX 17 16 0 0
BITMAP
7FD001FFC0
0BF0002E00
03F8001C00
03BD001C00
036F401C00
030FC01C00
0307E01C00
0302F41C00
0300BD1C00
03003F1C00
03001F9C00
030007EC00
030002FC00
034000BC00
0B80003C00
7FF4001C00
ENDCHAR
STARTCHAR O
ENCODING 79
SWIDTH 738 0
DWIDTH 18 0
BBX 16 16 1 0
BITMAP
006FE900
02E01B80
0F4002E0
2E0000F4
3D0000BC
7C00007D
B800003D
B800003D
B800003D
BC00003D
7C00007C
3D0000B8
2E0000F4
0F4002E0
02E00B80
006FF900
ENDCHAR
STARTCHAR P
ENCODING 80
SWIDTH 569 0
DWIDTH 14 0
BBX 12 16 1 0
BITMAP
BFFFA0
0F41BD
0B402E
0B401F
0B401F
0B401F
0B402D
0B41B8
0BFE90
0B4000
0B4000
0B4000
0B4000
0F4000
1F8000
FFF800
ENDCHAR
STARTCHAR Q
ENCODING 81
SWIDTH 737 0
DWIDTH 18 0
BBX 16 20 1 -4
BITMAP
006FE900
02E01B80
0F4002E0
2E0000F4
3D0000BC
7C00007D
B800003D
B800003D
B800003D
B800003D
BC00007C
7D0000B8
2E0000F4
1F4002E0
07E01B80
00AFF900
0001F800
0000BE00
00002F90
000006BF
ENDCHAR
STARTCHAR R
ENCODING 82
SWIDTH 659 0
DWIDTH 16 0
BBX 15 16 1 0
BITMAP
BFFF9000
0F41BD00
0F402E00
0B401F00
0B401F00
0B401F00
0B403D00
0B41F400
0BFF8000
0B4BC000
0B42E000
0B40F800
0B407D00
0F402F40
1F800FD0
FFF807FC
ENDCHAR
STARTCHAR S
ENCODING 83
SWIDTH 504 0
DWIDTH 12 0
BBX 11 16 1 0
BITMAP
0BFFD0
3D07D0
B400D0
B400A0
B80060
7E0000
2FD000
0BF900
01BF80
001FE0
0003F0
8001F4
C000F4
E000F0
F806D0
FFFE40
ENDCHAR
STARTCHAR T
ENCODING 84
SWIDTH 603 0
DWIDTH 14 0
BBX 14 16 0 0
BITMAP
7FFFFFF0
740F40B0
A00F4030
900F4020
000F4000
000F4000
000F4000
000F4000
000F4000
000F4000
000F4000
000F4000
000F4000
000F4000
001F8000
01FFF800
ENDCHAR
STARTCHAR U
ENCODING 85
SWIDTH 752 0
DWIDTH 18 0
BBX 18 16 0 0
BITMAP
7FFD01FFE0
0BD0002E00
07C0000D00
07C0000D00
07C0000D00
07C0000D00
07C0000D00
07C0000D00
07C0000D00
07C0000D00
03C0000D00
03C0000D00
02D0001C00
01E0002400
00B901A000
001BFE4000
ENDCHAR
STARTCHAR V
ENCODING 86
SWIDTH 680 0
DWIDTH 16 0
BBX 18 16 -1 0
BITMAP
7FFD00BFD0
0BE0000F00
03E0000D00
02F0001C00
00F4003400
00BC007000
007D00A000
003E00D000
001F018000
000F424000
000BC70000
0003DA0000
0002ED0000
0001F80000
0000F40000
0000700000
ENDCHAR
STARTCHAR W
ENCODING 87
SWIDTH 944 0
DWIDTH 23 0
BBX 24 16 -1 0
BITMAP
7FFC3FFC07FE
0BE00BD000F4
03E003D000A0
02F002F000D0
01F401F401C0
00B800F80280
007C01FC0340
003D037D0700
002F072E0A00
001F4A1F4D00
000B8C0B9C00
0007D807E800
0003F403F000
0002F002E000
0001E001D000
00009000C000
ENDCHAR
STARTCHAR X
ENCODING 88
SWIDTH 664 0
DWIDTH 16 0
BBX 16 16 0 0
BITMAP
BFFC0BFE
0BE002E0
02F00380
01F80700
007C1D00
002E3400
001FA000
0007C000
0007E000
001DF400
00347D00
00A02E00
02C01F80
07400BD0
1F0007F4
FFD02FFE
ENDCHAR
STARTCHAR Y
ENCODING 89
SWIDTH 647 0
DWIDTH 16 0
BBX 16 16 0 0
BITMAP
FFF40BFE
2F8000E0
0BC001C0
03E00340
01F40A00
00BC0C00
003E2800
001F7000
000BD000
0007C000
0007C000
0007C000
0007C000
0007C000
000BD000
00BFFD00
ENDCHAR
STARTCHAR Z
ENCODING 90
SWIDTH 594 0
DWIDTH 14 0
BBX 14 16 0 0
BITMAP
1FFFFFD0
1E000F80
18002F00
24007D00
0000F800
0002F000
0007D000
000F8000
002F0000
007D0000
00F80000
02F00010
07D00050
0F8000D0
2F0002C0
7FFFFFC0
ENDCHAR
STARTCHAR bracketleft
ENCODING 91
SWIDTH 349 0
DWIDTH 8 0
BBX 5 23 2 -5
BITMAP
BFC0
F000
F000
F000
F000
F000
F000
F000
F000
F000
F000
F000
F000
F000
F000
F000
F000
F000
F000
F000
F000
F000
BFC0
ENDCHAR
STARTCHAR backslash
ENCODING 92
SWIDTH 385 0
DWIDTH 9 0
BBX 8 20 1 -2
BITMAP
8000
D000
A000
7000
3400
2800
1C00
0D00
0A00
0700
0340
0280
01C0
00D0
00A0
0070
0034
0028
001C
000D
ENDCHAR
STARTCHAR bracketright
ENCODING 93
SWIDTH 349 0
DWIDTH 8 0
BBX 6 23 1 -5
BITMAP
BFD0
02D0
02D0
02D0
02D0
02D0
02D0
02D0
02D0
02D0
02D0
02D0
02D0
02D0
02D0
02D0
02D0
02D0
02D0
02D0
02D0
02D0
BFD0
ENDCHAR
STARTCHAR asciicircum
ENCODING 94
SWIDTH 480 0
DWIDTH 12 0
BBX 10 9 1 8
BITMAP
00E000
02F000
036800
0A1C00
0D0A00
280700
340380
B001C0
D000E0
ENDCHAR
STARTCHAR underscore
ENCODING 95
SWIDTH 512 0
DWIDTH 12 0
BBX 13 1 0 -3
BITMAP
FFFFFF40
ENDCHAR
STARTCHAR grave
ENCODING 96
SWIDTH 222 0
DWIDTH 5 0
BBX 5 4 0 13
BITMAP
7C00
1E00
0B00
0240
ENDCHAR
STARTCHAR a
ENCODING 97
SWIDTH 480 0
DWIDTH 12 0
BBX 10 12 1 0
BITMAP
0BF800
382E00
B40F00
740F40
000B40
006F40
0B9B40
780B40
F00B40
F00B40
B81B40
2F87E0
ENDCHAR
STARTCHAR b
ENCODING 98
SWIDTH 522 0
DWIDTH 13 0
BBX 12 17 0 0
BITMAP
6B0000
6F0000
0F0000
0F0000
0F0000
0F1BD0
0F7FF8
0F80BC
0F003D
0F002E
0F002E
0F002E
0F002D
0F002C
0F0078
0F81E0
06FE40
ENDCHAR
STARTCHAR c
ENCODING 99
SWIDTH 446 0
DWIDTH 11 0
BBX 10 12 0 0
BITMAP
01BE40
0B43D0
1D01E0
2C0090
380000
380000
7C0000
3C0000
3D0010
1F40A0
0BFFC0
02FE00
ENDCHAR
STARTCHAR d
ENCODING 100
SWIDTH 539 0
DWIDTH 13 0
BBX 12 17 0 0
BITMAP
0001B8
0001B8
000078
000078
000078
01BFB8
0741F8
0E00B8
2C0078
3C0078
3C0078
7C0078
3C0078
3D0078
2F40B8
0FFFBD
06F87A
ENDCHAR
STARTCHAR e
ENCODING 101
SWIDTH 464 0
DWIDTH 11 0
BBX 10 12 1 0
BITMAP
06F900
280F40
700780
B003C0
FFFFD0
E00000
F00000
F40000
B80050
7E0180
2FFF40
06F900
ENDCHAR
STARTCHAR f
ENCODING 102
SWIDTH 307 0
DWIDTH 7 0
BBX 9 18 0 0
BITMAP
007E40
0287C0
038280
074000
074000
0B4000
7FFD00
0B4000
0B4000
0B4000
0B4000
0B4000
0B4000
0B4000
0B4000
0B4000
0F8000
BFFC00
ENDCHAR
STARTCHAR g
ENCODING 103
SWIDTH 484 0
DWIDTH 12 0
BBX 12 17 0 -5
BITMAP
02FFFD
0F07D0
2D01E0
2D01F0
2E01E0
1F42D0
0ABE00
050000
1C0000
2D0000
2FFE90
0BFFF8
18006C
34000C
780018
7D0060
1BFA40
ENDCHAR
STARTCHAR h
ENCODING 104
SWIDTH 577 0
DWIDTH 14 0
BBX 14 17 0 0
BITMAP
1B400000
5F400000
0B400000
0B400000
0B400000
0B47E400
0B6FFC00
0BD07D00
0B402D00
0B402E00
0B401E00
0B401E00
0B401E00
0B401E00
0B401E00
0B802E00
7FF0FFD0
ENDCHAR
STARTCHAR i
ENCODING 105
SWIDTH 285 0
DWIDTH 7 0
BBX 6 16 0 0
BITMAP
0740
0F80
0640
0000
1B40
1B40
0B40
0B40
0B40
0B40
0B40
0B40
0B40
0B40
0B80
7FF0
ENDCHAR
STARTCHAR j
ENCODING 106
SWIDTH 263 0
DWIDTH 6 0
BBX 8 21 -3 -5
BITMAP
002D
003E
0019
0000
00AD
007D
002D
002D
002D
002D
002D
002D
002D
002D
002D
002D
002D
002D
242C
7D74
2FD0
ENDCHAR
STARTCHAR k
ENCODING 107
SWIDTH 542 0
DWIDTH 13 0
BBX 13 17 0 0
BITMAP
1B400000
1F400000
0B400000
0B400000
0B400000
0B43FF00
0B40F400
0B428000
0B4A0000
0B680000
0BF80000
0B7E0000
0B4F4000
0B47D000
0B41F400
0B80BD00
7FF1FFC0
ENDCHAR
STARTCHAR l
ENCODING 108
SWIDTH 283 0
DWIDTH 7 0
BBX 7 17 0 0
BITMAP
1B40
5F40
0B40
0B40
0B40
0B40
0B40
0B40
0B40
0B40
0B40
0B40
0B40
0B40
0B40
0B80
7FF4
ENDCHAR
STARTCHAR m
ENCODING 109
SWIDTH 852 0
DWIDTH 20 0
BBX 20 12 0 0
BITMAP
2B4BE46F80
0BA07E82E0
0B802E00F0
0B402D00F0
0B402D00B4
0B402D00B4
0B402D00B4
0B402D00B4
0B402D00B4
0B402D00F4
0B803E00F4
7FF5FFDBFF
ENDCHAR
STARTCHAR n
ENCODING 110
SWIDTH 576 0
DWIDTH 14 0
BBX 14 12 0 0
BITMAP
2B4BE400
0BA07C00
0B802D00
0B402D00
0B401E00
0B401E00
0B401E00
0B401E00
0B401E00
0B401E00
0B802E00
7FF5FFD0
ENDCHAR
STARTCHAR o
ENCODING 111
SWIDTH 514 0
DWIDTH 12 0
BBX 11 12 1 0
BITMAP
06FE00
2E07C0
7801E0
B400F0
F000F4
F000B4
F000B4
F400B4
B400F0
7801E0
2E0780
06F900
ENDCHAR
STARTCHAR p
ENCODING 112
SWIDTH 537 0
DWIDTH 13 0
BBX 12 17 0 -5
BITMAP
1B4BE0
6F7FF8
0B907D
0B402E
0B401F
0B401F
0B400F
0B401E
0B401D
0B402C
0BD0B4
0BAF80
0B4000
0B4000
0B4000
0F8000
7FF800
ENDCHAR
STARTCHAR q
ENCODING 113
SWIDTH 521 0
DWIDTH 13 0
BBX 12 17 0 -5
BITMAP
01BE68
0741F8
0E00B8
2C0078
3C0078
3C0078
7C0078
3C0078
3D0078
2F40B8
0FFFB8
06F878
000078
000078
000078
0000B8
000BFF
ENDCHAR
STARTCHAR r
ENCODING 114
SWIDTH 380 0
DWIDTH 9 0
BBX 9 12 0 0
BITMAP
1B4B80
2F6FC0
0BA280
0B8000
0B4000
0B4000
0B4000
0B4000
0B4000
0B4000
0B8000
7FF800
ENDCHAR
STARTCHAR s
ENCODING 115
SWIDTH 395 0
DWIDTH 9 0
BBX 8 12 1 0
BITMAP
1FE8
B42C
E00C
F408
BD00
2FD0
07F8
00BD
801E
C01E
E42D
EFE4
ENDCHAR
STARTCHAR t
ENCODING 116
SWIDTH 315 0
DWIDTH 8 0
BBX 7 16 1 0
BITMAP
0400
0D00
1D00
3D00
FFF0
2D00
2D00
2D00
2D00
2D00
2D00
2D00
2D00
2D00
2D14
0B90
ENDCHAR
STARTCHAR u
ENCODING 117
SWIDTH 570 0
DWIDTH 14 0
BBX 13 12 0 0
BITMAP
6F41BD00
1F407D00
0B402D00
0B402D00
0B402D00
0B402D00
0B402D00
0B402D00
0B402D00
0B402D00
07D1BD00
01FE2E80
ENDCHAR
STARTCHAR v
ENCODING 118
SWIDTH 481 0
DWIDTH 12 0
BBX 13 12 -1 0
BITMAP
7FE07FC0
0F800E00
07800D00
03C01800
02D02400
01F07000
00F4A000
00B8C000
003D8000
002E4000
001F0000
000E0000
ENDCHAR
STARTCHAR w
ENCODING 119
SWIDTH 749 0
DWIDTH 18 0
BBX 20 12 -1 0
BITMAP
7FE2FF42FD
0F807D00B0
07802D00A0
03C01E00C0
02D02F0180
01F03B4240
00F467C300
00B8C3D600
003D81E900
002F40FC00
001F00B800
000E007000
ENDCHAR
STARTCHAR x
ENCODING 120
SWIDTH 479 0
DWIDTH 12 0
BBX 12 12 0 0
BITMAP
BFD2FC
1F40E0
0B81C0
03D340
01F900
00BC00
007D00
01DF00
034780
0A02E0
2C01F4
FF07FE
ENDCHAR
STARTCHAR y
ENCODING 121
SWIDTH 483 0
DWIDTH 12 0
BBX 13 17 -1 -5
BITMAP
7FE07F80
0F800E00
0B800C00
03D01800
02E02400
00F03000
00B86000
007C8000
002D8000
001F4000
000F0000
000A0000
000D0000
00180000
00340000
2FE00000
2F800000
ENDCHAR
STARTCHAR z
ENCODING 122
SWIDTH 458 0
DWIDTH 11 0
BBX 11 12 0 0
BITMAP
2FFFF0
2902E0
3407C0
200F40
002E00
007C00
00F400
02E000
07C024
0F4030
2E01B0
7FFFF0
ENDCHAR
STARTCHAR braceleft
ENCODING 123
SWIDTH 327 0
DWIDTH 8 0
BBX 7 23 0 -5
BITMAP
00B8
0390
0B40
0B00
0B00
0B40
0740
0740
0740
0740
0A00
7800
1D00
0700
0740
0740
0740
0B40
0B00
0B00
0B40
0390
00B8
ENDCHAR
STARTCHAR bar
ENCODING 124
SWIDTH 267 0
DWIDTH 6 0
BBX 2 22 2 -5
BITMAP
70
70
70
70
70
70
70
70
70
70
70
70
70
70
70
70
70
70
70
70
70
70
ENDCHAR
STARTCHAR braceright
ENCODING 125
SWIDTH 327 0
DWIDTH 8 0
BBX 7 23 1 -5
BITMAP
E800
1F00
0740
0780
0740
0740
0740
0B40
0B00
0700
0280
00B4
02D0
0740
0B00
0B40
0B40
0740
0740
0780
0740
1F00
E800
ENDCHAR
STARTCHAR asciitilde
ENCODING 126
SWIDTH 557 0
DWIDTH 13 0
BBX 12 5 1 4
BITMAP
000004
2F901D
BFFFFC
E01BE0
400000
ENDCHAR
STARTCHAR uni00A0
ENCODING 160
SWIDTH 235 0
DWIDTH 6 0
BBX 1 1 0 0
BITMAP
00
ENDCHAR
STARTCHAR exclamdown
ENCODING 161
SWIDTH 282 0
DWIDTH 7 0
BBX 3 17 2 -5
BITMAP
B4
F8
B4
00
10
30
70
70
70
74
B4
B4
B4
B8
F8
B8
74
ENDCHAR
STARTCHAR cent
ENCODING 162
SWIDTH 495 0
DWIDTH 12 0
BBX 10 17 1 -1
BITMAP
003000
003000
007900
0ABB80
2C73D0
7472D0
B06000
B06000
F06000
F46000
B86000
7C6060
3FA1C0
1FFF40
06F900
009000
009000
ENDCHAR
STARTCHAR sterling
ENCODING 163
SWIDTH 495 0
DWIDTH 12 0
BBX 12 16 0 0
BITMAP
001BE0
00A0BC
01D02C
02D000
02D000
02D000
02E000
2FFFC0
01E000
01E000
00E000
00E000
2FD005
91F41C
92BFF4
7E1BD0
ENDCHAR
STARTCHAR currency
ENCODING 164
SWIDTH 617 0
DWIDTH 15 0
BBX 13 12 1 1
BITMAP
A0000780
7DBF9E00
0F80B800
0D002C00
1C000D00
28000D00
28000D00
1C000D00
0D002C00
0F80B800
79BE9E00
A0000380
ENDCHAR
STARTCHAR yen
ENCODING 165
SWIDTH 495 0
DWIDTH 12 0
BBX 12 16 0 0
BITMAP
FFD1FE
3F0038
1F4030
0F80A0
07C0D0
03E180
01F240
00F700
00BE00
1FFFF4
003D00
1FFFF4
003D00
003D00
007E00
03FFD0
ENDCHAR
STARTCHAR brokenbar
ENCODING 166
SWIDTH 267 0
DWIDTH 6 0
BBX 2 17 2 0
BITMAP
70
70
70
70
70
70
70
00
00
00
70
70
70
70
70
70
70
ENDCHAR
STARTCHAR section
ENCODING 167
SWIDTH 491 0
DWIDTH 12 0
BBX 8 21 2 -5
BITMAP
0BE4
381D
700E
741E
7804
2E00
0FD0
26F4
90BC
D02E
E00B
B407
7D06
1F98
07E0
01F4
507C
E01D
D01D
A068
2F90
ENDCHAR
STARTCHAR dieresis
ENCODING 168
SWIDTH 392 0
DWIDTH 9 0
BBX 9 3 0 14
BITMAP
280640
7D0F80
2C0B40
ENDCHAR
STARTCHAR copyright
ENCODING 169
SWIDTH 781 0
DWIDTH 19 0
BBX 17 17 1 0
BITMAP
001BF90000
01E4068000
0600007400
1800001C00
240BFA0600
60380B0300
50B0020240
90F0000240
90F0000240
90F0000240
50B4000240
603D060300
240BF80600
1C00001C00
0600007400
01E4068000
001BF90000
ENDCHAR
STARTCHAR ordfeminine
ENCODING 170
SWIDTH 410 0
DWIDTH 10 0
BBX 9 10 1 6
BITMAP
1AE000
707400
B03800
103C00
01BC00
2E7C00
B03C00
E03C00
F03C00
7E5E40
ENDCHAR
STARTCHAR guillemotleft
ENCODING 171
SWIDTH 517 0
DWIDTH 12 0
BBX 10 10 1 1
BITMAP
004010
0280A0
0A02C0
2C0B40
B42D00
F03C00
781E00
1E0780
0741D0
018020
ENDCHAR
STARTCHAR logicalnot
ENCODING 172
SWIDTH 720 0
DWIDTH 17 0
BBX 15 9 1 2
BITMAP
7FFFFFF4
BFFFFFF4
00000074
00000074
00000074
00000074
00000074
00000074
00000050
ENDCHAR
STARTCHAR uni00AD
ENCODING 173
SWIDTH 315 0
DWIDTH 8 0
BBX 6 2 1 5
BITMAP
BFD0
FFD0
ENDCHAR
STARTCHAR registered
ENCODING 174
SWIDTH 413 0
DWIDTH 10 0
BBX 8 9 1 9
BITMAP
0550
2008
8A52
8962
4A92
8992
9A26
2008
0550
ENDCHAR
STARTCHAR macron
ENCODING 175
SWIDTH 350 0
DWIDTH 8 0
BBX 8 1 0 14
BITMAP
7FFE
ENDCHAR
STARTCHAR degree
ENCODING 176
SWIDTH 409 0
DWIDTH 10 0
BBX 8 8 1 10
BITMAP
0BE0
3828
B00D
A00A
A00A
B00D
3828
0BE0
ENDCHAR
STARTCHAR plusminus
ENCODING 177
SWIDTH 720 0
DWIDTH 17 0
BBX 15 15 1 -1
BITMAP
00074000
00074000
00074000
00074000
00074000
BFFFFFF8
7FFFFFF8
00074000
00074000
00074000
00074000
00024000
00000000
7FFFFFF8
BFFFFFF8
ENDCHAR
STARTCHAR twosuperior
ENCODING 178
SWIDTH 373 0
DWIDTH 9 0
BBX 9 12 0 6
BITMAP
0BE400
256D00
100F00
000F00
000E00
002C00
007400
00D000
034040
0D0240
3FFF40
7FFF00
ENDCHAR
STARTCHAR threesuperior
ENCODING 179
SWIDTH 374 0
DWIDTH 9 0
BBX 7 12 1 6
BITMAP
2F90
95F0
4074
00B0
0180
1FD0
01B8
003C
002C
0028
9074
BA80
ENDCHAR
STARTCHAR acute
ENCODING 180
SWIDTH 222 0
DWIDTH 5 0
BBX 4 4 1 13
BITMAP
2E
78
B0
C0
ENDCHAR
STARTCHAR uni00B5
ENCODING 181
SWIDTH 556 0
DWIDTH 13 0
BBX 13 17 1 -5
BITMAP
7C01F000
7C01E000
7801E000
7801D000
7401D000
7401C000
7402C000
7403C000
740AC000
7D1CE140
BBF8FF00
B2E07800
B0000000
B0000000
F0000000
F4000000
E0000000
ENDCHAR
STARTCHAR paragraph
ENCODING 182
SWIDTH 605 0
DWIDTH 15 0
BBX 12 20 1 -4
BITMAP
06FFFE
2D2CB4
782CB0
B42CB0
B42CB0
B42CB0
742CB0
382CB0
1E2CB0
06BCB0
002CB0
002CB0
002CB0
002CB0
002CB0
002CB0
002CB0
002CB0
003CB4
02F8BE
ENDCHAR
STARTCHAR periodcentered
ENCODING 183
SWIDTH 282 0
DWIDTH 7 0
BBX 3 3 2 5
BITMAP
B4
F8
B4
ENDCHAR
STARTCHAR cedilla
ENCODING 184
SWIDTH 247 0
DWIDTH 6 0
BBX 4 6 1 -5
BITMAP
10
20
7E
07
47
B9
ENDCHAR
STARTCHAR onesuperior
ENCODING 185
SWIDTH 343 0
DWIDTH 8 0
BBX 6 12 1 6
BITMAP
6B00
9F00
0B00
0B00
0B00
0B00
0B00
0B00
0B00
0B00
0B40
BFE0
ENDCHAR
STARTCHAR ordmasculine
ENCODING 186
SWIDTH 432 0
DWIDTH 10 0
BBX 10 10 0 6
BITMAP
02A900
1E0780
2C02D0
3801D0
7801E0
7801E0
3801D0
2C02C0
1E0740
06E900
ENDCHAR
STARTCHAR guillemotright
ENCODING 187
SWIDTH 517 0
DWIDTH 12 0
BBX 11 10 1 1
BITMAP
401000
701C00
2C0700
0B02C0
03C0F0
02D0B8
0781E0
1E0380
340A00
902800
ENDCHAR
STARTCHAR onequarter
ENCODING 188
SWIDTH 861 0
DWIDTH 21 0
BBX 19 18 1 0
BITMAP
0000001400
6E00002400
AE00006000
0E0000D000
0E00028000
0E00070000
0E00090000
0E001C01D0
0E003403D0
0F00A00AD0
BFE0C019D0
00028071D0
000700D1D0
000D0281D0
001803FFFC
00340001D0
00A00001D0
01C0000040
ENDCHAR
STARTCHAR onehalf
ENCODING 189
SWIDTH 889 0
DWIDTH 21 0
BBX 20 18 1 -1
BITMAP
0500002800
BE00003000
4E0000A000
0E0001C000
0E00034000
0E00060000
0E000D0000
0E00281BE4
0E007065BC
1F0090402D
BFE1C0002C
0003400038
000A0000A0
000C000241
0028001806
0070007FFD
00D000FFFD
0040000000
ENDCHAR
STARTCHAR threequarters
ENCODING 190
SWIDTH 861 0
DWIDTH 21 0
BBX 19 18 1 0
BITMAP
0000001400
1B90002400
90B0006000
407400D000
00B0028000
0190070000
1FE0090000
00B81C0090
00383402D0
E074A006D0
BE90C019D0
00028021D0
00070091D0
000D0281D0
001803FFFC
00340001D0
00A00001D0
01C0000040
ENDCHAR
STARTCHAR questiondown
ENCODING 191
SWIDTH 411 0
DWIDTH 10 0
BBX 10 17 0 -5
BITMAP
00F000
01F400
00A000
000000
005000
009000
00D000
02C000
074000
0F0000
1D0000
3C0000
7C03C0
7C03D0
3C02C0
1E0380
06F900
ENDCHAR
STARTCHAR Agrave
ENCODING 192
SWIDTH 718 0
DWIDTH 17 0
BBX 17 20 0 0
BITMAP
000F800000
0002E00000
0000740000
0000000000
0001D00000
0002E00000
0003F00000
000AF80000
000D7C0000
001C3D0000
00282E0000
00741F4000
00A00F8000
00D00BC000
01FFFFE000
038002F000
070001F400
0A0000FC00
1E0000BE00
FFC007FFC0
ENDCHAR
STARTCHAR Aacute
ENCODING 193
SWIDTH 718 0
DWIDTH 17 0
BBX 17 20 0 0
BITMAP
0000BC0000
0002E00000
0007400000
0000000000
0001D00000
0002E00000
0003F00000
000AF80000
000D7C0000
001C3D0000
00282E0000
00741F4000
00A00F8000
00D00BC000
01FFFFE000
038002F000
070001F400
0A0000FC00
1E0000BE00
FFC007FFC0
ENDCHAR
STARTCHAR Acircumflex
ENCODING 194
SWIDTH 718 0
DWIDTH 17 0
BBX 17 21 0 0
BITMAP
0001900000
0003F40000
000E6C0000
00280A0000
0000000000
0001D00000
0002E00000
0003F00000
000AF80000
000D7C0000
001C3D0000
00282E0000
00741F4000
00A00F8000
00D00BC000
01FFFFE000
038002F000
070001F400
0A0000FC00
1E0000BE00
FFC007FFC0
ENDCHAR
STARTCHAR Atilde
ENCODING 195
SWIDTH 718 0
DWIDTH 17 0
BBX 17 21 0 0
BITMAP
000A414000
002FD20000
0021BD0000
0000000000
0000000000
0001D00000
0002E00000
0003F00000
000AF80000
000D7C0000
001C3D0000
00282E0000
00741F4000
00A00F8000
00D00BC000
01FFFFE000
038002F000
070001F400
0A0000FC00
1E0000BE00
FFC007FFC0
ENDCHAR
STARTCHAR Adieresis
ENCODING 196
SWIDTH 718 0
DWIDTH 17 0
BBX 17 20 0 0
BITMAP
00280A0000
007C0F4000
00780B4000
0000000000
0001D00000
0002E00000
0003F00000
000AF80000
000D7C0000
001C3D0000
00282E0000
00741F4000
00A00F8000
00D00BC000
01FFFFE000
038002F000
070001F400
0A0000FC00
1E0000BE00
FFC007FFC0
ENDCHAR
STARTCHAR Aring
ENCODING 197
SWIDTH 718 0
DWIDTH 17 0
BBX 17 22 0 0
BITMAP
0002E00000
0009180000
000C0C0000
0009180000
0002E00000
0000000000
0001D00000
0002E00000
0003F00000
000AF80000
000D7C0000
001C3D0000
00282E0000
00741F4000
00A00F8000
00D00BC000
01FFFFE000
038002F000
070001F400
0A0000FC00
1E0000BE00
FFC007FFC0
ENDCHAR
STARTCHAR AE
ENCODING 198
SWIDTH 894 0
DWIDTH 21 0
BBX 22 16 -1 0
BITMAP
0000BFFFFFC0
00002BD006C0
000037C000C0
0000A3C00080
0001C3C00000
000283C00800
000703C00C00
000D03C01C00
001FFFFFFC00
003403C01C00
00B003C00800
00D003C00010
028003C00060
074003C00090
1F4007D006D0
BFE07FFFFFC0
ENDCHAR
STARTCHAR Ccedilla
ENCODING 199
SWIDTH 670 0
DWIDTH 16 0
BBX 14 21 1 -5
BITMAP
006BF9A0
02E40BE0
0F4002E0
2E0000E0
3D0000A0
7C000060
B8000000
B8000000
B8000000
B8000000
7C000000
3D000000
2E000000
0F400060
03E40680
006FF900
00050000
000B9000
0000A000
0010A000
001B8000
ENDCHAR
STARTCHAR Egrave
ENCODING 200
SWIDTH 626 0
DWIDTH 15 0
BBX 14 20 1 0
BITMAP
00BC0000
001E0000
00028000
00000000
BFFFFF40
0F401780
0F400180
0B400040
0B400800
0B401800
0B402800
0BFFF800
0B402800
0B400800
0B400000
0B400090
0B4000C0
0F4001C0
0F4017C0
BFFFFF80
ENDCHAR
STARTCHAR Eacute
ENCODING 201
SWIDTH 626 0
DWIDTH 15 0
BBX 14 20 1 0
BITMAP
000BD000
001E0000
00740000
00000000
BFFFFF40
0F401780
0F400180
0B400040
0B400800
0B401800
0B402800
0BFFF800
0B402800
0B400800
0B400000
0B400090
0B4000C0
0F4001C0
0F4017C0
BFFFFF80
ENDCHAR
STARTCHAR Ecircumflex
ENCODING 202
SWIDTH 626 0
DWIDTH 15 0
BBX 14 21 1 0
BITMAP
00190000
003F4000
00B6C000
01806000
00000000
BFFFFF40
0F401780
0F400180
0B400040
0B400800
0B401800
0B402800
0BFFF800
0B402800
0B400800
0B400000
0B400090
0B4000C0
0F4001C0
0F4017C0
BFFFFF80
ENDCHAR
STARTCHAR Edieresis
ENCODING 203
SWIDTH 626 0
DWIDTH 15 0
BBX 14 20 1 0
BITMAP
02806400
07D0F800
03C0B400
00000000
BFFFFF40
0F401780
0F400180
0B400040
0B400800
0B401800
0B402800
0BFFF800
0B402800
0B400800
0B400000
0B400090
0B4000C0
0F4001C0
0F4017C0
BFFFFF80
ENDCHAR
STARTCHAR Igrave
ENCODING 204
SWIDTH 357 0
DWIDTH 9 0
BBX 8 20 0 0
BITMAP
1F80
02D0
0074
0000
7FFE
07E0
03D0
02D0
02D0
02D0
02D0
02D0
02D0
02D0
02D0
02D0
02D0
03D0
07E0
7FFE
ENDCHAR
STARTCHAR Iacute
ENCODING 205
SWIDTH 357 0
DWIDTH 9 0
BBX 8 20 0 0
BITMAP
00F8
02D0
0A00
0000
7FFE
07E0
03D0
02D0
02D0
02D0
02D0
02D0
02D0
02D0
02D0
02D0
02D0
03D0
07E0
7FFE
ENDCHAR
STARTCHAR Icircumflex
ENCODING 206
SWIDTH 357 0
DWIDTH 9 0
BBX 8 21 0 0
BITMAP
0190
07F0
0E78
2409
0000
7FFE
07E0
03D0
02D0
02D0
02D0
02D0
02D0
02D0
02D0
02D0
02D0
02D0
03D0
07E0
7FFE
ENDCHAR
STARTCHAR Idieresis
ENCODING 207
SWIDTH 357 0
DWIDTH 9 0
BBX 9 20 0 0
BITMAP
640A00
BC1F40
780E00
000000
7FFE00
07E000
03D000
02D000
02D000
02D000
02D000
02D000
02D000
02D000
02D000
02D000
02D000
03D000
07E000
7FFE00
ENDCHAR
STARTCHAR Eth
ENCODING 208
SWIDTH 737 0
DWIDTH 18 0
BBX 16 16 1 0
BITMAP
BFFFE400
0F806F40
0B8007E0
0B8001F4
0B8000FC
0B8000BC
0B80007D
FFFF807D
0B80007D
0B80007D
0B80007D
0B8000BC
0B8000F4
0B8002E0
0F805F40
BFFFE400
ENDCHAR
STARTCHAR Ntilde
ENCODING 209
SWIDTH 742 0
DWIDTH 18 0
BBX 17 21 0 0
BITMAP
0006804000
001FF48000
00246E0000
0000000000
0000000000
7FD001FFC0
0BF0002E00
03F8001C00
03BD001C00
036F401C00
030FC01C00
0307E01C00
0302F41C00
0300BD1C00
03003F1C00
03001F9C00
030007EC00
030002FC00
034000BC00
0B80003C00
7FF4001C00
ENDCHAR
STARTCHAR Ograve
ENCODING 210
SWIDTH 738 0
DWIDTH 18 0
BBX 16 20 1 0
BITMAP
002F0000
0007C000
0000A000
00000000
006FE900
02E01B80
0F4002E0
2E0000F4
3D0000BC
7C00007D
B800003D
B800003D
B800003D
BC00003D
7C00007C
3D0000B8
2E0000F4
0F4002E0
02E00B80
006FF900
ENDCHAR
STARTCHAR Oacute
ENCODING 211
SWIDTH 738 0
DWIDTH 18 0
BBX 16 20 1 0
BITMAP
0001F400
00079000
000D0000
00000000
006FE900
02E01B80
0F4002E0
2E0000F4
3D0000BC
7C00007D
B800003D
B800003D
B800003D
BC00003D
7C00007C
3D0000B8
2E0000F4
0F4002E0
02E00B80
006FF900
ENDCHAR
STARTCHAR Ocircumflex
ENCODING 212
SWIDTH 738 0
DWIDTH 18 0
BBX 16 21 1 0
BITMAP
00014000
000BE000
002D7400
00601C00
00000000
006FE900
02E01B80
0F4002E0
2E0000F4
3D0000BC
7C00007D
B800003D
B800003D
B800003D
BC00003D
7C00007C
3D0000B8
2E0000F4
0F4002E0
02E00B80
006FF900
ENDCHAR
STARTCHAR Otilde
ENCODING 213
SWIDTH 738 0
DWIDTH 18 0
BBX 16 21 1 0
BITMAP
002A0200
007F8500
0081B800
00000000
00000000
006FE900
02E01B80
0F4002E0
2E0000F4
3D0000BC
7C00007D
B800003D
B800003D
B800003D
BC00003D
7C00007C
3D0000B8
2E0000F4
0F4002E0
02E00B80
006FF900
ENDCHAR
STARTCHAR Odieresis
ENCODING 214
SWIDTH 738 0
DWIDTH 18 0
BBX 16 20 1 0
BITMAP
00A01900
00F82E00
00B41D00
00000000
006FE900
02E01B80
0F4002E0
2E0000F4
3D0000BC
7C00007D
B800003D
B800003D
B800003D
BC00003D
7C00007C
3D0000B8
2E0000F4
0F4002E0
02E00B80
006FF900
ENDCHAR
STARTCHAR multiply
ENCODING 215
SWIDTH 720 0
DWIDTH 17 0
BBX 14 14 2 -1
BITMAP
50000180
B40007C0
2D001F40
0B407D00
02D1F400
00BBD000
002F4000
007F4000
01F6D000
07D0B400
1F402D00
7D000B40
F40002D0
50000040
ENDCHAR
STARTCHAR Oslash
ENCODING 216
SWIDTH 737 0
DWIDTH 18 0
BBX 16 16 1 0
BITMAP
006FF960
02E01BD0
0F4003E0
2E000AF4
3D0018BC
7C00307D
B800903D
B802403D
B806003D
BC1C003D
BC30007C
7D9000B8
2F8000F4
0F4002E0
1FE01B80
346FF900
ENDCHAR
STARTCHAR Ugrave
ENCODING 217
SWIDTH 752 0
DWIDTH 18 0
BBX 18 20 0 0
BITMAP
0003E00000
0000B80000
0000190000
0000000000
7FFD01FFE0
0BD0002E00
07C0000D00
07C0000D00
07C0000D00
07C0000D00
07C0000D00
07C0000D00
07C0000D00
07C0000D00
03C0000D00
03C0000D00
02D0001C00
01E0002400
00B901A000
001BFE4000
ENDCHAR
STARTCHAR Uacute
ENCODING 218
SWIDTH 752 0
DWIDTH 18 0
BBX 18 20 0 0
BITMAP
00002F0000
0000780000
0001D00000
0000000000
7FFD01FFE0
0BD0002E00
07C0000D00
07C0000D00
07C0000D00
07C0000D00
07C0000D00
07C0000D00
07C0000D00
07C0000D00
03C0000D00
03C0000D00
02D0001C00
01E0002400
00B901A000
001BFE4000
ENDCHAR
STARTCHAR Ucircumflex
ENCODING 219
SWIDTH 752 0
DWIDTH 18 0
BBX 18 21 0 0
BITMAP
0000640000
0000FD0000
00029B0000
000A018000
0000000000
7FFD01FFE0
0BD0002E00
07C0000D00
07C0000D00
07C0000D00
07C0000D00
07C0000D00
07C0000D00
07C0000D00
07C0000D00
03C0000D00
03C0000D00
02D0001C00
01E0002400
00B901A000
001BFE4000
ENDCHAR
STARTCHAR Udieresis
ENCODING 220
SWIDTH 752 0
DWIDTH 18 0
BBX 18 20 0 0
BITMAP
000A028000
001F43E000
000E02D000
0000000000
7FFD01FFE0
0BD0002E00
07C0000D00
07C0000D00
07C0000D00
07C0000D00
07C0000D00
07C0000D00
07C0000D00
07C0000D00
03C0000D00
03C0000D00
02D0001C00
01E0002400
00B901A000
001BFE4000
ENDCHAR
STARTCHAR Yacute
ENCODING 221
SWIDTH 647 0
DWIDTH 16 0
BBX 16 20 0 0
BITMAP
0000F800
0002D000
000A0000
00000000
FFF40BFE
2F8000E0
0BC001C0
03E00340
01F40A00
00BC0C00
003E2800
001F7000
000BD000
0007C000
0007C000
0007C000
0007C000
0007C000
000BD000
00BFFD00
ENDCHAR
STARTCHAR Thorn
ENCODING 222
SWIDTH 572 0
DWIDTH 14 0
BBX 13 16 0 0
BITMAP
7FFF0000
07E00000
03D00000
02FFE400
02D06F00
02D00F80
02D00BC0
02D007C0
02D00B80
02D00F40
02D06E00
02FFA400
02D00000
03D00000
07E00000
7FFF0000
ENDCHAR
STARTCHAR germandbls
ENCODING 223
SWIDTH 563 0
DWIDTH 14 0
BBX 13 18 0 0
BITMAP
006A9000
01D07800
03803C00
07402D00
07403C00
0B407800
7F41E000
0B4B4000
0B41F400
0B403D00
0B401F00
0B400B80
0B400B80
0B400B80
0B440B80
0B5E0B40
0B5F0E00
7F47E400
ENDCHAR
STARTCHAR agrave
ENCODING 224
SWIDTH 480 0
DWIDTH 12 0
BBX 10 17 1 0
BITMAP
0F4000
078000
01D000
00A000
000000
0BF800
382E00
B40F00
740F40
000B40
006F40
0B9B40
780B40
F00B40
F00B40
B81B40
2F87E0
ENDCHAR
STARTCHAR aacute
ENCODING 225
SWIDTH 480 0
DWIDTH 12 0
BBX 10 17 1 0
BITMAP
007C00
00B400
00D000
028000
000000
0BF800
382E00
B40F00
740F40
000B40
006F40
0B9B40
780B40
F00B40
F00B40
B81B40
2F87E0
ENDCHAR
STARTCHAR acircumflex
ENCODING 226
SWIDTH 480 0
DWIDTH 12 0
BBX 10 17 1 0
BITMAP
02E000
07B400
0E1C00
280600
000000
0BF800
382E00
B40F00
740F40
000B40
006F40
0B9B40
780B40
F00B40
F00B40
B81B40
2F87E0
ENDCHAR
STARTCHAR atilde
ENCODING 227
SWIDTH 480 0
DWIDTH 12 0
BBX 10 16 1 0
BITMAP
0A4140
2FD200
21BD00
000000
0BF800
382E00
B40F00
740F40
000B40
006F40
0B9B40
780B40
F00B40
F00B40
B81B40
2F87E0
ENDCHAR
STARTCHAR adieresis
ENCODING 228
SWIDTH 480 0
DWIDTH 12 0
BBX 10 17 1 0
BITMAP
280A00
7D0F40
380B40
000000
000000
0BF800
382E00
B40F00
740F40
000B40
006F40
0B9B40
780B40
F00B40
F00B40
B81B40
2F87E0
ENDCHAR
STARTCHAR aring
ENCODING 229
SWIDTH 480 0
DWIDTH 12 0
BBX 10 18 1 0
BITMAP
02E000
091800
0C0C00
091800
02E000
000000
0BF800
382E00
B40F00
740F40
000B40
006F40
0B9B40
780B40
F00B40
F00B40
B81B40
2F87E0
ENDCHAR
STARTCHAR ae
ENCODING 230
SWIDTH 709 0
DWIDTH 17 0
BBX 15 12 1 0
BITMAP
1BF46F80
782E81F0
B40F4078
100F003C
001FFFFC
069F0000
2D0F0000
B40F4000
F00B8004
F00FD018
B822FFF0
2F807F80
ENDCHAR
STARTCHAR ccedilla
ENCODING 231
SWIDTH 446 0
DWIDTH 11 0
BBX 10 17 0 -5
BITMAP
01BE40
0B43D0
1D01E0
2C0090
380000
380000
7C0000
3C0000
3D0010
2F40A0
0FFFC0
02FE00
002000
003E00
000740
000700
00BD00
ENDCHAR
STARTCHAR egrave
ENCODING 232
SWIDTH 464 0
DWIDTH 11 0
BBX 10 17 1 0
BITMAP
0B8000
03C000
00D000
007000
000000
06F900
280F40
700780
B003C0
FFFFD0
E00000
F00000
F40000
B80050
7E0180
2FFF40
06F900
ENDCHAR
STARTCHAR eacute
ENCODING 233
SWIDTH 464 0
DWIDTH 11 0
BBX 10 17 1 0
BITMAP
003D00
007800
00E000
018000
000000
06F900
280F40
700780
B003C0
FFFFD0
E00000
F00000
F40000
B80050
7E0180
2FFF40
06F900
ENDCHAR
STARTCHAR ecircumflex
ENCODING 234
SWIDTH 464 0
DWIDTH 11 0
BBX 10 17 1 0
BITMAP
01F000
03B800
0A1D00
180600
000000
06F900
280F40
700780
B003C0
FFFFD0
E00000
F00000
F40000
B80050
7E0180
2FFF40
06F900
ENDCHAR
STARTCHAR edieresis
ENCODING 235
SWIDTH 464 0
DWIDTH 11 0
BBX 10 17 1 0
BITMAP
280640
3D0F80
2D0B40
000000
000000
06F900
280F40
700780
B003C0
FFFFD0
E00000
F00000
F40000
B80050
7E0180
2FFF40
06F900
ENDCHAR
STARTCHAR igrave
ENCODING 236
SWIDTH 285 0
DWIDTH 7 0
BBX 6 17 0 0
BITMAP
7800
2D00
0E00
0300
0000
1B40
1B40
0B40
0B40
0B40
0B40
0B40
0B40
0B40
0B40
0B80
7FF0
ENDCHAR
STARTCHAR iacute
ENCODING 237
SWIDTH 285 0
DWIDTH 7 0
BBX 6 17 0 0
BITMAP
02D0
0780
0B00
0C00
0000
1B40
1B40
0B40
0B40
0B40
0B40
0B40
0B40
0B40
0B40
0B80
7FF0
ENDCHAR
STARTCHAR icircumflex
ENCODING 238
SWIDTH 285 0
DWIDTH 7 0
BBX 6 17 0 0
BITMAP
0F00
2F80
70D0
9060
0000
1B40
1B40
0B40
0B40
0B40
0B40
0B40
0B40
0B40
0B40
0B80
7FF0
ENDCHAR
STARTCHAR idieresis
ENCODING 239
SWIDTH 285 0
DWIDTH 7 0
BBX 8 16 -1 0
BITMAP
782D
BC3E
6419
0000
06D0
06D0
02D0
02D0
02D0
02D0
02D0
02D0
02D0
02D0
02E0
1FFC
ENDCHAR
STARTCHAR eth
ENCODING 240
SWIDTH 532 0
DWIDTH 13 0
BBX 11 18 1 0
BITMAP
1BE410
106EA4
001F80
01A7C0
0001E0
0000F0
06F9F0
2D07F4
7801F4
B400F8
F000B8
F000B8
F000B4
F400F4
B400F0
7801D0
2E0780
06F900
ENDCHAR
STARTCHAR ntilde
ENCODING 241
SWIDTH 576 0
DWIDTH 14 0
BBX 14 16 0 0
BITMAP
00680400
00FF4800
0146E000
00000000
2B4BE400
0BA07C00
0B802D00
0B402D00
0B401E00
0B401E00
0B401E00
0B401E00
0B401E00
0B401E00
0B802E00
7FF5FFD0
ENDCHAR
STARTCHAR ograve
ENCODING 242
SWIDTH 514 0
DWIDTH 12 0
BBX 11 17 1 0
BITMAP
07C000
01E000
00B000
002400
000000
06FE00
2E07C0
7801E0
B400F0
F000F4
F000B4
F000B4
F400B4
B400F0
7801E0
2E0780
06F900
ENDCHAR
STARTCHAR oacute
ENCODING 243
SWIDTH 514 0
DWIDTH 12 0
BBX 11 17 1 0
BITMAP
002E00
003C00
007400
009000
000000
06FE00
2E07C0
7801E0
B400F0
F000F4
F000B4
F000B4
F400B4
B400F0
7801E0
2E0780
06F900
ENDCHAR
STARTCHAR ocircumflex
ENCODING 244
SWIDTH 514 0
DWIDTH 12 0
BBX 11 17 1 0
BITMAP
00B400
02EC00
074A00
090240
000000
06FE00
2E07C0
7801E0
B400F0
F000F4
F000B4
F000B4
F400B4
B400F0
7801E0
2E0780
06F900
ENDCHAR
STARTCHAR otilde
ENCODING 245
SWIDTH 514 0
DWIDTH 12 0
BBX 11 16 1 0
BITMAP
068040
0FF480
146E40
000000
06FE00
2E07C0
7801E0
B400F0
F000F4
F000B4
F000B4
F400B4
B400F0
7801E0
2E0780
06F900
ENDCHAR
STARTCHAR odieresis
ENCODING 246
SWIDTH 514 0
DWIDTH 12 0
BBX 11 17 1 0
BITMAP
190280
2F07D0
1E0380
000000
000000
06FE00
2E07C0
7801E0
B400F0
F000F4
F000B4
F000B4
F400B4
B400F0
7801E0
2E0780
06F900
ENDCHAR
STARTCHAR divide
ENCODING 247
SWIDTH 720 0
DWIDTH 17 0
BBX 15 13 1 0
BITMAP
00078000
000BC000
00064000
00000000
00000000
7FFFFFF8
BFFFFFF8
00000000
00000000
00000000
00064000
000BC000
00078000
ENDCHAR
STARTCHAR oslash
ENCODING 248
SWIDTH 514 0
DWIDTH 12 0
BBX 11 12 1 0
BITMAP
06F990
2E07C0
7803E0
B409F0
F024B4
F060B4
F1C0B4
F640B4
BD00F0
7C01E0
7E0780
86F900
ENDCHAR
STARTCHAR ugrave
ENCODING 249
SWIDTH 570 0
DWIDTH 14 0
BBX 13 17 0 0
BITMAP
00F40000
007C0000
001D0000
00060000
00000000
6F41BD00
1F407D00
0B402D00
0B402D00
0B402D00
0B402D00
0B402D00
0B402D00
0B402D00
0B402D00
07D1BD00
01FE2E80
ENDCHAR
STARTCHAR uacute
ENCODING 250
SWIDTH 570 0
DWIDTH 14 0
BBX 13 17 0 0
BITMAP
0007C000
000B4000
000E0000
00180000
00000000
6F41BD00
1F407D00
0B402D00
0B402D00
0B402D00
0B402D00
0B402D00
0B402D00
0B402D00
0B402D00
07D1BD00
01FE2E80
ENDCHAR
STARTCHAR ucircumflex
ENCODING 251
SWIDTH 570 0
DWIDTH 14 0
BBX 13 17 0 0
BITMAP
002E0000
007B4000
00A1C000
01806000
00000000
6F41BD00
1F407D00
0B402D00
0B402D00
0B402D00
0B402D00
0B402D00
0B402D00
0B402D00
0B402D00
07D1BD00
01FE2E80
ENDCHAR
STARTCHAR udieresis
ENCODING 252
SWIDTH 570 0
DWIDTH 14 0
BBX 13 17 0 0
BITMAP
0280A000
07D0F800
03C0B400
00000000
00000000
6F41BD00
1F407D00
0B402D00
0B402D00
0B402D00
0B402D00
0B402D00
0B402D00
0B402D00
0B402D00
07D1BD00
01FE2E80
ENDCHAR
STARTCHAR yacute
ENCODING 253
SWIDTH 483 0
DWIDTH 12 0
BBX 13 22 -1 -5
BITMAP
0002E000
0003C000
00074000
00090000
00000000
7FE07F80
0F800E00
0B800C00
03D01800
02E02400
00F03000
00B86000
007C8000
002D8000
001F4000
000F0000
000A0000
000D0000
00180000
00340000
2FE00000
2F800000
ENDCHAR
STARTCHAR thorn
ENCODING 254
SWIDTH 524 0
DWIDTH 13 0
BBX 12 22 0 -5
BITMAP
6B0000
6F0000
0F0000
0F0000
0F0000
0F1BD0
0F7FF8
0F80BC
0F003D
0F002E
0F001E
0F001E
0F002D
0F002C
0F0038
0FD0A0
0FBF80
0F0000
0F0000
0F0000
1F4000
BFF400
ENDCHAR
STARTCHAR ydieresis
ENCODING 255
SWIDTH 483 0
DWIDTH 12 0
BBX 13 22 -1 -5
BITMAP
01902800
02F07D00
01E03800
00000000
00000000
7FE07F80
0F800E00
0B800C00
03D01800
02E02400
00F03000
00B86000
007C8000
002D8000
001F4000
000F0000
000A0000
000D0000
00180000
00340000
2FE00000
2F800000
ENDCHAR
STARTCHAR Amacron
ENCODING 256
SWIDTH 718 0
DWIDTH 17 0
BBX 17 19 0 0
BITMAP
003FFF0000
0000000000
0000000000
0001D00000
0002E00000
0003F00000
000AF80000
000D7C0000
001C3D0000
00282E0000
00741F4000
00A00F8000
00D00BC000
01FFFFE000
038002F000
070001F400
0A0000FC00
1E0000BE00
FFC007FFC0
ENDCHAR
STARTCHAR amacron
ENCODING 257
SWIDTH 480 0
DWIDTH 12 0
BBX 10 15 1 0
BITMAP
3FFF00
000000
000000
0BF800
382E00
B40F00
740F40
000B40
006F40
0B9B40
780B40
F00B40
F00B40
B81B40
2F87E0
ENDCHAR
STARTCHAR Abreve
ENCODING 258
SWIDTH 718 0
DWIDTH 17 0
BBX 17 22 0 0
BITMAP
0030020000
00340A0000
001FFD0000
0007F40000
0000000000
0000000000
0001D00000
0002E00000
0003F00000
000AF80000
000D7C0000
001C3D0000
00282E0000
00741F4000
00A00F8000
00D00BC000
01FFFFE000
038002F000
070001F400
0A0000FC00
1E0000BE00
FFC007FFC0
ENDCHAR
STARTCHAR abreve
ENCODING 259
SWIDTH 480 0
DWIDTH 12 0
BBX 10 17 1 0
BITMAP
300200
280600
1FFD00
06F400
000000
0BF800
382E00
B40F00
740F40
000B40
006F40
0B9B40
780B40
F00B40
F00B40
B81B40
2F87E0
ENDCHAR
STARTCHAR Aogonek
ENCODING 260
SWIDTH 719 0
DWIDTH 17 0
BBX 17 21 0 -5
BITMAP
0001D00000
0002E00000
0003F00000
0006B80000
000D7C0000
00183D0000
00241F0000
00700F4000
00900B8000
00FFFFD000
018002E000
034001F000
070000F400
0A0000BC00
1E0001FE00
FFC00BFFC0
00002D0000
0000740000
0000B00000
0000745000
00002E4000
ENDCHAR
STARTCHAR aogonek
ENCODING 261
SWIDTH 480 0
DWIDTH 12 0
BBX 11 17 1 -5
BITMAP
0BF800
382E00
B40F00
740B40
000B40
006F40
1B4B40
780B40
F00B40
F00B40
B81B54
2F87E0
000340
000D00
002C00
002D14
000BD0
ENDCHAR
STARTCHAR Cacute
ENCODING 262
SWIDTH 670 0
DWIDTH 16 0
BBX 14 20 1 0
BITMAP
0001F400
0003D000
000A0000
00000000
006BF9A0
02E40BE0
0F4002E0
2E0000E0
3D0000A0
7C000060
B8000000
B8000000
B8000000
B8000000
7C000000
3D000000
2E000000
0F400060
03E40680
006FF900
ENDCHAR
STARTCHAR cacute
ENCODING 263
SWIDTH 446 0
DWIDTH 11 0
BBX 10 17 0 0
BITMAP
000F40
001E00
003800
006000
000000
01BE40
0B43D0
1D01E0
2C0090
380000
380000
7C0000
3C0000
3D0010
1F40A0
0BFFC0
02FE00
ENDCHAR
STARTCHAR Ccircumflex
ENCODING 264
SWIDTH 670 0
DWIDTH 16 0
BBX 14 21 1 0
BITMAP
00014000
000BE000
001D7400
00341D00
00000000
006BF9A0
02E40BE0
0F4002E0
2E0000E0
3D0000A0
7C000060
B8000000
B8000000
B8000000
B8000000
7C000000
3D000000
2E000000
0F400060
03E40680
006FF900
ENDCHAR
STARTCHAR ccircumflex
ENCODING 265
SWIDTH 446 0
DWIDTH 11 0
BBX 10 17 0 0
BITMAP
007C00
00EE00
028740
060180
000000
01BE40
0B43D0
1D01E0
2C0090
380000
380000
7C0000
3C0000
3D0010
1F40A0
0BFFC0
02FE00
ENDCHAR
STARTCHAR Cdotaccent
ENCODING 266
SWIDTH 670 0
DWIDTH 16 0
BBX 14 20 1 0
BITMAP
00028000
0007D000
0002C000
00000000
006BF9A0
02E40BE0
0F4002E0
2E0000E0
3D0000A0
7C000060
B8000000
B8000000
B8000000
B8000000
7C000000
3D000000
2E000000
0F400060
03E40680
006FF900
ENDCHAR
STARTCHAR cdotaccent
ENCODING 267
SWIDTH 446 0
DWIDTH 11 0
BBX 10 17 0 0
BITMAP
002800
00BC00
007800
000000
000000
01BE40
0B43D0
1D01E0
2C0090
380000
380000
7C0000
3C0000
3D0010
1F40A0
0BFFC0
02FE00
ENDCHAR
STARTCHAR Ccaron
ENCODING 268
SWIDTH 670 0
DWIDTH 16 0
BBX 14 21 1 0
BITMAP
00100500
00282800
000EB000
0007D000
00000000
006BF9A0
02E40BE0
0F4002E0
2E0000E0
3D0000A0
7C000060
B8000000
B8000000
B8000000
B8000000
7C000000
3D000000
2E000000
0F400060
03E40680
006FF900
ENDCHAR
STARTCHAR ccaron
ENCODING 269
SWIDTH 446 0
DWIDTH 11 0
BBX 10 17 0 0
BITMAP
060180
028740
00EE00
007C00
000000
01BE40
0B43D0
1D01E0
2C0090
380000
380000
7C0000
3C0000
3D0010
1F40A0
0BFFC0
02FE00
ENDCHAR
STARTCHAR Dcaron
ENCODING 270
SWIDTH 730 0
DWIDTH 18 0
BBX 16 21 1 0
BITMAP
00401400
00A07000
002ED000
000F4000
00000000
BFFFE400
0F416F40
0F4007E0
0B4001F4
0B4000F8
0B4000BC
0B40007D
0B40007D
0B40007D
0B40007D
0B40007C
0B4000B8
0B4001F4
0F4003D0
0F406F40
BFFFE400
ENDCHAR
STARTCHAR dcaron
ENCODING 271
SWIDTH 626 0
DWIDTH 15 0
BBX 15 17 0 0
BITMAP
0001B878
0001B8B4
000078B0
000078A0
00007890
01BFB800
0741F800
0E00B800
2C007800
3C007800
3C007800
7C007800
3C007800
3D007800
2F40B800
0FFFBD00
06F87A00
ENDCHAR
STARTCHAR Dcroat
ENCODING 272
SWIDTH 733 0
DWIDTH 18 0
BBX 16 16 1 0
BITMAP
BFFFE400
0F416F40
0B4007D0
0B4002F4
0B4000F8
0B4000BC
0B40007D
FFFF407D
0B40007D
0B40007D
0B4000BC
0B4000B8
0B4001F4
0F4003D0
0F406F40
BFFFE400
ENDCHAR
STARTCHAR dcroat
ENCODING 273
SWIDTH 540 0
DWIDTH 13 0
BBX 13 17 0 0
BITMAP
0001B800
0001B800
00007800
003FFF40
00007800
01BEB800
0741F800
0E00B800
2C007800
3C007800
3C007800
7C007800
3C007800
3D007800
2F40B800
0FFFBD00
06F87A00
ENDCHAR
STARTCHAR Emacron
ENCODING 274
SWIDTH 626 0
DWIDTH 15 0
BBX 14 19 1 0
BITMAP
02FFF400
00000000
00000000
BFFFFF40
0F401780
0F400180
0B400040
0B400800
0B401800
0B402800
0BFFF800
0B402800
0B400800
0B400000
0B400090
0B4000C0
0F4001C0
0F4017C0
BFFFFF80
ENDCHAR
STARTCHAR emacron
ENCODING 275
SWIDTH 464 0
DWIDTH 11 0
BBX 10 15 1 0
BITMAP
2FFF40
000000
000000
06F900
280F40
700780
B003C0
FFFFD0
E00000
F00000
F40000
B80050
7E0180
2FFF40
06F900
ENDCHAR
STARTCHAR Ebreve
ENCODING 276
SWIDTH 626 0
DWIDTH 15 0
BBX 14 22 1 0
BITMAP
02002000
02807000
01FFE000
006F8000
00000000
00000000
BFFFFF40
0F401780
0F400180
0B400040
0B400800
0B401800
0B402800
0BFFF800
0B402800
0B400800
0B400000
0B400090
0B4000C0
0F4001C0
0F4017C0
BFFFFF80
ENDCHAR
STARTCHAR ebreve
ENCODING 277
SWIDTH 464 0
DWIDTH 11 0
BBX 10 17 1 0
BITMAP
240240
280700
0FFE00
06F800
000000
06F900
280F40
700780
B003C0
FFFFD0
E00000
F00000
F40000
B80050
7E0180
2FFF40
06F900
ENDCHAR
STARTCHAR Edotaccent
ENCODING 278
SWIDTH 626 0
DWIDTH 15 0
BBX 14 20 1 0
BITMAP
00190000
002F0000
001E0000
00000000
BFFFFF40
0F401780
0F400180
0B400040
0B400800
0B401800
0B402800
0BFFF800
0B402800
0B400800
0B400000
0B400090
0B4000C0
0F4001C0
0F4017C0
BFFFFF80
ENDCHAR
STARTCHAR edotaccent
ENCODING 279
SWIDTH 464 0
DWIDTH 11 0
BBX 10 17 1 0
BITMAP
00A000
02F000
01E000
000000
000000
06F900
280F40
700780
B003C0
FFFFD0
E00000
F00000
F40000
B80050
7E0180
2FFF40
06F900
ENDCHAR
STARTCHAR Eogonek
ENCODING 280
SWIDTH 625 0
DWIDTH 15 0
BBX 14 21 1 -5
BITMAP
BFFFFF40
0F400780
0F400180
0B400000
0B400800
0B401800
0B402800
0BFFF800
0B402800
0B400800
0B400000
0B400090
0B4000C0
0B4001C0
0F4007C0
AFFFFF80
00001800
00007000
0000A000
0000F040
00007E40
ENDCHAR
STARTCHAR eogonek
ENCODING 281
SWIDTH 464 0
DWIDTH 11 0
BBX 10 17 1 -5
BITMAP
06F900
280F40
700780
B003C0
FFFFD0
E00000
F00000
F40000
B80050
7E0180
2FFF40
06FD00
006000
01C000
028000
02C100
01F900
ENDCHAR
STARTCHAR Ecaron
ENCODING 282
SWIDTH 626 0
DWIDTH 15 0
BBX 14 21 1 0
BITMAP
01401000
00D0D000
007B8000
002F0000
00000000
BFFFFF40
0F401780
0F400180
0B400040
0B400800
0B401800
0B402800
0BFFF800
0B402800
0B400800
0B400000
0B400090
0B4000C0
0F4001C0
0F4017C0
BFFFFF80
ENDCHAR
STARTCHAR ecaron
ENCODING 283
SWIDTH 464 0
DWIDTH 11 0
BBX 10 17 1 0
BITMAP
180600
0A1D00
03B800
01F000
000000
06F900
280F40
700780
B003C0
FFFFD0
E00000
F00000
F40000
B80050
7E0180
2FFF40
06F900
ENDCHAR
STARTCHAR Gcircumflex
ENCODING 284
SWIDTH 720 0
DWIDTH 17 0
BBX 16 21 1 0
BITMAP
00014000
000BE000
001D7400
00341D00
00000000
006FF9A0
02E00BE0
0F4001E0
2E0000E0
3D0000A0
7C000060
B8000000
B8000000
B8001FFD
B80002F0
BC0001F0
7D0001E0
2E0001E0
1F4001E0
07E407E0
006FF900
ENDCHAR
STARTCHAR gcircumflex
ENCODING 285
SWIDTH 484 0
DWIDTH 12 0
BBX 12 22 0 -5
BITMAP
007C00
00EE00
028740
060180
000000
02FFFD
0F07D0
2D01E0
2D01F0
2E01E0
1F42D0
0ABE00
050000
1C0000
2D0000
2FFE90
0BFFF8
18006C
34000C
780018
7D0060
1BFA40
ENDCHAR
STARTCHAR Gbreve
ENCODING 286
SWIDTH 720 0
DWIDTH 17 0
BBX 16 22 1 0
BITMAP
00500600
00700D00
003FFC00
000BE000
00000000
00000000
006FF9A0
02E00BE0
0F4001E0
2E0000E0
3D0000A0
7C000060
B8000000
B8000000
B8001FFD
B80002F0
BC0001F0
7D0001E0
2E0001E0
1F4001E0
07E407E0
006FF900
ENDCHAR
STARTCHAR gbreve
ENCODING 287
SWIDTH 484 0
DWIDTH 12 0
BBX 12 22 0 -5
BITMAP
090090
0A01C0
03FF80
01BE00
000000
02FFFD
0F07D0
2D01E0
2D01F0
2E01E0
1F42D0
0ABE00
050000
1C0000
2D0000
2FFE90
0BFFF8
18006C
34000C
780018
7D0060
1BFA40
ENDCHAR
STARTCHAR Gdotaccent
ENCODING 288
SWIDTH 720 0
DWIDTH 17 0
BBX 16 20 1 0
BITMAP
00028000
0007D000
0003C000
00000000
006FF9A0
02E00BE0
0F4001E0
2E0000E0
3D0000A0
7C000060
B8000000
B8000000
B8001FFD
B80002F0
BC0001F0
7D0001E0
2E0001E0
1F4001E0
07E407E0
006FF900
ENDCHAR
STARTCHAR gdotaccent
ENCODING 289
SWIDTH 484 0
DWIDTH 12 0
BBX 12 22 0 -5
BITMAP
002800
00BC00
007800
000000
000000
02FFFD
0F07D0
2D01E0
2D01F0
2E01E0
1F42D0
0ABE00
050000
1C0000
2D0000
2FFE90
0BFFF8
18006C
34000C
780018
7D0060
1BFA40
ENDCHAR
STARTCHAR Gcommaaccent
ENCODING 290
SWIDTH 720 0
DWIDTH 17 0
BBX 16 23 1 -7
BITMAP
006FF9A0
02E00BE0
0F4001E0
2E0000E0
3D0000A0
7C000060
B8000000
B8000000
B8001FFD
B80002F0
BC0001F0
7D0001E0
2E0001E0
1F4001E0
07E407E0
006FF900
00000000
00068000
000FC000
000BD000
0000C000
00028000
00050000
ENDCHAR
STARTCHAR gcommaaccent
ENCODING 291
SWIDTH 484 0
DWIDTH 12 0
BBX 12 24 0 -5
BITMAP
000400
002400
009000
00F800
00BD00
007800
000000
02FFFD
0F07D0
2D01E0
2D01F0
2E01E0
1F42D0
0ABE00
050000
1C0000
2D0000
2FFE90
0BFFF8
18006C
34000C
780018
7D0060
1BFA40
ENDCHAR
STARTCHAR Hcircumflex
ENCODING 292
SWIDTH 777 0
DWIDTH 19 0
BBX 17 21 1 0
BITMAP
0001900000
0007F00000
000E680000
00240A0000
0000000000
FFF80FFF80
1F8001F800
0F4000B400
0B4000B400
0B4000B400
0B4000B400
0B4000B400
0BFFFFF400
0B4000B400
0B4000B400
0B4000B400
0B4000B400
0B4000B400
0F4000B400
1F8000F800
FFF80FFF80
ENDCHAR
STARTCHAR hcircumflex
ENCODING 293
SWIDTH 577 0
DWIDTH 14 0
BBX 14 22 0 0
BITMAP
00190000
003F4000
00A6C000
0280A000
00000000
1B400000
5F400000
0B400000
0B400000
0B400000
0B47E400
0B6FFC00
0BD07D00
0B402D00
0B402E00
0B401E00
0B401E00
0B401E00
0B401E00
0B401E00
0B802E00
7FF0FFD0
ENDCHAR
STARTCHAR Hbar
ENCODING 294
SWIDTH 788 0
DWIDTH 19 0
BBX 17 16 1 0
BITMAP
FFF80FFFC0
0F8000FC00
0B8000B800
0B8000B800
FFFFFFFFC0
0B8000B800
0B8000B800
0BFFFFF800
0B8000B800
0B8000B800
0B8000B800
0B8000B800
0B8000B800
0B8000B800
0F8000FC00
FFF80FFFC0
ENDCHAR
STARTCHAR hbar
ENCODING 295
SWIDTH 579 0
DWIDTH 14 0
BBX 14 17 0 0
BITMAP
1B400000
5F400000
0B400000
7FFF4000
0B400000
0B47E400
0B6FFC00
0BE03D00
0B802E00
0B401E00
0B401E00
0B401E00
0B401E00
0B401E00
0B401E00
0B802F00
7FF4FFD0
ENDCHAR
STARTCHAR Itilde
ENCODING 296
SWIDTH 357 0
DWIDTH 9 0
BBX 9 21 0 0
BITMAP
1A0140
3FD200
51B900
000000
000000
7FFE00
07E000
03D000
02D000
02D000
02D000
02D000
02D000
02D000
02D000
02D000
02D000
02D000
03D000
07E000
7FFE00
ENDCHAR
STARTCHAR itilde
ENCODING 297
SWIDTH 285 0
DWIDTH 7 0
BBX 8 16 -1 0
BITMAP
1E02
3F89
51B8
0000
06D0
06D0
02D0
02D0
02D0
02D0
02D0
02D0
02D0
02D0
02E0
1FFC
ENDCHAR
STARTCHAR Imacron
ENCODING 298
SWIDTH 357 0
DWIDTH 9 0
BBX 8 19 0 0
BITMAP
7FFE
0000
0000
7FFE
07E0
03D0
02D0
02D0
02D0
02D0
02D0
02D0
02D0
02D0
02D0
02D0
03D0
07E0
7FFE
ENDCHAR
STARTCHAR imacron
ENCODING 299
SWIDTH 285 0
DWIDTH 7 0
BBX 6 15 0 0
BITMAP
FFF0
0000
0000
1B40
1B40
0B40
0B40
0B40
0B40
0B40
0B40
0B40
0B40
0B80
7FF0
ENDCHAR
STARTCHAR Ibreve
ENCODING 300
SWIDTH 357 0
DWIDTH 9 0
BBX 8 22 0 0
BITMAP
6002
340A
2FFC
0BE4
0000
0000
7FFE
07E0
03D0
02D0
02D0
02D0
02D0
02D0
02D0
02D0
02D0
02D0
02D0
03D0
07E0
7FFE
ENDCHAR
STARTCHAR ibreve
ENCODING 301
SWIDTH 285 0
DWIDTH 7 0
BBX 6 17 0 0
BITMAP
8020
C020
A090
2F40
0000
1B40
1B40
0B40
0B40
0B40
0B40
0B40
0B40
0B40
0B40
0B80
7FF0
ENDCHAR
STARTCHAR Iogonek
ENCODING 302
SWIDTH 357 0
DWIDTH 9 0
BBX 8 21 0 -5
BITMAP
7FFE
07E0
03D0
02D0
02D0
02D0
02D0
02D0
02D0
02D0
02D0
02D0
02D0
03D0
07E0
7FFE
0180
0700
0A00
0F04
07E4
ENDCHAR
STARTCHAR iogonek
ENCODING 303
SWIDTH 285 0
DWIDTH 7 0
BBX 6 22 0 -5
BITMAP
0740
0F80
0640
0000
0000
1B40
1B40
0B40
0B40
0B40
0B40
0B40
0B40
0B40
0B40
0B80
7FF0
0600
1C00
3800
3C10
1F90
ENDCHAR
STARTCHAR Idotaccent
ENCODING 304
SWIDTH 357 0
DWIDTH 9 0
BBX 8 20 0 0
BITMAP
0190
03E0
02D0
0000
7FFE
07E0
03D0
02D0
02D0
02D0
02D0
02D0
02D0
02D0
02D0
02D0
02D0
03D0
07E0
7FFE
ENDCHAR
STARTCHAR dotlessi
ENCODING 305
SWIDTH 285 0
DWIDTH 7 0
BBX 6 12 0 0
BITMAP
1B40
1B40
0B40
0B40
0B40
0B40
0B40
0B40
0B40
0B40
0B80
7FF0
ENDCHAR
STARTCHAR IJ
ENCODING 306
SWIDTH 753 0
DWIDTH 18 0
BBX 18 16 0 0
BITMAP
7FFE07FFE0
07E0007E00
03D0003D00
02D0003D00
02D0003D00
02D0003D00
02D0003D00
02D0003D00
02D0003D00
02D0003D00
02D0003D00
02D0003D00
02D0003D00
03D0783D00
07E07D3800
7FFE2FE000
ENDCHAR
STARTCHAR ij
ENCODING 307
SWIDTH 548 0
DWIDTH 13 0
BBX 12 21 0 -5
BITMAP
07402D
0F807E
064028
000000
1B41AD
1B417D
0B402D
0B402D
0B402D
0B402D
0B402D
0B402D
0B402D
0B402D
0B802D
7FF02D
00002D
00002C
002438
007D74
002F90
ENDCHAR
STARTCHAR Jcircumflex
ENCODING 308
SWIDTH 396 0
DWIDTH 10 0
BBX 9 21 0 0
BITMAP
002400
00FD00
02DB00
060180
000000
0BFFC0
00BD00
007C00
007800
007800
007800
007800
007800
007800
007800
007800
007800
007800
F07800
F8B400
6F9000
ENDCHAR
STARTCHAR jcircumflex
ENCODING 309
SWIDTH 263 0
DWIDTH 6 0
BBX 10 22 -3 -5
BITMAP
003D00
00BA00
01C240
034090
000000
00AD00
007D00
002D00
002D00
002D00
002D00
002D00
002D00
002D00
002D00
002D00
002D00
002D00
002D00
242C00
7D7400
2FD000
ENDCHAR
STARTCHAR Kcommaaccent
ENCODING 310
SWIDTH 702 0
DWIDTH 17 0
BBX 17 23 0 -7
BITMAP
7FFE1FFE00
07E003E000
03D0078000
02D00E0000
02D0740000
02D1D00000
02D7400000
02EE000000
02EF400000
02D7D00000
02D1F80000
02D07E0000
02D01F8000
03D007E000
07E003F800
7FFE1FFF80
0000000000
0001900000
0003F00000
0002F00000
0000700000
0000900000
0002400000
ENDCHAR
STARTCHAR kcommaaccent
ENCODING 311
SWIDTH 542 0
DWIDTH 13 0
BBX 13 24 0 -7
BITMAP
1B400000
1F400000
0B400000
0B400000
0B400000
0B43FF00
0B40F400
0B428000
0B4A0000
0B680000
0BF80000
0B7E0000
0B4F4000
0B47D000
0B41F400
0B80BD00
7FF1FFC0
00000000
00190000
003F0000
002F0000
00030000
00090000
00240000
ENDCHAR
STARTCHAR kgreenlandic
ENCODING 312
SWIDTH 542 0
DWIDTH 13 0
BBX 13 12 0 0
BITMAP
1B42FF00
1F40B400
0B41D000
0B474000
0B5C0000
0BB80000
0BBD0000
0B5F4000
0B47D000
0B41F400
0B80BD00
7FF5FFC0
ENDCHAR
STARTCHAR Lacute
ENCODING 313
SWIDTH 585 0
DWIDTH 14 0
BBX 13 20 1 0
BITMAP
00F80000
02D00000
0A000000
00000000
FFF80000
1F800000
0F400000
0B400000
0B400000
0B400000
0B400000
0B400000
0B400000
0B400000
0B400000
0B400040
0B400240
0B400340
0F801B00
BFFFFF00
ENDCHAR
STARTCHAR lacute
ENCODING 314
SWIDTH 283 0
DWIDTH 7 0
BBX 7 21 0 0
BITMAP
02F4
0780
1D00
0000
1B40
5F40
0B40
0B40
0B40
0B40
0B40
0B40
0B40
0B40
0B40
0B40
0B40
0B40
0B40
0B80
7FF4
ENDCHAR
STARTCHAR Lcommaaccent
ENCODING 315
SWIDTH 585 0
DWIDTH 14 0
BBX 13 23 1 -7
BITMAP
FFF80000
1F800000
0F400000
0B400000
0B400000
0B400000
0B400000
0B400000
0B400000
0B400000
0B400000
0B400040
0B400240
0B400340
0F801B00
BFFFFF00
00000000
00280000
007D0000
007E0000
00090000
00180000
00600000
ENDCHAR
STARTCHAR lcommaaccent
ENCODING 316
SWIDTH 283 0
DWIDTH 7 0
BBX 7 24 0 -7
BITMAP
1B40
5F40
0B40
0B40
0B40
0B40
0B40
0B40
0B40
0B40
0B40
0B40
0B40
0B40
0B40
0B80
7FF4
0000
0A40
0FC0
0BC0
0180
0240
0900
ENDCHAR
STARTCHAR Lcaron
ENCODING 317
SWIDTH 585 0
DWIDTH 14 0
BBX 13 16 1 0
BITMAP
FFF82D00
1F803C00
0F403800
0B403400
0B402000
0B400000
0B400000
0B400000
0B400000
0B400000
0B400000
0B400040
0B400240
0B400340
0F801B00
BFFFFF00
ENDCHAR
STARTCHAR lcaron
ENCODING 318
SWIDTH 366 0
DWIDTH 9 0
BBX 9 17 0 0
BITMAP
1B4B40
5F4B00
0B4B00
0B4D00
0B4800
0B4000
0B4000
0B4000
0B4000
0B4000
0B4000
0B4000
0B4000
0B4000
0B4000
0B8000
7FF400
ENDCHAR
STARTCHAR Ldot
ENCODING 319
SWIDTH 605 0
DWIDTH 15 0
BBX 13 16 1 0
BITMAP
FFF80000
1F800000
0F400000
0B400000
0B400000
0B401900
0B402F00
0B401E00
0B400000
0B400000
0B400000
0B400040
0B400240
0B400340
0F801B00
BFFFFF00
ENDCHAR
STARTCHAR ldot
ENCODING 320
SWIDTH 357 0
DWIDTH 9 0
BBX 9 17 0 0
BITMAP
1B4000
5F4000
0B4000
0B4000
0B4000
0B4000
0B4640
0B4BC0
0B4780
0B4000
0B4000
0B4000
0B4000
0B4000
0B4000
0B8000
7FF400
ENDCHAR
STARTCHAR Lslash
ENCODING 321
SWIDTH 590 0
DWIDTH 14 0
BBX 13 16 1 0
BITMAP
BFFC0000
0FC00000
0B800000
0B800000
0B800000
0B864000
0BA80000
0BD00000
1F800000
AB800000
4B800000
0B800040
0B800180
0B800340
0F800B40
AFFFFF00
ENDCHAR
STARTCHAR lslash
ENCODING 322
SWIDTH 290 0
DWIDTH 7 0
BBX 7 17 0 0
BITMAP
1B80
1B80
0780
0780
0780
0784
07B4
0780
1F80
7B80
4780
0780
0780
0780
0780
0B80
3FF4
ENDCHAR
STARTCHAR Nacute
ENCODING 323
SWIDTH 742 0
DWIDTH 18 0
BBX 17 20 0 0
BITMAP
00003E0000
0000F40000
0002800000
0000000000
7FD001FFC0
0BF0002E00
03F8001C00
03BD001C00
036F401C00
030FC01C00
0307E01C00
0302F41C00
0300BD1C00
03003F1C00
03001F9C00
030007EC00
030002FC00
034000BC00
0B80003C00
7FF4001C00
ENDCHAR
STARTCHAR nacute
ENCODING 324
SWIDTH 576 0
DWIDTH 14 0
BBX 14 17 0 0
BITMAP
0002E000
0003C000
00074000
000D0000
00000000
2B4BE400
0BA07C00
0B802D00
0B402D00
0B401E00
0B401E00
0B401E00
0B401E00
0B401E00
0B401E00
0B802E00
7FF5FFD0
ENDCHAR
STARTCHAR Ncommaaccent
ENCODING 325
SWIDTH 742 0
DWIDTH 18 0
BBX 17 23 0 -7
BITMAP
7FD001FFC0
0BF0002E00
03F8001C00
03BD001C00
036F401C00
030FC01C00
0307E01C00
0302F41C00
0300BD1C00
03003F1C00
03001F9C00
030007EC00
030002FC00
034000BC00
0B80003C00
7FF4001C00
0000000000
0001A00000
0003F00000
0002F40000
0000300000
0000A00000
0001400000
ENDCHAR
STARTCHAR ncommaaccent
ENCODING 326
SWIDTH 576 0
DWIDTH 14 0
BBX 14 19 0 -7
BITMAP
2B4BE400
0BA07C00
0B802D00
0B402D00
0B401E00
0B401E00
0B401E00
0B401E00
0B401E00
0B401E00
0B802E00
7FF5FFD0
00000000
001A0000
002F4000
001F4000
00034000
000A0000
00140000
ENDCHAR
STARTCHAR Ncaron
ENCODING 327
SWIDTH 742 0
DWIDTH 18 0
BBX 17 21 0 0
BITMAP
0004014000
000A0A0000
0003EC0000
0001F40000
0000000000
7FD001FFC0
0BF0002E00
03F8001C00
03BD001C00
036F401C00
030FC01C00
0307E01C00
0302F41C00
0300BD1C00
03003F1C00
03001F9C00
030007EC00
030002FC00
034000BC00
0B80003C00
7FF4001C00
ENDCHAR
STARTCHAR ncaron
ENCODING 328
SWIDTH 576 0
DWIDTH 14 0
BBX 14 17 0 0
BITMAP
00902400
0074A000
002EC000
000F4000
00000000
2B4BE400
0BA07C00
0B802D00
0B402D00
0B401E00
0B401E00
0B401E00
0B401E00
0B401E00
0B401E00
0B802E00
7FF5FFD0
ENDCHAR
STARTCHAR napostrophe
ENCODING 329
SWIDTH 576 0
DWIDTH 14 0
BBX 18 17 -4 0
BITMAP
7D00000000
BE00000000
6E00000000
0A00000000
1C00000000
602B4BE400
000BA07C00
000B802D00
000B402D00
000B401E00
000B401E00
000B401E00
000B401E00
000B401E00
000B401E00
000B802E00
007FF5FFD0
ENDCHAR
STARTCHAR Eng
ENCODING 330
SWIDTH 742 0
DWIDTH 18 0
BBX 17 21 0 -5
BITMAP
7FD001FFC0
0BF0002E00
03F8001C00
03BD001C00
037F401C00
031FC01C00
0307E01C00
0302F41C00
0300FC1C00
03003E1C00
03001F9C00
03000BEC00
030002FC00
034000FC00
0B80007C00
7FF4002C00
0000001C00
0000001C00
0000602800
0000BD7400
00006F9000
ENDCHAR
STARTCHAR eng
ENCODING 331
SWIDTH 559 0
DWIDTH 13 0
BBX 12 17 0 -5
BITMAP
2B4BE4
0BA07C
0B802D
0B402D
0B401E
0B401E
0B401E
0B401E
0B401E
0B401E
0B801E
7FF41E
00001D
00001D
00142C
003D78
001FE0
ENDCHAR
STARTCHAR Omacron
ENCODING 332
SWIDTH 738 0
DWIDTH 18 0
BBX 16 19 1 0
BITMAP
00BFFD00
00000000
00000000
006FE900
02E01B80
0F4002E0
2E0000F4
3D0000BC
7C00007D
B800003D
B800003D
B800003D
BC00003D
7C00007C
3D0000B8
2E0000F4
0F4002E0
02E00B80
006FF900
ENDCHAR
STARTCHAR omacron
ENCODING 333
SWIDTH 514 0
DWIDTH 12 0
BBX 11 15 1 0
BITMAP
1FFF80
000000
000000
06FE00
2E07C0
7801E0
B400F0
F000F4
F000B4
F000B4
F400B4
B400F0
7801E0
2E0780
06F900
ENDCHAR
STARTCHAR Obreve
ENCODING 334
SWIDTH 738 0
DWIDTH 18 0
BBX 16 22 1 0
BITMAP
00900900
00601C00
003FF800
001BE000
00000000
00000000
006FE900
02E01B80
0F4002E0
2E0000F4
3D0000BC
7C00007D
B800003D
B800003D
B800003D
BC00003D
7C00007C
3D0000B8
2E0000F4
0F4002E0
02E00B80
006FF900
ENDCHAR
STARTCHAR obreve
ENCODING 335
SWIDTH 514 0
DWIDTH 12 0
BBX 11 17 1 0
BITMAP
180080
0D0240
0BFF00
02F900
000000
06FE00
2E07C0
7801E0
B400F0
F000F4
F000B4
F000B4
F400B4
B400F0
7801E0
2E0780
06F900
ENDCHAR
STARTCHAR Ohungarumlaut
ENCODING 336
SWIDTH 738 0
DWIDTH 18 0
BBX 16 20 1 0
BITMAP
0003DBC0
000B5E00
00182400
00000000
006FE900
02E01B80
0F4002E0
2E0000F4
3D0000BC
7C00007D
B800003D
B800003D
B800003D
BC00003D
7C00007C
3D0000B8
2E0000F4
0F4002E0
02E00B80
006FF900
ENDCHAR
STARTCHAR ohungarumlaut
ENCODING 337
SWIDTH 514 0
DWIDTH 12 0
BBX 11 17 1 0
BITMAP
00B9E0
00F3C0
01C740
024900
000000
06FE00
2E07C0
7801E0
B400F0
F000F4
F000B4
F000B4
F400B4
B400F0
7801E0
2E0780
06F900
ENDCHAR
STARTCHAR OE
ENCODING 338
SWIDTH 945 0
DWIDTH 23 0
BBX 21 16 1 0
BITMAP
006FFFFFFF00
02E01F401B40
0F400F400240
2E000F400100
3D000F401400
7C000F402400
B8000F407400
B8000FFFF400
B8000F402400
BC000F402400
7C000F400000
3D000F400080
2E000F400180
0F400F400280
02E01F401B80
006FFFFFFF40
ENDCHAR
STARTCHAR oe
ENCODING 339
SWIDTH 807 0
DWIDTH 19 0
BBX 18 12 1 0
BITMAP
06F906F900
2D079D0B40
7802F803C0
B400F402D0
F000FFFFE0
F000F40000
F000F40000
F400F80000
B400FC0010
7801FE41C0
2E079FFF40
06F902F900
ENDCHAR
STARTCHAR Racute
ENCODING 340
SWIDTH 659 0
DWIDTH 16 0
BBX 15 20 1 0
BITMAP
000BC000
002E0000
00740000
00000000
BFFF9000
0F41BD00
0F402E00
0B401F00
0B401F00
0B401F00
0B403D00
0B41F400
0BFF8000
0B4BC000
0B42E000
0B40F800
0B407D00
0F402F40
1F800FD0
FFF807FC
ENDCHAR
STARTCHAR racute
ENCODING 341
SWIDTH 380 0
DWIDTH 9 0
BBX 9 17 0 0
BITMAP
003D00
00B400
00E000
018000
000000
1B4B80
2F6FC0
0BA280
0B8000
0B4000
0B4000
0B4000
0B4000
0B4000
0B4000
0B8000
7FF800
ENDCHAR
STARTCHAR Rcommaaccent
ENCODING 342
SWIDTH 659 0
DWIDTH 16 0
BBX 15 23 1 -7
BITMAP
BFFF9000
0F41BD00
0F402E00
0B401F00
0B401F00
0B401F00
0B403D00
0B41F400
0BFF8000
0B4BC000
0B42E000
0B40F800
0B407D00
0F402F40
1F800FD0
FFF807FC
00000000
000A0000
002F4000
001F8000
00024000
00060000
00180000
ENDCHAR
STARTCHAR rcommaaccent
ENCODING 343
SWIDTH 380 0
DWIDTH 9 0
BBX 9 19 0 -7
BITMAP
1B4B80
2F6FC0
0BA280
0B8000
0B4000
0B4000
0B4000
0B4000
0B4000
0B4000
0B8000
7FF800
000000
068000
0BD000
07D000
00D000
028000
050000
ENDCHAR
STARTCHAR Rcaron
ENCODING 344
SWIDTH 659 0
DWIDTH 16 0
BBX 15 21 1 0
BITMAP
01001000
01D1D000
007B8000
002E0000
00000000
BFFF9000
0F41BD00
0F402E00
0B401F00
0B401F00
0B401F00
0B403D00
0B41F400
0BFF8000
0B4BC000
0B42E000
0B40F800
0B407D00
0F402F40
1F800FD0
FFF807FC
ENDCHAR
STARTCHAR rcaron
ENCODING 345
SWIDTH 380 0
DWIDTH 9 0
BBX 9 17 0 0
BITMAP
180600
0A1C00
03B400
01E000
000000
1B4B80
2F6FC0
0BA280
0B8000
0B4000
0B4000
0B4000
0B4000
0B4000
0B4000
0B8000
7FF800
ENDCHAR
STARTCHAR Sacute
ENCODING 346
SWIDTH 504 0
DWIDTH 12 0
BBX 11 20 1 0
BITMAP
007D00
00F400
028000
000000
0BFFD0
3D07D0
B400D0
B400A0
B80060
7E0000
2FD000
0BF900
01BF80
001FE0
0003F0
8001F4
C000F4
E000F0
F806D0
FFFE40
ENDCHAR
STARTCHAR sacute
ENCODING 347
SWIDTH 394 0
DWIDTH 9 0
BBX 8 17 1 0
BITMAP
00F4
01E0
0380
0700
0000
1FE8
B42C
E00C
F408
BD00
2FD0
07F8
00BD
801E
C01E
E42D
EFE4
ENDCHAR
STARTCHAR Scircumflex
ENCODING 348
SWIDTH 504 0
DWIDTH 12 0
BBX 11 21 1 0
BITMAP
005000
02F800
075D00
1D0740
000000
0BFFD0
3D07D0
B400D0
B400A0
B80060
7E0000
2FD000
0BF900
01BF80
001FE0
0003F0
8001F4
C000F4
E000F0
F806D0
FFFE40
ENDCHAR
STARTCHAR scircumflex
ENCODING 349
SWIDTH 394 0
DWIDTH 9 0
BBX 8 17 1 0
BITMAP
07C0
0EE0
2874
6018
0000
1FE8
B42C
E00C
F408
BD00
2FD0
07F8
00BD
801E
C01E
E42D
EFE4
ENDCHAR
STARTCHAR uni015E
ENCODING 350
SWIDTH 504 0
DWIDTH 12 0
BBX 11 21 1 -5
BITMAP
0BFFD0
3D07D0
B400D0
B400A0
B80060
7E0000
2FD000
0BF900
01BF80
001FE0
0003F0
8001F4
C000F4
E000F0
F806D0
FFFE40
008000
00F800
001D00
011C00
02F400
ENDCHAR
STARTCHAR uni015F
ENCODING 351
SWIDTH 394 0
DWIDTH 9 0
BBX 8 17 1 -5
BITMAP
1FE8
B42C
E00C
F408
BD00
2FD0
07F8
00BD
801E
C01E
E42D
EFE4
0600
07D0
00B0
00B0
0B90
ENDCHAR
STARTCHAR Scaron
ENCODING 352
SWIDTH 504 0
DWIDTH 12 0
BBX 11 21 1 0
BITMAP
040140
0A0A00
03EC00
01F400
000000
0BFFD0
3D07D0
B400D0
B400A0
B80060
7E0000
2FD000
0BF900
01BF80
001FE0
0003F0
8001F4
C000F4
E000F0
F806D0
FFFE40
ENDCHAR
STARTCHAR scaron
ENCODING 353
SWIDTH 394 0
DWIDTH 9 0
BBX 8 17 1 0
BITMAP
6018
2874
0EE0
07C0
0000
1FE8
B42C
E00C
F408
BD00
2FD0
07F8
00BD
801E
C01E
E42D
EFE4
ENDCHAR
STARTCHAR uni0162
ENCODING 354
SWIDTH 603 0
DWIDTH 14 0
BBX 14 21 0 -5
BITMAP
7FFFFFF0
740F40B0
A00F4030
900F4020
000F4000
000F4000
000F4000
000F4000
000F4000
000F4000
000F4000
000F4000
000F4000
000F4000
001F8000
01FFF800
00080000
000B8000
0000E000
0010D000
001B8000
ENDCHAR
STARTCHAR uni0163
ENCODING 355
SWIDTH 315 0
DWIDTH 8 0
BBX 7 21 1 -5
BITMAP
0400
0D00
1D00
3D00
FFF0
2D00
2D00
2D00
2D00
2D00
2D00
2D00
2D00
2D00
2D14
0F90
0500
0BD0
00A0
00A0
1B80
ENDCHAR
STARTCHAR Tcaron
ENCODING 356
SWIDTH 603 0
DWIDTH 14 0
BBX 14 21 0 0
BITMAP
00401400
00A07000
002ED000
000F4000
00000000
7FFFFFF0
740F40B0
A00F4030
900F4020
000F4000
000F4000
000F4000
000F4000
000F4000
000F4000
000F4000
000F4000
000F4000
000F4000
001F8000
01FFF800
ENDCHAR
STARTCHAR tcaron
ENCODING 357
SWIDTH 353 0
DWIDTH 8 0
BBX 8 17 1 0
BITMAP
002D
042C
0D38
1D34
3D20
FFF0
2D00
2D00
2D00
2D00
2D00
2D00
2D00
2D00
2D00
2D14
0B90
ENDCHAR
STARTCHAR Tbar
ENCODING 358
SWIDTH 603 0
DWIDTH 14 0
BBX 14 16 0 0
BITMAP
7FFFFFF0
740F40B0
A00F4030
900F4030
400F4010
000F4000
000F4000
03FFFD00
000F4000
000F4000
000F4000
000F4000
000F4000
000F4000
001F8000
01FFF800
ENDCHAR
STARTCHAR tbar
ENCODING 359
SWIDTH 328 0
DWIDTH 8 0
BBX 7 16 1 0
BITMAP
0400
0900
1D00
3D00
BFF0
2D00
2D00
2D00
FFF0
2D00
2D00
2D00
2D00
2D00
1E14
0BD0
ENDCHAR
STARTCHAR Utilde
ENCODING 360
SWIDTH 752 0
DWIDTH 18 0
BBX 18 21 0 0
BITMAP
0002901000
000BF49000
00082F4000
0000000000
0000000000
7FFD01FFE0
0BD0002E00
07C0000D00
07C0000D00
07C0000D00
07C0000D00
07C0000D00
07C0000D00
07C0000D00
07C0000D00
03C0000D00
03C0000D00
02D0001C00
01E0002400
00B901A000
001BFE4000
ENDCHAR
STARTCHAR utilde
ENCODING 361
SWIDTH 570 0
DWIDTH 14 0
BBX 13 16 0 0
BITMAP
00A40400
02FD2000
020BD000
00000000
6F41BD00
1F407D00
0B402D00
0B402D00
0B402D00
0B402D00
0B402D00
0B402D00
0B402D00
0B402D00
07D1BD00
01FE2E80
ENDCHAR
STARTCHAR Umacron
ENCODING 362
SWIDTH 752 0
DWIDTH 18 0
BBX 18 19 0 0
BITMAP
000FFFC000
0000000000
0000000000
7FFD01FFE0
0BD0002E00
07C0000D00
07C0000D00
07C0000D00
07C0000D00
07C0000D00
07C0000D00
07C0000D00
07C0000D00
03C0000D00
03C0000D00
02D0001C00
01E0002400
00B901A000
001BFE4000
ENDCHAR
STARTCHAR umacron
ENCODING 363
SWIDTH 570 0
DWIDTH 14 0
BBX 13 15 0 0
BITMAP
02FFF000
00000000
00000000
6F41BD00
1F407D00
0B402D00
0B402D00
0B402D00
0B402D00
0B402D00
0B402D00
0B402D00
0B402D00
07D1BD00
01FE2E80
ENDCHAR
STARTCHAR Ubreve
ENCODING 364
SWIDTH 752 0
DWIDTH 18 0
BBX 18 22 0 0
BITMAP
000C008000
000A01C000
0007FF4000
0001BD0000
0000000000
0000000000
7FFD01FFE0
0BD0002E00
07C0000D00
07C0000D00
07C0000D00
07C0000D00
07C0000D00
07C0000D00
07C0000D00
07C0000D00
03C0000D00
03C0000D00
02D0001C00
01E0002400
00B901A000
001BFE4000
ENDCHAR
STARTCHAR ubreve
ENCODING 365
SWIDTH 570 0
DWIDTH 14 0
BBX 13 17 0 0
BITMAP
02002000
02806000
01FFD000
006F4000
00000000
6F41BD00
1F407D00
0B402D00
0B402D00
0B402D00
0B402D00
0B402D00
0B402D00
0B402D00
0B402D00
07D1BD00
01FE2E80
ENDCHAR
STARTCHAR Uring
ENCODING 366
SWIDTH 752 0
DWIDTH 18 0
BBX 18 22 0 0
BITMAP
0000B80000
0002860000
0003430000
0002860000
0000B80000
0000000000
7FFD01FFE0
0BD0002E00
07C0000D00
07C0000D00
07C0000D00
07C0000D00
07C0000D00
07C0000D00
07C0000D00
07C0000D00
03C0000D00
03C0000D00
02D0001C00
01E0002400
00B901A000
001BFE4000
ENDCHAR
STARTCHAR uring
ENCODING 367
SWIDTH 570 0
DWIDTH 14 0
BBX 13 18 0 0
BITMAP
002E4000
00A18000
0090C000
00A18000
002E4000
00000000
6F41BD00
1F407D00
0B402D00
0B402D00
0B402D00
0B402D00
0B402D00
0B402D00
0B402D00
0B402D00
07D1BD00
01FE2E80
ENDCHAR
STARTCHAR Uhungarumlaut
ENCODING 368
SWIDTH 752 0
DWIDTH 18 0
BBX 18 20 0 0
BITMAP
00007DB800
0000E1D000
0002834000
0000000000
7FFD01FFE0
0BD0002E00
07C0000D00
07C0000D00
07C0000D00
07C0000D00
07C0000D00
07C0000D00
07C0000D00
07C0000D00
03C0000D00
03C0000D00
02D0001C00
01E0002400
00B901A000
001BFE4000
ENDCHAR
STARTCHAR uhungarumlaut
ENCODING 369
SWIDTH 570 0
DWIDTH 14 0
BBX 13 17 0 0
BITMAP
001F7D00
002DB400
0034E000
00618000
00000000
6F41BD00
1F407D00
0B402D00
0B402D00
0B402D00
0B402D00
0B402D00
0B402D00
0B402D00
0B402D00
07D1BD00
01FE2E80
ENDCHAR
STARTCHAR Uogonek
ENCODING 370
SWIDTH 753 0
DWIDTH 18 0
BBX 18 21 0 -5
BITMAP
7FFD01FFE0
0BD0002E00
07C0000D00
07C0000D00
07C0000D00
07C0000D00
07C0000D00
07C0000D00
07C0000D00
07C0000D00
03C0000D00
03C0000D00
02D0001C00
01E0002800
00B901B000
001BFF8000
0000280000
0000700000
0000E00000
0000E04000
00007E4000
ENDCHAR
STARTCHAR uogonek
ENCODING 371
SWIDTH 570 0
DWIDTH 14 0
BBX 13 17 0 -5
BITMAP
6F41BD00
0F403D00
0B402D00
0B402D00
0B402D00
0B402D00
0B402D00
0B402D00
0B402D00
0B80BD00
07FF6F80
01F92A40
00006000
0001C000
00038000
0002C100
0001F900
ENDCHAR
STARTCHAR Wcircumflex
ENCODING 372
SWIDTH 944 0
DWIDTH 23 0
BBX 24 21 -1 0
BITMAP
000001400000
00000BE00000
00001D740000
0000341D0000
000000000000
7FFC3FFC07FE
0BE00BD000F4
03E003D000A0
02F002F000D0
01F401F401C0
00B800F80280
007C01FC0340
003D037D0700
002F072E0A00
001F4A1F4D00
000B8C0B9C00
0007D807E800
0003F403F000
0002F002E000
0001E001D000
00009000C000
ENDCHAR
STARTCHAR wcircumflex
ENCODING 373
SWIDTH 749 0
DWIDTH 18 0
BBX 20 17 -1 0
BITMAP
00003C0000
0000BE0000
0001C34000
0003008000
0000000000
7FE2FF42FD
0F807D00B0
07802D00A0
03C01E00C0
02D02F0180
01F03B4240
00F467C300
00B8C3D600
003D81E900
002F40FC00
001F00B800
000E007000
ENDCHAR
STARTCHAR Ycircumflex
ENCODING 374
SWIDTH 647 0
DWIDTH 16 0
BBX 16 21 0 0
BITMAP
00018000
0007E000
001E7800
00340900
00000000
FFF40BFE
2F8000E0
0BC001C0
03E00340
01F40A00
00BC0C00
003E2800
001F7000
000BD000
0007C000
0007C000
0007C000
0007C000
0007C000
000BD000
00BFFD00
ENDCHAR
STARTCHAR ycircumflex
ENCODING 375
SWIDTH 483 0
DWIDTH 12 0
BBX 13 22 -1 -5
BITMAP
000B4000
002EC000
0074A000
00902400
00000000
7FE07F80
0F800E00
0B800C00
03D01800
02E02400
00F03000
00B86000
007C8000
002D8000
001F4000
000F0000
000A0000
000D0000
00180000
00340000
2FE00000
2F800000
ENDCHAR
STARTCHAR Ydieresis
ENCODING 376
SWIDTH 647 0
DWIDTH 16 0
BBX 16 20 0 0
BITMAP
00640A00
00B81F00
00741E00
00000000
FFF40BFE
2F8000E0
0BC001C0
03E00340
01F40A00
00BC0C00
003E2800
001F7000
000BD000
0007C000
0007C000
0007C000
0007C000
0007C000
000BD000
00BFFD00
ENDCHAR
STARTCHAR Zacute
ENCODING 377
SWIDTH 594 0
DWIDTH 14 0
BBX 14 20 0 0
BITMAP
0002F000
000B8000
001D0000
00000000
1FFFFFD0
1E000F80
18002F00
24007D00
0000F800
0002F000
0007D000
000F8000
002F0000
007D0000
00F80000
02F00010
07D00050
0F8000D0
2F0002C0
7FFFFFC0
ENDCHAR
STARTCHAR zacute
ENCODING 378
SWIDTH 458 0
DWIDTH 11 0
BBX 11 17 0 0
BITMAP
000F40
001E00
003800
006000
000000
2FFFF0
2902E0
3407C0
200F40
002E00
007C00
00F400
02E000
07C024
0F4030
2E01B0
7FFFF0
ENDCHAR
STARTCHAR Zdotaccent
ENCODING 379
SWIDTH 594 0
DWIDTH 14 0
BBX 14 20 0 0
BITMAP
00064000
000BC000
00078000
00000000
1FFFFFD0
1E000F80
18002F00
24007D00
0000F800
0002F000
0007D000
000F8000
002F0000
007D0000
00F80000
02F00010
07D00050
0F8000D0
2F0002C0
7FFFFFC0
ENDCHAR
STARTCHAR zdotaccent
ENCODING 380
SWIDTH 458 0
DWIDTH 11 0
BBX 11 17 0 0
BITMAP
006800
00BC00
007800
000000
000000
2FFFF0
2902E0
3407C0
200F40
002E00
007C00
00F400
02E000
07C024
0F4030
2E01B0
7FFFF0
ENDCHAR
STARTCHAR Zcaron
ENCODING 381
SWIDTH 594 0
DWIDTH 14 0
BBX 14 21 0 0
BITMAP
00400400
00747400
001EE000
000B8000
00000000
1FFFFFD0
1E000F80
18002F00
24007D00
0000F800
0002F000
0007D000
000F8000
002F0000
007D0000
00F80000
02F00010
07D00050
0F8000D0
2F0002C0
7FFFFFC0
ENDCHAR
STARTCHAR zcaron
ENCODING 382
SWIDTH 458 0
DWIDTH 11 0
BBX 11 17 0 0
BITMAP
060180
028740
00EE00
007C00
000000
2FFFF0
2902E0
3407C0
200F40
002E00
007C00
00F400
02E000
07C024
0F4030
2E01B0
7FFFF0
ENDCHAR
STARTCHAR longs
ENCODING 383
SWIDTH 285 0
DWIDTH 7 0
BBX 9 18 0 0
BITMAP
007E40
0287C0
038280
074000
074000
0B4000
7F4000
0B4000
0B4000
0B4000
0B4000
0B4000
0B4000
0B4000
0B4000
0B4000
0F8000
BFFC00
ENDCHAR
STARTCHAR uni0180
ENCODING 384
SWIDTH 522 0
DWIDTH 13 0
BBX 12 17 0 0
BITMAP
6B0000
6F0000
0F0000
BFFF80
0F0000
0F1BD0
0F7FF8
0F80BC
0F003D
0F002E
0F002E
0F002E
0F002D
0F002C
0F0078
0F81E0
06FE40
ENDCHAR
STARTCHAR uni0188
ENCODING 392
SWIDTH 446 0
DWIDTH 11 0
BBX 13 16 0 0
BITMAP
00002F40
00009380
0000C000
0000C000
01BFC000
0B43E000
1D01E000
2C009000
38000000
38000000
7C000000
3C000000
3D001000
1F40A000
0BFFC000
02FE0000
ENDCHAR
STARTCHAR uni0190
ENCODING 400
SWIDTH 518 0
DWIDTH 12 0
BBX 11 16 1 0
BITMAP
06FE80
2E03F0
B801F4
B400A0
B80000
7C0000
1A4000
02FE00
1E4000
780000
F40000
F40000
F80004
BD0074
3FFFD0
0AFE00
ENDCHAR
STARTCHAR uni0192
ENCODING 402
SWIDTH 301 0
DWIDTH 7 0
BBX 11 23 -2 -5
BITMAP
000BE4
0028BC
003428
007400
00B400
00B400
07FFD0
00B400
00B400
00B400
00B400
00B400
00B400
00B400
00B400
00B400
00B400
00B400
00B400
00B400
90B000
F4E000
7F8000
ENDCHAR
STARTCHAR uni0195
ENCODING 405
SWIDTH 798 0
DWIDTH 19 0
BBX 18 17 0 0
BITMAP
1B40000000
5F40000000
0B40000000
0B40000000
0B40000000
0B47E00380
0B6FF803D0
0BD07C01E0
0B403D00B0
0B402D0070
0B402D0030
0B402D0030
0B402D0020
0B402D0060
0B402D0080
0B801E0140
7FF006F900
ENDCHAR
STARTCHAR uni0199
ENCODING 409
SWIDTH 538 0
DWIDTH 13 0
BBX 13 18 0 0
BITMAP
006F8000
0283E000
03409000
07400000
0B400000
0B400000
0B47FF00
0B40F400
0B428000
0B4A0000
0B640000
0BF80000
0B7E0000
0B5F4000
0B47D000
0B41F400
0F80BD00
7FF1FF80
ENDCHAR
STARTCHAR uni019A
ENCODING 410
SWIDTH 287 0
DWIDTH 7 0
BBX 7 17 0 0
BITMAP
1B40
1B40
0B40
0B40
0B40
0B40
0B40
7FF4
0B40
0B40
0B40
0B40
0B40
0B40
0B40
0B80
7FF4
ENDCHAR
STARTCHAR uni019B
ENCODING 411
SWIDTH 495 0
DWIDTH 12 0
BBX 13 17 -1 0
BITMAP
0BD00000
1FF46000
051F8000
006D0000
02960000
00030000
00074000
000F8000
001E9000
003D6000
00783000
00F42400
01F01800
03D00C00
07C00900
0F800B00
7FF03FC0
ENDCHAR
STARTCHAR uni019E
ENCODING 414
SWIDTH 559 0
DWIDTH 13 0
BBX 14 17 0 -5
BITMAP
2B4BE400
0BA07C00
0B802D00
0B402D00
0B401E00
0B401E00
0B401E00
0B401E00
0B401E00
0B401E00
0B801E00
7FF41E00
00001E00
00001E00
00001E00
00001E00
00001FD0
ENDCHAR
STARTCHAR Ohorn
ENCODING 416
SWIDTH 737 0
DWIDTH 18 0
BBX 16 20 1 0
BITMAP
0000001E
0000001F
0000000B
0000000A
006FFFF8
02E01B80
0F4002E0
2E0000F4
3D0000BC
7C00007D
B800003D
B800003D
B800003D
B800003D
7C00007C
3D0000B8
2E0000F4
0F4002E0
02E01B40
006FF900
ENDCHAR
STARTCHAR ohorn
ENCODING 417
SWIDTH 516 0
DWIDTH 12 0
BBX 11 16 1 0
BITMAP
000028
00003C
00001C
000028
06FFE0
2E0780
7801E0
B400F0
F000F4
F000B4
F000B4
F400B4
B400F0
7801E0
2E0780
06F900
ENDCHAR
STARTCHAR uni01A5
ENCODING 421
SWIDTH 522 0
DWIDTH 13 0
BBX 12 23 0 -5
BITMAP
00BF40
0347D0
0B02D0
0F0000
0F0000
0F0000
0F1BD0
0F7FF4
0F80BC
0F003D
0F002E
0F002E
0F002E
0F002D
0F002C
0F0038
0FD0A0
0FBF40
0F0000
0F0000
0F0000
1F4000
BFF400
ENDCHAR
STARTCHAR uni01AA
ENCODING 426
SWIDTH 298 0
DWIDTH 7 0
BBX 12 23 -2 -5
BITMAP
1B9000
20B400
503800
503C00
603C00
1BBC00
003C00
003C00
003C00
003C00
003C00
003C00
003C00
003C00
003C00
003C00
003C00
003C00
003C00
002C00
002C09
000D2E
0006F8
ENDCHAR
STARTCHAR uni01AB
ENCODING 427
SWIDTH 321 0
DWIDTH 8 0
BBX 7 21 1 -5
BITMAP
0900
0D00
2D00
7D00
FFF0
2D00
2D00
2D00
2D00
2D00
2D00
2D00
2D00
2D00
2D14
0BA4
0024
0024
0424
2D30
0BD0
ENDCHAR
STARTCHAR uni01AD
ENCODING 429
SWIDTH 315 0
DWIDTH 8 0
BBX 9 18 1 0
BITMAP
01BE00
0A1F80
1D0640
2D0000
2D0000
7D0000
FFF000
2D0000
2D0000
2D0000
2D0000
2D0000
2D0000
2D0000
2D0000
2D0000
2D1400
0B9000
ENDCHAR
STARTCHAR Uhorn
ENCODING 431
SWIDTH 762 0
DWIDTH 18 0
BBX 20 21 0 0
BITMAP
000000001D
000000002E
000000001E
000000000D
0000000004
7FFD01FF40
0BD0002D00
07C0000D00
07C0000D00
07C0000D00
07C0000D00
07C0000D00
07C0000D00
07C0000D00
07C0000D00
03C0000D00
03C0000C00
02D0001C00
01E0002400
00B901A000
001BFE4000
ENDCHAR
STARTCHAR uhorn
ENCODING 432
SWIDTH 574 0
DWIDTH 14 0
BBX 14 16 0 0
BITMAP
00000050
000001E0
000000B0
000000A0
6B41AF80
6F41BD00
0F402D00
0B402D00
0B402D00
0B402D00
0B402D00
0B402D00
0B402D00
0B402D00
07D1BD00
01FE2E80
ENDCHAR
STARTCHAR uni01B5
ENCODING 437
SWIDTH 594 0
DWIDTH 14 0
BBX 14 16 0 0
BITMAP
1FFFFFD0
1E000F80
18002F00
14007D00
0000F800
0002F000
0007D000
07FFFE00
002F0000
007D0000
00F80000
02F00010
07D00050
0F8000D0
2F0002D0
7FFFFFC0
ENDCHAR
STARTCHAR uni01BA
ENCODING 442
SWIDTH 430 0
DWIDTH 10 0
BBX 10 17 0 -5
BITMAP
7FFFC0
740F40
602D00
00B400
01E000
07E400
05AF40
0007C0
0003D0
0003D0
000780
006E00
0B9000
240000
300780
281F40
0BF900
ENDCHAR
STARTCHAR uni01BB
ENCODING 443
SWIDTH 508 0
DWIDTH 12 0
BBX 12 17 0 0
BITMAP
01BE40
0BFFD0
1D02F0
2000F4
1000B4
0000F4
0000F0
0001D0
2FFFFD
000A00
002C00
007400
01D000
038008
0A001C
2FFFF8
7FFFF8
ENDCHAR
STARTCHAR uni01BE
ENCODING 446
SWIDTH 406 0
DWIDTH 10 0
BBX 8 16 1 0
BITMAP
0100
0900
1D00
3D00
FFF4
2D00
2E00
06E4
007D
001E
001F
000F
800F
C01E
E02D
AFE4
ENDCHAR
STARTCHAR uni01C0
ENCODING 448
SWIDTH 250 0
DWIDTH 6 0
BBX 2 17 2 0
BITMAP
F0
F0
F0
F0
F0
F0
F0
F0
F0
F0
F0
F0
F0
F0
F0
F0
F0
ENDCHAR
STARTCHAR uni01C1
ENCODING 449
SWIDTH 423 0
DWIDTH 10 0
BBX 6 17 2 0
BITMAP
F0B0
F0B0
F0B0
F0B0
F0B0
F0B0
F0B0
F0B0
F0B0
F0B0
F0B0
F0B0
F0B0
F0B0
F0B0
F0B0
F0B0
ENDCHAR
STARTCHAR uni01C2
ENCODING 450
SWIDTH 422 0
DWIDTH 10 0
BBX 8 17 1 0
BITMAP
03C0
03C0
03C0
03C0
03C0
FFFF
03C0
03C0
03C0
FFFF
03C0
03C0
03C0
03C0
03C0
03C0
03C0
ENDCHAR
STARTCHAR uni01C3
ENCODING 451
SWIDTH 245 0
DWIDTH 6 0
BBX 4 17 1 0
BITMAP
38
7C
3C
3C
3C
3C
38
28
28
28
28
24
14
00
28
7D
3C
ENDCHAR
STARTCHAR uni01DE
ENCODING 478
SWIDTH 718 0
DWIDTH 17 0
BBX 17 22 0 0
BITMAP
003FFF0000
0000000000
00280A0000
007C0F4000
00780B4000
0000000000
0001D00000
0002E00000
0003F00000
000AF80000
000D7C0000
001C3D0000
00282E0000
00741F4000
00A00F8000
00D00BC000
01FFFFE000
038002F000
070001F400
0A0000FC00
1E0000BE00
FFC007FFC0
ENDCHAR
STARTCHAR uni01DF
ENCODING 479
SWIDTH 480 0
DWIDTH 12 0
BBX 10 19 1 0
BITMAP
3FFF00
000000
280A00
7D0F40
380B40
000000
000000
0BF800
382E00
B40F00
740F40
000B40
006F40
0B9B40
780B40
F00B40
F00B40
B81B40
2F87E0
ENDCHAR
STARTCHAR uni01F0
ENCODING 496
SWIDTH 263 0
DWIDTH 6 0
BBX 10 22 -3 -5
BITMAP
034090
01C240
00BA00
003D00
000000
00AD00
007D00
002D00
002D00
002D00
002D00
002D00
002D00
002D00
002D00
002D00
002D00
002D00
002D00
242C00
7D7400
2FD000
ENDCHAR
STARTCHAR Aringacute
ENCODING 506
SWIDTH 718 0
DWIDTH 17 0
BBX 17 25 0 0
BITMAP
0000BC0000
0002E00000
0007400000
0002E00000
0009180000
000C0C0000
0009180000
0002E00000
0000000000
0001D00000
0002E00000
0003F00000
000AF80000
000D7C0000
001C3D0000
00282E0000
00741F4000
00A00F8000
00D00BC000
01FFFFE000
038002F000
070001F400
0A0000FC00
1E0000BE00
FFC007FFC0
ENDCHAR
STARTCHAR aringacute
ENCODING 507
SWIDTH 480 0
DWIDTH 12 0
BBX 10 21 1 0
BITMAP
00BC00
02E000
074000
02E000
091800
0C0C00
091800
02E000
000000
0BF800
382E00
B40F00
740F40
000B40
006F40
0B9B40
780B40
F00B40
F00B40
B81B40
2F87E0
ENDCHAR
STARTCHAR AEacute
ENCODING 508
SWIDTH 894 0
DWIDTH 21 0
BBX 22 20 -1 0
BITMAP
0000000BC000
0000002E0000
000000740000
000000000000
0000BFFFFFC0
00002BD006C0
000037C000C0
0000A3C00080
0001C3C00000
000283C00800
000703C00C00
000D03C01C00
001FFFFFFC00
003403C01C00
00B003C00800
00D003C00010
028003C00060
074003C00090
1F4007D006D0
BFE07FFFFFC0
ENDCHAR
STARTCHAR aeacute
ENCODING 509
SWIDTH 709 0
DWIDTH 17 0
BBX 15 17 1 0
BITMAP
0003D000
000B4000
000E0000
00180000
00000000
1BF46F80
782E81F0
B40F4078
100F003C
001FFFFC
069F0000
2D0F0000
B40F4000
F00B8004
F00FD018
B822FFF0
2F807F80
ENDCHAR
STARTCHAR Oslashacute
ENCODING 510
SWIDTH 737 0
DWIDTH 18 0
BBX 16 20 1 0
BITMAP
0001F400
00078000
000D0000
00000000
006FF960
02E01BD0
0F4003E0
2E000AF4
3D0018BC
7C00307D
B800903D
B802403D
B806003D
BC1C003D
BC30007C
7D9000B8
2F8000F4
0F4002E0
1FE01B80
346FF900
ENDCHAR
STARTCHAR oslashacute
ENCODING 511
SWIDTH 514 0
DWIDTH 12 0
BBX 11 17 1 0
BITMAP
003D00
007800
00E000
018000
000000
06F990
2E07C0
7803E0
B409F0
F024B4
F060B4
F1C0B4
F640B4
BD00F0
7C01E0
7E0780
86F900
ENDCHAR
STARTCHAR uni0218
ENCODING 536
SWIDTH 504 0
DWIDTH 12 0
BBX 11 23 1 -7
BITMAP
0BFFD0
3D07D0
B400D0
B400A0
B80060
7E0000
2FD000
0BF900
01BF80
001FE0
0003F0
8001F4
C000F4
E000F0
F806D0
FFFE40
000000
01A000
02F400
01F400
002400
006000
014000
ENDCHAR
STARTCHAR uni0219
ENCODING 537
SWIDTH 394 0
DWIDTH 9 0
BBX 8 19 1 -7
BITMAP
1FE8
B42C
E00C
F408
BD00
2FD0
07F8
00BD
801E
C01E
E42D
EFE4
0000
0680
0FC0
0BD0
00C0
0280
0500
ENDCHAR
STARTCHAR uni021A
ENCODING 538
SWIDTH 603 0
DWIDTH 14 0
BBX 14 23 0 -7
BITMAP
7FFFFFF0
740F40B0
A00F4030
900F4020
000F4000
000F4000
000F4000
000F4000
000F4000
000F4000
000F4000
000F4000
000F4000
000F4000
001F8000
01FFF800
00000000
000A4000
001F8000
000FC000
00018000
00034000
00080000
ENDCHAR
STARTCHAR uni021B
ENCODING 539
SWIDTH 315 0
DWIDTH 8 0
BBX 7 23 1 -7
BITMAP
0400
0D00
1D00
3D00
FFF0
2D00
2D00
2D00
2D00
2D00
2D00
2D00
2D00
2D00
2D14
0B90
0000
0640
0FC0
0BC0
01C0
0240
0900
ENDCHAR
STARTCHAR uni0221
ENCODING 545
SWIDTH 674 0
DWIDTH 16 0
BBX 17 21 0 -4
BITMAP
0001B80000
0001B80000
0000780000
0000780000
0000780000
01BFB80000
0741F80000
0E00B80000
2C00780000
3C00780000
3C00780000
7C00780000
3C00780000
3D00782E00
2F40B89240
0FFF7E4700
06F81FE800
00000C0000
0000140000
0000300000
0000100000
ENDCHAR
STARTCHAR uni0228
ENCODING 552
SWIDTH 626 0
DWIDTH 15 0
BBX 14 21 1 -5
BITMAP
BFFFFF40
0F401780
0F400180
0B400040
0B400800
0B401800
0B402800
0BFFF800
0B402800
0B400800
0B400000
0B400090
0B4000C0
0F4001C0
0F4017C0
BFFFFF80
00080000
001F4000
0001C000
0002C000
002E4000
ENDCHAR
STARTCHAR uni0229
ENCODING 553
SWIDTH 464 0
DWIDTH 11 0
BBX 10 17 1 -5
BITMAP
06F900
280F40
700780
B003C0
FFFFD0
E00000
F00000
F40000
B80050
7E0180
2FFF40
06F900
008000
01F400
001C00
002C00
02E400
ENDCHAR
STARTCHAR uni0234
ENCODING 564
SWIDTH 399 0
DWIDTH 10 0
BBX 10 21 0 -4
BITMAP
6B0000
6F0000
0F0000
0F0000
0F0000
0F0000
0F0000
0F0000
0F0000
0F0000
0F0000
0F0000
0F0000
0F0BD0
0F2460
0F9190
06FE40
024000
060000
090000
040000
ENDCHAR
STARTCHAR uni0235
ENCODING 565
SWIDTH 702 0
DWIDTH 17 0
BBX 17 16 0 -4
BITMAP
2B4BE00000
0BA0780000
0B803C0000
0B402D0000
0B402D0000
0B402D0000
0B402D0000
0B402D0000
0B402D1B40
0B402D60C0
0B801E8180
7FF40BF900
0000060000
0000090000
0000180000
0000100000
ENDCHAR
STARTCHAR uni0236
ENCODING 566
SWIDTH 406 0
DWIDTH 10 0
BBX 9 20 1 -4
BITMAP
040000
0D0000
1D0000
3D0000
FFF000
2D0000
2D0000
2D0000
2D0000
2D0000
2D0000
2D0000
2D1F40
2D6080
2E8280
0BF900
060000
0C0000
180000
100000
ENDCHAR
STARTCHAR uni0237
ENCODING 567
SWIDTH 263 0
DWIDTH 6 0
BBX 8 17 -3 -5
BITMAP
00AD
007D
002D
002D
002D
002D
002D
002D
002D
002D
002D
002D
002D
002D
242C
7D74
2FD0
ENDCHAR
STARTCHAR uni0250
ENCODING 592
SWIDTH 475 0
DWIDTH 11 0
BBX 11 12 0 0
BITMAP
6E1BD0
4F51F4
0B40B4
0B40B4
0B41E0
0B5B40
0BE400
0B4000
0B40F0
0B40F0
0781D0
01BE40
ENDCHAR
STARTCHAR uni0251
ENCODING 593
SWIDTH 542 0
DWIDTH 13 0
BBX 12 12 0 0
BITMAP
01BF68
0741F8
0E00B8
2C0078
3C0078
3C0078
7C0078
3C0078
3D0078
2F40B8
0FFFBD
06F87A
ENDCHAR
STARTCHAR uni0252
ENCODING 594
SWIDTH 544 0
DWIDTH 13 0
BBX 12 12 1 0
BITMAP
AD2F90
7EFFF0
2E41F8
2D007C
2D003C
2D003D
2D003C
2D003C
2D0038
2E00B0
2F41D0
29FE40
ENDCHAR
STARTCHAR uni0253
ENCODING 595
SWIDTH 518 0
DWIDTH 12 0
BBX 11 18 1 0
BITMAP
02F900
0D2F40
2C0B00
380000
380000
380000
786F40
79FFD0
7E02F0
7C00F4
7800B8
7800B8
7800B4
7800B4
7800F0
7801E0
7D0780
1BF900
ENDCHAR
STARTCHAR uni0254
ENCODING 596
SWIDTH 454 0
DWIDTH 11 0
BBX 10 12 0 0
BITMAP
06F900
1FFF80
2407D0
5002E0
0001F0
0000F0
0000F0
0000F0
2800E0
3D01C0
2E0740
0BF900
ENDCHAR
STARTCHAR uni0255
ENCODING 597
SWIDTH 447 0
DWIDTH 11 0
BBX 10 15 0 -3
BITMAP
01BF40
0B43E0
1D01E0
2C0050
380000
380000
780000
3C0B90
3D2460
1FA030
0BD0A0
02FE40
020000
050000
080000
ENDCHAR
STARTCHAR uni0256
ENCODING 598
SWIDTH 528 0
DWIDTH 13 0
BBX 15 22 0 -5
BITMAP
0001B800
0001B800
00007800
00007800
00007800
01BEB800
0741F800
0E00B800
2C007800
3C007800
3C007800
7C007800
3C007800
3D007800
2F40B800
0FFFB800
06F87800
00007800
00007800
00003814
00002C7C
00000BF4
ENDCHAR
STARTCHAR uni0257
ENCODING 599
SWIDTH 542 0
DWIDTH 13 0
BBX 16 18 0 0
BITMAP
000006F8
00001D3D
0000281D
00003800
00007800
00007800
01BEB800
0741F800
0E00B800
2C007800
3C007800
3C007800
7C007800
3C007800
3D007800
2F40B800
0FFFBD00
06F87A40
ENDCHAR
STARTCHAR uni0258
ENCODING 600
SWIDTH 466 0
DWIDTH 11 0
BBX 10 12 1 0
BITMAP
07F800
2D0B00
B40380
F402C0
FFFFD0
0002D0
0002D0
0003D0
4007C0
A01F80
3FFE00
0BE400
ENDCHAR
STARTCHAR uni0259
ENCODING 601
SWIDTH 464 0
DWIDTH 11 0
BBX 10 12 1 0
BITMAP
0BE400
3FFE00
A02F40
400BC0
0003C0
0002D0
0002D0
FFFFD0
F002C0
B40380
3D0A00
0BF400
ENDCHAR
STARTCHAR uni025A
ENCODING 602
SWIDTH 642 0
DWIDTH 15 0
BBX 15 12 1 0
BITMAP
0BE40000
7FFE0000
902F4910
400BEA24
0003D6E0
0002D000
0002D000
FFFFC000
F002C000
B4034000
3D0A0000
0BF40000
ENDCHAR
STARTCHAR uni025B
ENCODING 603
SWIDTH 399 0
DWIDTH 10 0
BBX 8 12 1 0
BITMAP
1BF8
B82E
F00A
B000
2800
0BE0
7900
F000
F000
F001
B806
1BE4
ENDCHAR
STARTCHAR uni025C
ENCODING 604
SWIDTH 398 0
DWIDTH 10 0
BBX 9 12 0 0
BITMAP
1BF900
7D0F00
740B40
000B40
001E00
07F400
001E00
000B40
000780
400780
641F00
1BF800
ENDCHAR
STARTCHAR uni025D
ENCODING 605
SWIDTH 575 0
DWIDTH 14 0
BBX 14 12 0 0
BITMAP
1BF80000
7D0F0000
640B6810
000B9C60
00190B80
07F80000
001F0000
000B8000
00078000
40078000
641F0000
1BF80000
ENDCHAR
STARTCHAR uni025E
ENCODING 606
SWIDTH 500 0
DWIDTH 12 0
BBX 10 12 1 0
BITMAP
06FE40
1E02D0
7800F0
B400E0
F002C0
E0BE00
E002D0
F000F0
B000F0
7801F0
1E06E0
06FE40
ENDCHAR
STARTCHAR uni025F
ENCODING 607
SWIDTH 272 0
DWIDTH 7 0
BBX 9 17 -2 -5
BITMAP
02B400
00B400
00B400
00B400
07FF40
00B400
00B400
00B400
00B400
00B400
00B400
00B400
00B400
00B400
A0B000
F9D000
7F4000
ENDCHAR
STARTCHAR uni0260
ENCODING 608
SWIDTH 541 0
DWIDTH 13 0
BBX 16 23 0 -5
BITMAP
000006F9
00001C2F
0000280A
00003800
00007800
00007800
01BEB800
0741F800
0E00B800
2C007800
3C007800
3C007800
7C007800
3C007800
3D007800
2F40B800
0FFFB800
06F87800
00007400
0000B400
1900B000
2F42D000
0AFE4000
ENDCHAR
STARTCHAR uni0261
ENCODING 609
SWIDTH 521 0
DWIDTH 13 0
BBX 11 17 0 -5
BITMAP
01BE68
0741F8
0E00B8
2C0078
3C0078
3C0078
7C0078
3C0078
3D0078
2F40B8
0FFFB8
06F878
000074
0000B4
1900B0
2F42D0
0AFE40
ENDCHAR
STARTCHAR uni0262
ENCODING 610
SWIDTH 535 0
DWIDTH 13 0
BBX 12 12 1 0
BITMAP
06FFF0
1E01F0
780030
B40020
F00000
F00000
F007FD
F400F4
F400B0
7C00B0
2E41F0
06FE80
ENDCHAR
STARTCHAR uni0263
ENCODING 611
SWIDTH 479 0
DWIDTH 12 0
BBX 13 17 -1 -5
BITMAP
7FE07FC0
0F800E00
07800C00
03C02800
02E03400
01F07000
00F49000
0078C000
003E8000
002F4000
001F0000
001F4000
002B8000
0033C000
0062D000
0062C000
002F4000
ENDCHAR
STARTCHAR uni0264
ENCODING 612
SWIDTH 466 0
DWIDTH 11 0
BBX 11 12 0 0
BITMAP
2F86E4
B0B838
E07C2C
019E00
024B00
030780
060780
0903C0
0903C0
090380
070B40
01FD00
ENDCHAR
STARTCHAR uni0265
ENCODING 613
SWIDTH 553 0
DWIDTH 13 0
BBX 14 17 0 -5
BITMAP
6B406D00
1F407D00
0B402D00
0B402D00
0B402D00
0B402D00
0B402D00
0B402D00
0B402D00
0B80BD00
07FF6D00
01F92D00
00002D00
00002D00
00002D00
00002E00
00002FD0
ENDCHAR
STARTCHAR uni0266
ENCODING 614
SWIDTH 577 0
DWIDTH 14 0
BBX 14 18 0 0
BITMAP
006F8000
0183E000
0340E000
07400000
0B400000
0B400000
0B47E400
0B6FFC00
0BD07D00
0B402D00
0B402E00
0B401E00
0B401E00
0B401E00
0B401E00
0B401E00
0B802E00
7FF0FFD0
ENDCHAR
STARTCHAR uni0267
ENCODING 615
SWIDTH 562 0
DWIDTH 13 0
BBX 12 23 0 -5
BITMAP
006F80
0183E0
0340E0
074000
0B4000
0B4000
0B47E4
0B6FFC
0BD03D
0B402D
0B401E
0B401E
0B401E
0B401E
0B401E
0B401E
0B801E
7FF01E
00001E
00001D
00142C
003E78
001FE0
ENDCHAR
STARTCHAR uni0268
ENCODING 616
SWIDTH 295 0
DWIDTH 7 0
BBX 7 17 0 0
BITMAP
0780
0BC0
0640
0000
0000
1B80
1B80
0780
0780
0780
7FF4
0780
0780
0780
0780
0B80
3FF4
ENDCHAR
STARTCHAR uni0269
ENCODING 617
SWIDTH 286 0
DWIDTH 7 0
BBX 8 12 0 0
BITMAP
2B40
5F40
0B40
0B40
0B40
0B40
0B40
0B40
0B40
0B40
0B45
02E4
ENDCHAR
STARTCHAR uni026A
ENCODING 618
SWIDTH 287 0
DWIDTH 7 0
BBX 6 12 0 0
BITMAP
7FF0
0B80
0B40
0B40
0B40
0B40
0B40
0B40
0B40
0B40
0B80
7FF0
ENDCHAR
STARTCHAR uni026B
ENCODING 619
SWIDTH 290 0
DWIDTH 7 0
BBX 7 17 0 0
BITMAP
1B40
1F40
0B40
0B40
0B40
0B40
0B40
6F48
8BE4
0B40
0B40
0B40
0B40
0B40
0B40
0B80
7FF4
ENDCHAR
STARTCHAR uni026C
ENCODING 620
SWIDTH 318 0
DWIDTH 8 0
BBX 8 17 0 0
BITMAP
1AC0
07C0
03C0
03C0
03C0
2FC0
A3C0
D3C0
D3C6
B7E8
2BD0
03C0
03C0
03C0
03C0
03D0
1FFC
ENDCHAR
STARTCHAR uni026D
ENCODING 621
SWIDTH 248 0
DWIDTH 6 0
BBX 9 22 0 -5
BITMAP
6B0000
6F0000
0F0000
0F0000
0F0000
0F0000
0F0000
0F0000
0F0000
0F0000
0F0000
0F0000
0F0000
0F0000
0F0000
0F0000
0F0000
0F0000
0F0000
0B0640
075F40
01BE00
ENDCHAR
STARTCHAR uni026E
ENCODING 622
SWIDTH 590 0
DWIDTH 14 0
BBX 14 22 0 -5
BITMAP
1B400000
1B400000
0B400000
0B400000
0B400000
0BFFFFD0
0B400B80
0B401F40
0B403D00
0B40B800
0B41F000
0B43D000
0B47D400
0B416E40
0B4007C0
0B8002E0
7FF401E0
000001E0
000002E0
00B003C0
00B81B40
002FE400
ENDCHAR
STARTCHAR uni026F
ENCODING 623
SWIDTH 846 0
DWIDTH 20 0
BBX 20 12 0 0
BITMAP
2B41AC06B0
5F41BC06F0
0B403C00F0
0B403C00F0
0B403C00F0
0B403C00F0
0B403C00F0
0B403C00F0
0B403C00F0
0B407C01F0
0781AE06F0
01F90BE4F9
ENDCHAR
STARTCHAR uni0270
ENCODING 624
SWIDTH 826 0
DWIDTH 20 0
BBX 20 17 0 -5
BITMAP
6B41AC06B0
1F417C06F0
0B403C00F0
0B403C00F0
0B403C00F0
0B403C00F0
0B403C00F0
0B403C00F0
0B403C00F0
0B81FE06F0
07FF5FFCF0
01F90BE0F0
00000000F0
00000000F0
00000000F0
00000000F4
00000000FE
ENDCHAR
STARTCHAR uni0271
ENCODING 625
SWIDTH 835 0
DWIDTH 20 0
BBX 19 17 0 -5
BITMAP
2B4BF46F80
0BA07E81E0
0B802E00F0
0B402D00F0
0B402D00B4
0B402D00B4
0B402D00B4
0B402D00B4
0B402D00B4
0B402D00B4
0B803E00B4
7FF5FFD0B0
00000000F0
00000000F0
00000040E0
000001F5D0
000000BE40
ENDCHAR
STARTCHAR uni0272
ENCODING 626
SWIDTH 574 0
DWIDTH 14 0
BBX 17 17 -3 -5
BITMAP
00AD2F9000
002E81F000
002E00B400
002D00B400
002D00B400
002D00B800
002D00B800
002D00B800
002D00B800
002D00B800
002D00B800
002D07FF40
002D000000
002D000000
142C000000
7D74000000
2F90000000
ENDCHAR
STARTCHAR uni0273
ENCODING 627
SWIDTH 563 0
DWIDTH 14 0
BBX 16 17 0 -5
BITMAP
2B4BE400
0BA07C00
0B802D00
0B402D00
0B401E00
0B401E00
0B401E00
0B401E00
0B401E00
0B401E00
0B801E00
7FF41E00
00001E00
00001E00
00000E05
00000B5F
000002FD
ENDCHAR
STARTCHAR uni0274
ENCODING 628
SWIDTH 568 0
DWIDTH 14 0
BBX 14 12 0 0
BITMAP
BF407FD0
1FC00B00
0BE00600
09F80600
097D0600
092F4600
090BC600
0903E600
0901FE00
09007E00
0D002E00
BFC00A00
ENDCHAR
STARTCHAR uni0275
ENCODING 629
SWIDTH 514 0
DWIDTH 12 0
BBX 11 12 1 0
BITMAP
06FE00
2D07C0
7801E0
B400F0
F000B4
FFFFF4
F000B4
F400B4
B400F0
7801E0
2E0780
06F900
ENDCHAR
STARTCHAR uni0276
ENCODING 630
SWIDTH 732 0
DWIDTH 18 0
BBX 16 12 1 0
BITMAP
06FFFFFC
2E03D01C
7802D009
B402D004
F402D060
F002FFE0
F002D060
F402D020
B402D001
7802D006
2E03D01D
06FFFFFD
ENDCHAR
STARTCHAR uni0277
ENCODING 631
SWIDTH 672 0
DWIDTH 16 0
BBX 15 12 1 0
BITMAP
01BFE400
0B801E00
2D000780
780002E0
B40A00F0
F01F40F4
F00F40F4
F00F00F4
F40B00F0
B80B01E0
3D1943C0
0BE0BE00
ENDCHAR
STARTCHAR uni0278
ENCODING 632
SWIDTH 658 0
DWIDTH 16 0
BBX 14 22 1 -5
BITMAP
006A0000
006E0000
000E0000
000E0000
000E0000
02FFF800
1F4E1F40
3C0E07C0
B40E02E0
F40E01F0
F00E01F0
F00E01F0
F40E01E0
B40E02D0
7C0E03C0
2E0E0B00
06FFA400
000E0000
000E0000
000F0000
001F0000
00BFE000
ENDCHAR
STARTCHAR uni0279
ENCODING 633
SWIDTH 380 0
DWIDTH 9 0
BBX 9 12 0 0
BITMAP
0BFF40
00BC00
007800
007800
007800
007800
007800
007800
00B800
61B800
BE7E40
787900
ENDCHAR
STARTCHAR uni027A
ENCODING 634
SWIDTH 374 0
DWIDTH 9 0
BBX 9 17 0 0
BITMAP
01B800
01B800
007800
007800
007800
007800
007800
007800
007800
007800
007800
007800
007800
00B800
61B800
BE7E40
787900
ENDCHAR
STARTCHAR uni027B
ENCODING 635
SWIDTH 375 0
DWIDTH 9 0
BBX 12 17 0 -5
BITMAP
0BFF40
00BC00
007800
007800
007800
007800
007800
007800
00B800
61B800
BE7800
787800
007800
003800
003818
001D7D
0007F8
ENDCHAR
STARTCHAR uni027C
ENCODING 636
SWIDTH 378 0
DWIDTH 9 0
BBX 9 17 0 -5
BITMAP
1B4B80
2F6FC0
0BA240
0B8000
0B4000
0B4000
0B4000
0B4000
0B4000
0B4000
0B4000
0B4000
0B4000
0B4000
0B4000
0B8000
7FF800
ENDCHAR
STARTCHAR uni027D
ENCODING 637
SWIDTH 373 0
DWIDTH 9 0
BBX 9 17 0 -5
BITMAP
1B4B40
6F6F80
0B9640
0B8000
0B4000
0B4000
0B4000
0B4000
0B4000
0B4000
0B4000
0B4000
0B4000
0B4000
074240
029B80
00BE40
ENDCHAR
STARTCHAR uni027E
ENCODING 638
SWIDTH 371 0
DWIDTH 9 0
BBX 9 12 0 0
BITMAP
00BE40
028B80
074100
0B4000
0B4000
0B4000
0B4000
0B4000
0B4000
0B4000
0F8000
7FF400
ENDCHAR
STARTCHAR uni027F
ENCODING 639
SWIDTH 371 0
DWIDTH 9 0
BBX 9 12 0 0
BITMAP
7E4000
B4A000
50B000
007400
007800
007800
007800
007800
007800
007800
00B800
0BFF40
ENDCHAR
STARTCHAR uni0280
ENCODING 640
SWIDTH 494 0
DWIDTH 12 0
BBX 13 12 0 0
BITMAP
2FFE4000
0B42E000
0B40F000
0B40F000
0B40F000
0B46D000
0BFE0000
0B5F0000
0B47C000
0B42E000
0B80F800
7FF07F40
ENDCHAR
STARTCHAR uni0281
ENCODING 641
SWIDTH 494 0
DWIDTH 12 0
BBX 13 12 0 0
BITMAP
7FF07F40
0B80F800
0B42E000
0B4BC000
0B5F0000
0BFE0000
0B46D000
0B40F000
0B40F000
0B40F000
0B42E000
2FFE4000
ENDCHAR
STARTCHAR uni0282
ENCODING 642
SWIDTH 395 0
DWIDTH 9 0
BBX 8 17 1 -5
BITMAP
1FE8
B42C
E00C
F408
BD00
2FD0
07F8
00BD
801E
C01E
E42D
EFE4
C000
C000
8040
A2C0
2F40
ENDCHAR
STARTCHAR uni0283
ENCODING 643
SWIDTH 253 0
DWIDTH 6 0
BBX 12 23 -3 -5
BITMAP
0002F8
000D2E
001C09
002C00
003C00
003C00
003C00
003C00
003C00
003C00
003C00
003C00
003C00
003C00
003C00
003C00
003C00
003C00
003C00
003C00
603800
787400
2F9000
ENDCHAR
STARTCHAR uni0284
ENCODING 644
SWIDTH 286 0
DWIDTH 7 0
BBX 11 22 -2 -5
BITMAP
0007F4
002C78
003810
007400
007400
00B400
00B400
00B400
00B400
00B400
00B400
00B400
00B400
00B400
00B400
00B400
07FF40
00B400
00B400
00B000
F4D000
7E4000
ENDCHAR
STARTCHAR uni0285
ENCODING 645
SWIDTH 361 0
DWIDTH 9 0
BBX 11 17 0 -5
BITMAP
6F8000
B4A000
507400
007400
007800
007800
007800
007800
007800
007800
007800
007800
007800
007800
003818
002C7C
000BF4
ENDCHAR
STARTCHAR uni0286
ENCODING 646
SWIDTH 253 0
DWIDTH 6 0
BBX 11 23 -2 -5
BITMAP
000BE0
0034B8
007024
00B000
00F000
00F000
00F000
00F000
00F000
00F000
00F000
00F000
00F000
00F000
00F000
00F000
00F000
00F000
2FF000
90FD00
C0E200
D1D000
6E4000
ENDCHAR
STARTCHAR uni0287
ENCODING 647
SWIDTH 315 0
DWIDTH 8 0
BBX 7 16 0 -4
BITMAP
2F40
83C0
02D0
02D0
02D0
02D0
02D0
02D0
02D0
02D0
02D0
7FF8
02E0
02C0
0240
0100
ENDCHAR
STARTCHAR uni0288
ENCODING 648
SWIDTH 309 0
DWIDTH 7 0
BBX 8 21 1 -5
BITMAP
0900
0D00
1D00
3D00
BFF0
2D00
2D00
2D00
2D00
2D00
2D00
2D00
2D00
2D00
2D00
2D00
2D00
2D00
1D09
0A6E
02F9
ENDCHAR
STARTCHAR uni0289
ENCODING 649
SWIDTH 580 0
DWIDTH 14 0
BBX 13 12 0 0
BITMAP
6F41BD00
1F407D00
0B402D00
0B402D00
0B402D00
7FFFFFC0
0B402D00
0B402D00
0B402D00
0B802D00
07D0BE00
01BE2E80
ENDCHAR
STARTCHAR uni028A
ENCODING 650
SWIDTH 548 0
DWIDTH 13 0
BBX 11 12 1 0
BITMAP
BF43FC
0A01C0
1C00D0
2800B0
740078
B4007C
F4003C
F4003C
B4007C
7800B4
2E01E0
06FE40
ENDCHAR
STARTCHAR uni028B
ENCODING 651
SWIDTH 530 0
DWIDTH 13 0
BBX 12 12 0 0
BITMAP
6F4074
1F407C
0B402D
0B401D
0B400A
0B400A
0B4005
0B4009
0B4008
0B4014
03D060
01BE40
ENDCHAR
STARTCHAR uni028C
ENCODING 652
SWIDTH 495 0
DWIDTH 12 0
BBX 13 12 -1 0
BITMAP
000E0000
001F0000
002F4000
0037C000
0063D000
00D2E000
01C1F000
0280B400
03407800
06003D00
0E003E00
7FC0FFC0
ENDCHAR
STARTCHAR uni028D
ENCODING 653
SWIDTH 764 0
DWIDTH 18 0
BBX 19 12 0 0
BITMAP
003801C000
007C02E000
00BD03F000
00DE09F400
018F0CB800
034B583C00
0707A42D00
0A03F01F00
0D02E00F40
1C01F00B80
3800F407D0
FF07FE2FF8
ENDCHAR
STARTCHAR uni028E
ENCODING 654
SWIDTH 492 0
DWIDTH 12 0
BBX 12 17 0 0
BITMAP
0001BD
0003AD
000A00
000C00
001800
003400
007800
00BC00
00EE00
019F00
024B40
0707C0
0A03D0
0D01E0
1C00F4
2800B8
FF03FF
ENDCHAR
STARTCHAR uni028F
ENCODING 655
SWIDTH 454 0
DWIDTH 11 0
BBX 13 12 -1 0
BITMAP
7FD07F40
1F401C00
07802400
02D06000
00F08000
007A4000
002E0000
001E0000
001E0000
001E0000
002E0000
00FFD000
ENDCHAR
STARTCHAR uni0290
ENCODING 656
SWIDTH 458 0
DWIDTH 11 0
BBX 14 17 0 -5
BITMAP
2FFFF000
2803E000
300BC000
201F4000
002E0000
007C0000
00F40000
02E00000
07C02400
0F403000
2E00B000
7FFFF000
00003000
00003000
00003010
000024F0
00000BD0
ENDCHAR
STARTCHAR uni0291
ENCODING 657
SWIDTH 458 0
DWIDTH 11 0
BBX 11 16 0 -4
BITMAP
2FFFF0
2803E0
300BC0
201F40
002E00
007C00
00F400
02E000
07C2F4
0F4918
2E2828
7FFFA0
009000
018000
024000
020000
ENDCHAR
STARTCHAR uni0292
ENCODING 658
SWIDTH 443 0
DWIDTH 11 0
BBX 11 17 0 -5
BITMAP
3FFFF0
3407D0
300B80
102E00
007C00
00F400
02E000
02F900
000B80
0002E0
0000F0
0000F4
0000F4
1000F0
7802D0
7D0B80
1BE900
ENDCHAR
STARTCHAR uni0293
ENCODING 659
SWIDTH 443 0
DWIDTH 11 0
BBX 10 21 0 -9
BITMAP
3FFFF0
3407D0
300B80
102E00
007C00
00F400
02E000
02F900
000B80
0002E0
0001F0
0000F0
1E00F0
31C1F0
7062D0
282B80
0AFD00
000900
000600
000240
000040
ENDCHAR
STARTCHAR uni0294
ENCODING 660
SWIDTH 383 0
DWIDTH 9 0
BBX 9 18 0 0
BITMAP
06F900
2D0B40
780780
7803C0
0003C0
0003C0
0007C0
000B40
001E00
01B400
0B4000
0B4000
0B4000
0B4000
0B4000
0B4000
0B8000
7FF400
ENDCHAR
STARTCHAR uni0295
ENCODING 661
SWIDTH 383 0
DWIDTH 9 0
BBX 9 18 0 0
BITMAP
06F800
2D0F00
740B40
B40740
F40000
F40000
B40000
780000
2E0000
069000
007800
007800
007800
007800
007800
007800
00BC00
07FF80
ENDCHAR
STARTCHAR uni0296
ENCODING 662
SWIDTH 408 0
DWIDTH 10 0
BBX 9 17 0 0
BITMAP
1B8000
1B8000
078000
078000
078000
078000
078000
079000
007800
000F00
000780
0003C0
0003C0
2403C0
780380
3C0B40
0AA900
ENDCHAR
STARTCHAR uni0297
ENCODING 663
SWIDTH 437 0
DWIDTH 10 0
BBX 10 17 0 -5
BITMAP
00BE40
0743D0
0E02E0
1D00A0
2C0000
3C0000
380000
380000
780000
380000
3C0000
3C0000
2D0000
1F0020
0F91A0
07FF80
01A900
ENDCHAR
STARTCHAR uni0298
ENCODING 664
SWIDTH 736 0
DWIDTH 18 0
BBX 17 17 0 0
BITMAP
001BFE4000
00B806E000
03D000B800
0B40002D00
1E00001F00
2D00000B40
3D00000B80
7C01E00780
7C02F407C0
3C01E00780
3D00000B80
2D00000B40
1E00001F00
0B40002D00
03C000B800
00B406E000
001BFA4000
ENDCHAR
STARTCHAR uni0299
ENCODING 665
SWIDTH 485 0
DWIDTH 12 0
BBX 11 12 0 0
BITMAP
2FFE80
0B41E0
0B40F0
0B40F0
0B42E0
0BFF40
0B41E0
0B40B8
0B4078
0B40B8
0B41F4
6FFF90
ENDCHAR
STARTCHAR uni029A
ENCODING 666
SWIDTH 500 0
DWIDTH 12 0
BBX 10 12 1 0
BITMAP
1BF900
B80B40
F002D0
B001E0
2800F0
0BE0B0
7800B0
F000F0
F001E0
F402D0
B90B40
1BF900
ENDCHAR
STARTCHAR uni029B
ENCODING 667
SWIDTH 536 0
DWIDTH 13 0
BBX 14 16 1 0
BITMAP
00000BE0
000018B0
00002410
00003000
06FFF000
1E01F000
78003000
B4002000
F4000000
F0000000
F007FD00
F400F400
B400B000
7C00B000
2E41F000
06FF8000
ENDCHAR
STARTCHAR uni029C
ENCODING 668
SWIDTH 599 0
DWIDTH 14 0
BBX 14 12 0 0
BITMAP
7FF0BFE0
0B801F00
0B400F00
0B400F00
0B400F00
0BFFFF00
0B400F00
0B400F00
0B400F00
0B400F00
0B801F00
7FF0BFE0
ENDCHAR
STARTCHAR uni029D
ENCODING 669
SWIDTH 263 0
DWIDTH 6 0
BBX 9 21 -2 -5
BITMAP
00B400
00F800
006400
000000
02B400
01F400
00B400
00B400
00B400
00B400
00B400
00B400
00B400
00B400
00B400
00B400
1BF400
60BE00
90B140
A0E000
2F8000
ENDCHAR
STARTCHAR uni029E
ENCODING 670
SWIDTH 542 0
DWIDTH 13 0
BBX 13 17 0 -5
BITMAP
FFD3FF40
1F80B800
07D07800
01F47800
00BC7800
002E7800
000BF800
000A7800
00287800
00A07800
07C07800
3FF07800
00007800
00007800
00007800
00007800
00007F40
ENDCHAR
STARTCHAR uni029F
ENCODING 671
SWIDTH 440 0
DWIDTH 11 0
BBX 10 12 0 0
BITMAP
7FF000
0F4000
0F4000
0B4000
0B4000
0B4000
0B4000
0B4000
0B4010
0B4030
0F40B0
7FFFE0
ENDCHAR
STARTCHAR uni02A0
ENCODING 672
SWIDTH 541 0
DWIDTH 13 0
BBX 16 23 0 -5
BITMAP
000006F9
00001C2F
0000280A
00003800
00007800
00007800
01BEB800
0741F800
0E00B800
2C007800
3C007800
3C007800
7C007800
3C007800
3D007800
2F40B800
0FFFB800
06F87800
00007800
00007800
00007800
0000B800
000BFF00
ENDCHAR
STARTCHAR uni02A1
ENCODING 673
SWIDTH 393 0
DWIDTH 9 0
BBX 10 18 0 0
BITMAP
06F900
2D0B40
7C03C0
3803C0
0003D0
0003C0
0007C0
000B40
002E00
02A400
078000
078000
7FFD00
078000
078000
0B8000
0B8000
7FF800
ENDCHAR
STARTCHAR uni02A2
ENCODING 674
SWIDTH 393 0
DWIDTH 9 0
BBX 9 18 0 0
BITMAP
06F900
2D0B40
780780
B40740
B40000
B40000
B80000
3C0000
1E0000
02A400
003C00
003C00
0BFF80
003C00
003C00
003C00
007D00
03FF80
ENDCHAR
STARTCHAR uni02A3
ENCODING 675
SWIDTH 830 0
DWIDTH 20 0
BBX 19 17 0 0
BITMAP
0001B80000
0001B80000
0000780000
0000780000
0000780000
01BFBFFFFC
0741F800F8
0E007802F0
2C007807D0
3C00780F80
3C00782F00
7C00787D00
3C0078F800
3D007AF00C
2F40BFD00C
0FFFBF806C
06F87FFFFC
ENDCHAR
STARTCHAR uni02A4
ENCODING 676
SWIDTH 838 0
DWIDTH 20 0
BBX 20 22 0 -5
BITMAP
0001B80000
0001B80000
0000780000
0000780000
0000780000
01BFBFFFFD
0741F800BC
0E007801F4
2C007803E0
3C00780B80
3C00781F00
7C00783D00
3C00787D40
3D007816E0
2F40B800BC
0FFFBD003D
06F87A002E
000000002E
000000002D
00000A003C
00000F81B0
000006EA40
ENDCHAR
STARTCHAR uni02A5
ENCODING 677
SWIDTH 829 0
DWIDTH 20 0
BBX 20 21 0 -4
BITMAP
0001B80000
0001B80000
0000780000
0000780000
0000780000
01BFBFFFFC
0741F800F8
0E007802F0
2C007807D0
3C00780F80
3C00782F00
7C00787D00
3C0078B800
3D0079F0B8
2F40BBD24A
0FFFBF8909
06F87FFFE4
0000002400
0000006000
0000008000
0000004000
ENDCHAR
STARTCHAR uni02A6
ENCODING 678
SWIDTH 614 0
DWIDTH 15 0
BBX 13 16 1 0
BITMAP
04000000
09000000
1D000000
2D000000
BFFFFA40
2D2D0B40
2D2C0240
2D2D0140
2D1F8000
2D07F400
2D00BE00
2D001F80
2D0007C0
2E0003C0
0F801B40
01BFE400
ENDCHAR
STARTCHAR uni02A7
ENCODING 679
SWIDTH 513 0
DWIDTH 12 0
BBX 14 23 1 -5
BITMAP
00002F90
0000A2F0
0401D0A0
0902D000
1D02D000
3D02D000
FFFFD000
2D02D000
2D02D000
2D02D000
2D02D000
2D02D000
2D02D000
2D02D000
2D02D000
2D02D000
2D16D000
0B92D000
0002D000
0002C000
0142C000
07C34000
02FD0000
ENDCHAR
STARTCHAR uni02A8
ENCODING 680
SWIDTH 687 0
DWIDTH 16 0
BBX 15 16 1 0
BITMAP
04000000
09000000
1D000000
3D000000
BFF06F90
2D0281F4
2D0700B8
2D0E0010
2D1E0000
2D1D0000
2D1E0000
2D1F06E0
2D0F6828
2D0BD018
2E0BE024
0BE5BF90
ENDCHAR
STARTCHAR uni02A9
ENCODING 681
SWIDTH 866 0
DWIDTH 21 0
BBX 19 23 0 -5
BITMAP
007E400000
028BC00000
0382800000
0740000000
0740000000
0B40000000
7FFFFE1BD0
0B401F90B4
0B401F0078
0B401E0038
0B401E003C
0B401E003C
0B401E003C
0B401E003C
0B401E003C
0B401E003C
0B801F003C
BFFCBFE03C
000000003C
0000000038
0000005074
000000B9B0
0000006F80
ENDCHAR
STARTCHAR uni02AA
ENCODING 682
SWIDTH 595 0
DWIDTH 14 0
BBX 14 17 0 0
BITMAP
6B000000
6F000000
0F000000
0F000000
0F000000
0F02FE80
0F0B02C0
0F0E00C0
0F0F0080
0F0BD000
0F03F900
0F007F80
0F000BD0
0F0002E0
0F0001D0
0B800780
01BFF900
ENDCHAR
STARTCHAR uni02AB
ENCODING 683
SWIDTH 580 0
DWIDTH 14 0
BBX 13 17 0 0
BITMAP
1B400000
1F400000
0B400000
0B400000
0B400000
0BFFFF80
0B400F40
0B402E00
0B407C00
0B40B400
0B41F000
0B43D000
0B4B8000
0B5F00C0
0B7D01C0
0BF80780
6FFFFF80
ENDCHAR
STARTCHAR uni02AC
ENCODING 684
SWIDTH 599 0
DWIDTH 14 0
BBX 14 17 0 0
BITMAP
BF2FC3F0
2D0B40C0
0E078180
0B4AC200
0388E600
02E0B800
00E07800
00401000
BF2FC3F0
2D0B40D0
1E074180
0F07C240
0B4AD200
0388E600
02E4B900
01F07800
00E03400
ENDCHAR
STARTCHAR uni02AD
ENCODING 685
SWIDTH 479 0
DWIDTH 12 0
BBX 9 16 1 0
BITMAP
7FFF80
7FFF80
700280
700280
700280
700280
700280
100140
000000
7FFF80
7FFF80
700280
700280
700280
700280
700280
ENDCHAR
STARTCHAR uni02AE
ENCODING 686
SWIDTH 595 0
DWIDTH 14 0
BBX 16 17 -1 -5
BITMAP
7E4006D0
B4D007D0
10B002D0
00B402D0
00B402D0
00B402D0
00B402D0
00B402D0
00B802D0
007C0BD0
003FFAD0
001F92D0
000002D0
000002D0
000002D0
000002E0
000002FD
ENDCHAR
STARTCHAR uni02AF
ENCODING 687
SWIDTH 600 0
DWIDTH 14 0
BBX 18 17 -1 -5
BITMAP
7E4006D000
B4D007D000
10B002D000
00B402D000
00B402D000
00B402D000
00B402D000
00B402D000
00B802D000
007C0BD000
003FFAD000
001F92D000
000002D000
000001D000
000001D050
000000A6F0
0000002FD0
ENDCHAR
STARTCHAR uni02B0
ENCODING 688
SWIDTH 488 0
DWIDTH 12 0
BBX 11 14 0 6
BITMAP
6E0000
1E0000
0E0000
0E0000
0E2F40
0F96D0
0F01E0
0E00E0
0E00E0
0E00E0
0E00E0
0E00E0
0F00F0
7FC7FC
ENDCHAR
STARTCHAR uni02B1
ENCODING 689
SWIDTH 488 0
DWIDTH 12 0
BBX 11 15 0 6
BITMAP
00AA00
030B80
0A0140
0E0000
0E0000
0E2F40
0F96D0
0F01E0
0E00E0
0E00E0
0E00E0
0E00E0
0E00E0
0F00F0
7FC7FC
ENDCHAR
STARTCHAR uni02B2
ENCODING 690
SWIDTH 222 0
DWIDTH 5 0
BBX 6 18 -2 2
BITMAP
00E0
01F0
0000
0000
06F0
00F0
00F0
00F0
00F0
00F0
00F0
00F0
00F0
00F0
00E0
10E0
B5D0
7F40
ENDCHAR
STARTCHAR uni02B3
ENCODING 691
SWIDTH 325 0
DWIDTH 8 0
BBX 8 10 0 6
BITMAP
6E2D
0EAD
0F40
0E00
0E00
0E00
0E00
0E00
0F00
7FD0
ENDCHAR
STARTCHAR uni02B4
ENCODING 692
SWIDTH 325 0
DWIDTH 8 0
BBX 8 10 0 6
BITMAP
07FD
00B4
00B0
00B0
00B0
00B0
00B0
00F0
7AB4
78B9
ENDCHAR
STARTCHAR uni02B5
ENCODING 693
SWIDTH 325 0
DWIDTH 8 0
BBX 10 13 0 3
BITMAP
07FD00
00B400
00B000
00B000
00B000
00B000
00B000
00F000
7AB000
787000
007000
003490
001A90
ENDCHAR
STARTCHAR uni02B6
ENCODING 694
SWIDTH 443 0
DWIDTH 11 0
BBX 11 10 0 6
BITMAP
7FD1F4
0F03C0
0E0B40
0E1E00
0E2C00
0FB800
0E0740
0E03C0
0E0780
2FAE00
ENDCHAR
STARTCHAR uni02B7
ENCODING 695
SWIDTH 653 0
DWIDTH 16 0
BBX 16 10 0 6
BITMAP
FF1FE0BE
2D03C024
1D02D030
0F02E060
0B46F090
0789B4C0
03CC7980
01E83E00
00F41E00
00A00D00
ENDCHAR
STARTCHAR uni02B8
ENCODING 696
SWIDTH 427 0
DWIDTH 10 0
BBX 10 14 0 2
BITMAP
BF47F0
2D01C0
1E0180
0F0240
078200
03C500
02D800
00E800
00B400
007000
00A000
00C000
7A4000
7D0000
ENDCHAR
STARTCHAR uni02B9
ENCODING 697
SWIDTH 296 0
DWIDTH 7 0
BBX 5 8 1 9
BITMAP
0740
0B40
0F00
1D00
2C00
3400
7000
1000
ENDCHAR
STARTCHAR uni02BA
ENCODING 698
SWIDTH 456 0
DWIDTH 11 0
BBX 9 8 1 9
BITMAP
074700
0B4F40
0F1E00
1D2D00
2C2800
343400
706000
101000
ENDCHAR
STARTCHAR uni02BB
ENCODING 699
SWIDTH 245 0
DWIDTH 6 0
BBX 4 6 1 11
BITMAP
09
34
60
B9
BE
2D
ENDCHAR
STARTCHAR uni02BC
ENCODING 700
SWIDTH 244 0
DWIDTH 6 0
BBX 4 6 1 12
BITMAP
68
BD
BD
0D
1C
60
ENDCHAR
STARTCHAR uni02BD
ENCODING 701
SWIDTH 244 0
DWIDTH 6 0
BBX 4 6 1 12
BITMAP
29
7E
BD
60
30
19
ENDCHAR
STARTCHAR uni02BE
ENCODING 702
SWIDTH 203 0
DWIDTH 5 0
BBX 5 5 0 12
BITMAP
7900
0700
0340
0700
7900
ENDCHAR
STARTCHAR uni02BF
ENCODING 703
SWIDTH 203 0
DWIDTH 5 0
BBX 4 5 0 12
BITMAP
1F
74
70
74
1B
ENDCHAR
STARTCHAR uni02C0
ENCODING 704
SWIDTH 364 0
DWIDTH 9 0
BBX 7 9 1 9
BITMAP
2F90
B4B4
A038
003C
0038
00B4
06D0
1E00
1D00
ENDCHAR
STARTCHAR uni02C1
ENCODING 705
SWIDTH 364 0
DWIDTH 9 0
BBX 7 9 1 9
BITMAP
1FD0
74B8
F038
E000
F000
B400
2D40
02C0
02C0
ENDCHAR
STARTCHAR uni02C2
ENCODING 706
SWIDTH 324 0
DWIDTH 8 0
BBX 6 8 1 10
BITMAP
00B0
07D0
2E00
F400
7D00
0790
00B0
0010
ENDCHAR
STARTCHAR uni02C3
ENCODING 707
SWIDTH 324 0
DWIDTH 8 0
BBX 6 8 1 10
BITMAP
D000
7900
0B80
01F0
0790
7D00
E000
4000
ENDCHAR
STARTCHAR uni02C4
ENCODING 708
SWIDTH 324 0
DWIDTH 8 0
BBX 8 6 0 12
BITMAP
0280
07C0
0EA0
2C34
342C
A00E
ENDCHAR
STARTCHAR uni02C5
ENCODING 709
SWIDTH 324 0
DWIDTH 8 0
BBX 8 6 0 12
BITMAP
A00E
341C
2C34
0DA0
07C0
0280
ENDCHAR
STARTCHAR circumflex
ENCODING 710
SWIDTH 342 0
DWIDTH 8 0
BBX 7 4 1 13
BITMAP
0F40
2EC0
74A0
D024
ENDCHAR
STARTCHAR caron
ENCODING 711
SWIDTH 342 0
DWIDTH 8 0
BBX 7 4 1 13
BITMAP
D024
74A0
2EC0
0F40
ENDCHAR
STARTCHAR uni02C8
ENCODING 712
SWIDTH 284 0
DWIDTH 7 0
BBX 1 7 3 11
BITMAP
C0
C0
C0
C0
C0
C0
C0
ENDCHAR
STARTCHAR uni02C9
ENCODING 713
SWIDTH 350 0
DWIDTH 8 0
BBX 8 1 0 14
BITMAP
7FFE
ENDCHAR
STARTCHAR uni02CA
ENCODING 714
SWIDTH 222 0
DWIDTH 5 0
BBX 4 4 1 13
BITMAP
2E
78
B0
C0
ENDCHAR
STARTCHAR uni02CB
ENCODING 715
SWIDTH 222 0
DWIDTH 5 0
BBX 5 4 0 13
BITMAP
7C00
1E00
0B00
0240
ENDCHAR
STARTCHAR uni02CC
ENCODING 716
SWIDTH 284 0
DWIDTH 7 0
BBX 1 7 3 -5
BITMAP
C0
C0
C0
C0
C0
C0
C0
ENDCHAR
STARTCHAR uni02CD
ENCODING 717
SWIDTH 342 0
DWIDTH 8 0
BBX 8 1 0 -4
BITMAP
BFFF
ENDCHAR
STARTCHAR uni02CE
ENCODING 718
SWIDTH 222 0
DWIDTH 5 0
BBX 5 4 0 -4
BITMAP
7C00
1E00
0B00
0240
ENDCHAR
STARTCHAR uni02CF
ENCODING 719
SWIDTH 223 0
DWIDTH 5 0
BBX 4 4 1 -4
BITMAP
2E
78
B0
C0
ENDCHAR
STARTCHAR uni02D0
ENCODING 720
SWIDTH 341 0
DWIDTH 8 0
BBX 4 11 2 0
BITMAP
BE
7D
3C
28
00
00
00
28
3C
7D
BE
ENDCHAR
STARTCHAR uni02D1
ENCODING 721
SWIDTH 341 0
DWIDTH 8 0
BBX 4 4 2 8
BITMAP
BE
7D
3C
28
ENDCHAR
STARTCHAR uni02D2
ENCODING 722
SWIDTH 341 0
DWIDTH 8 0
BBX 6 7 1 2
BITMAP
7E00
02C0
00D0
00D0
00D0
02C0
7E00
ENDCHAR
STARTCHAR uni02D3
ENCODING 723
SWIDTH 341 0
DWIDTH 8 0
BBX 6 7 1 2
BITMAP
0BD0
2800
7400
7000
7400
2900
0BD0
ENDCHAR
STARTCHAR uni02D4
ENCODING 724
SWIDTH 341 0
DWIDTH 8 0
BBX 6 5 1 4
BITMAP
0600
0600
0600
0600
BFE0
ENDCHAR
STARTCHAR uni02D5
ENCODING 725
SWIDTH 341 0
DWIDTH 8 0
BBX 6 5 1 4
BITMAP
BFE0
0600
0600
0600
0500
ENDCHAR
STARTCHAR uni02D6
ENCODING 726
SWIDTH 341 0
DWIDTH 8 0
BBX 6 5 1 4
BITMAP
0600
0600
7FD0
0600
0600
ENDCHAR
STARTCHAR uni02D7
ENCODING 727
SWIDTH 341 0
DWIDTH 8 0
BBX 6 1 1 6
BITMAP
7FD0
ENDCHAR
STARTCHAR breve
ENCODING 728
SWIDTH 353 0
DWIDTH 8 0
BBX 8 4 0 13
BITMAP
6002
3409
2FFC
0BE4
ENDCHAR
STARTCHAR dotaccent
ENCODING 729
SWIDTH 194 0
DWIDTH 5 0
BBX 3 3 1 14
BITMAP
64
F8
B4
ENDCHAR
STARTCHAR ring
ENCODING 730
SWIDTH 265 0
DWIDTH 6 0
BBX 6 5 0 13
BITMAP
1F80
3490
6060
3490
1F80
ENDCHAR
STARTCHAR ogonek
ENCODING 731
SWIDTH 277 0
DWIDTH 7 0
BBX 6 7 0 -6
BITMAP
0100
0900
2800
3400
7850
2F80
0400
ENDCHAR
STARTCHAR tilde
ENCODING 732
SWIDTH 381 0
DWIDTH 9 0
BBX 8 3 1 13
BITMAP
2905
BF48
86F4
ENDCHAR
STARTCHAR hungarumlaut
ENCODING 733
SWIDTH 350 0
DWIDTH 8 0
BBX 7 4 1 13
BITMAP
3DB8
78E0
A2C0
C340
ENDCHAR
STARTCHAR uni02DE
ENCODING 734
SWIDTH 205 0
DWIDTH 5 0
BBX 6 3 -1 5
BITMAP
6810
AC50
0B80
ENDCHAR
STARTCHAR uni02DF
ENCODING 735
SWIDTH 302 0
DWIDTH 7 0
BBX 6 6 1 12
BITMAP
4040
A1D0
2F40
2E00
7780
90D0
ENDCHAR
STARTCHAR uni02E0
ENCODING 736
SWIDTH 413 0
DWIDTH 10 0
BBX 10 14 0 2
BITMAP
FF07F0
2D0180
1E0240
0F0300
0B4600
038800
02D800
01F400
00F000
00F400
01B800
022C00
022C00
01B400
ENDCHAR
STARTCHAR uni02E1
ENCODING 737
SWIDTH 244 0
DWIDTH 6 0
BBX 6 14 0 6
BITMAP
6E00
1E00
0E00
0E00
0E00
0E00
0E00
0E00
0E00
0E00
0E00
0E00
0F00
7FD0
ENDCHAR
STARTCHAR uni02E2
ENCODING 738
SWIDTH 337 0
DWIDTH 8 0
BBX 8 10 0 6
BITMAP
1AA8
341C
3408
3E00
1FD0
06F8
507D
601D
741C
6AA4
ENDCHAR
STARTCHAR uni02E3
ENCODING 739
SWIDTH 445 0
DWIDTH 11 0
BBX 10 10 0 6
BITMAP
7FC7E0
0F4240
078600
02D800
00F400
00B800
029D00
070F40
0D07C0
7E0FF0
ENDCHAR
STARTCHAR uni02E4
ENCODING 740
SWIDTH 364 0
DWIDTH 9 0
BBX 8 14 1 6
BITMAP
0AB8
782E
B01E
F000
F000
F000
7800
1E40
01E0
00E0
00E0
00E0
00F0
0BF9
ENDCHAR
STARTCHAR uni02E5
ENCODING 741
SWIDTH 423 0
DWIDTH 10 0
BBX 9 17 1 0
BITMAP
BFFF00
000340
000340
000340
000340
000340
000340
000340
000340
000340
000340
000340
000340
000340
000340
000340
000100
ENDCHAR
STARTCHAR uni02E6
ENCODING 742
SWIDTH 414 0
DWIDTH 10 0
BBX 8 17 1 0
BITMAP
0007
0007
0007
0007
0007
FFFF
0007
0007
0007
0007
0007
0007
0007
0007
0007
0007
0007
ENDCHAR
STARTCHAR uni02E7
ENCODING 743
SWIDTH 414 0
DWIDTH 10 0
BBX 8 17 1 0
BITMAP
0007
0007
0007
0007
0007
0007
0007
0007
FFFF
0007
0007
0007
0007
0007
0007
0007
0001
ENDCHAR
STARTCHAR uni02E8
ENCODING 744
SWIDTH 414 0
DWIDTH 10 0
BBX 8 17 1 0
BITMAP
0007
0007
0007
0007
0007
0007
0007
0007
0007
0007
0007
FFFF
0007
0007
0007
0007
0001
ENDCHAR
STARTCHAR uni02E9
ENCODING 745
SWIDTH 414 0
DWIDTH 10 0
BBX 8 17 1 0
BITMAP
0007
0007
0007
0007
0007
0007
0007
0007
0007
0007
0007
0007
0007
0007
0007
0007
FFFF
ENDCHAR
STARTCHAR uni02EC
ENCODING 748
SWIDTH 341 0
DWIDTH 8 0
BBX 8 6 0 -4
BITMAP
6409
382C
1D34
0BB0
03D0
0280
ENDCHAR
STARTCHAR uni02ED
ENCODING 749
SWIDTH 380 0
DWIDTH 9 0
BBX 8 4 1 14
BITMAP
FFFD
0000
0000
FFFD
ENDCHAR
STARTCHAR uni02F7
ENCODING 759
SWIDTH 381 0
DWIDTH 9 0
BBX 8 3 1 -4
BITMAP
2905
BF48
86F4
ENDCHAR
STARTCHAR uni0300
ENCODING 768
SWIDTH 0 0
DWIDTH 0 0
BBX 4 4 -8 13
BITMAP
F4
78
1C
0A
ENDCHAR
STARTCHAR uni0301
ENCODING 769
SWIDTH 0 0
DWIDTH 0 0
BBX 4 4 -7 13
BITMAP
1F
2D
74
A0
ENDCHAR
STARTCHAR uni0302
ENCODING 770
SWIDTH 0 0
DWIDTH 0 0
BBX 7 4 -9 13
BITMAP
0B80
1ED0
34B0
A028
ENDCHAR
STARTCHAR uni0303
ENCODING 771
SWIDTH 0 0
DWIDTH 0 0
BBX 8 3 -9 13
BITMAP
2905
BF48
86F4
ENDCHAR
STARTCHAR uni0304
ENCODING 772
SWIDTH 0 0
DWIDTH 0 0
BBX 7 1 -9 14
BITMAP
FFFC
ENDCHAR
STARTCHAR uni0305
ENCODING 773
SWIDTH 0 0
DWIDTH 0 0
BBX 10 1 -10 14
BITMAP
BFFFF0
ENDCHAR
STARTCHAR uni0306
ENCODING 774
SWIDTH 0 0
DWIDTH 0 0
BBX 7 4 -9 13
BITMAP
C008
9028
7FF4
1F90
ENDCHAR
STARTCHAR uni0307
ENCODING 775
SWIDTH 0 0
DWIDTH 0 0
BBX 3 3 -7 14
BITMAP
64
F8
74
ENDCHAR
STARTCHAR uni0308
ENCODING 776
SWIDTH 0 0
DWIDTH 0 0
BBX 9 3 -10 14
BITMAP
280A00
7C1F40
780B00
ENDCHAR
STARTCHAR uni0309
ENCODING 777
SWIDTH 0 0
DWIDTH 0 0
BBX 5 5 -8 13
BITMAP
2F40
72C0
02C0
0240
0C00
ENDCHAR
STARTCHAR uni030A
ENCODING 778
SWIDTH 0 0
DWIDTH 0 0
BBX 5 5 -8 13
BITMAP
2E00
9180
C0C0
9180
2E00
ENDCHAR
STARTCHAR uni030B
ENCODING 779
SWIDTH 0 0
DWIDTH 0 0
BBX 7 4 -8 13
BITMAP
1F7C
2DB4
74E0
A180
ENDCHAR
STARTCHAR uni030C
ENCODING 780
SWIDTH 0 0
DWIDTH 0 0
BBX 7 4 -9 13
BITMAP
A028
3470
1ED0
0B80
ENDCHAR
STARTCHAR uni030D
ENCODING 781
SWIDTH 0 0
DWIDTH 0 0
BBX 2 5 -7 13
BITMAP
70
70
70
70
70
ENDCHAR
STARTCHAR uni030E
ENCODING 782
SWIDTH 0 0
DWIDTH 0 0
BBX 5 5 -8 13
BITMAP
D2C0
D2C0
D2C0
D2C0
D2C0
ENDCHAR
STARTCHAR uni030F
ENCODING 783
SWIDTH 0 0
DWIDTH 0 0
BBX 7 4 -10 13
BITMAP
F7D0
79E0
2C70
0928
ENDCHAR
STARTCHAR uni0310
ENCODING 784
SWIDTH 0 0
DWIDTH 0 0
BBX 7 6 -9 13
BITMAP
0640
0B80
C74C
9028
7FF4
1F90
ENDCHAR
STARTCHAR uni0311
ENCODING 785
SWIDTH 0 0
DWIDTH 0 0
BBX 7 4 -9 13
BITMAP
1B90
6074
8018
4004
ENDCHAR
STARTCHAR uni0312
ENCODING 786
SWIDTH 0 0
DWIDTH 0 0
BBX 3 6 -7 13
BITMAP
04
60
C0
E4
FC
B8
ENDCHAR
STARTCHAR uni0313
ENCODING 787
SWIDTH 0 0
DWIDTH 0 0
BBX 3 6 -7 13
BITMAP
64
FC
BC
1C
24
90
ENDCHAR
STARTCHAR uni0314
ENCODING 788
SWIDTH 0 0
DWIDTH 0 0
BBX 3 6 -7 13
BITMAP
64
FC
F8
C0
60
18
ENDCHAR
STARTCHAR uni0315
ENCODING 789
SWIDTH 0 0
DWIDTH 0 0
BBX 3 5 -6 12
BITMAP
B4
B4
B0
A0
80
ENDCHAR
STARTCHAR uni0316
ENCODING 790
SWIDTH 0 0
DWIDTH 0 0
BBX 4 4 -8 -5
BITMAP
F4
78
1C
0A
ENDCHAR
STARTCHAR uni0317
ENCODING 791
SWIDTH 0 0
DWIDTH 0 0
BBX 5 4 -7 -5
BITMAP
0F40
1E00
3800
6000
ENDCHAR
STARTCHAR uni0318
ENCODING 792
SWIDTH 0 0
DWIDTH 0 0
BBX 4 5 -8 -6
BITMAP
02
02
7F
02
02
ENDCHAR
STARTCHAR uni0319
ENCODING 793
SWIDTH 0 0
DWIDTH 0 0
BBX 5 5 -8 -6
BITMAP
6000
6000
7F40
6000
6000
ENDCHAR
STARTCHAR uni031A
ENCODING 794
SWIDTH 0 0
DWIDTH 0 0
BBX 5 5 -8 12
BITMAP
FFC0
01C0
01C0
01C0
0040
ENDCHAR
STARTCHAR uni031B
ENCODING 795
SWIDTH 0 0
DWIDTH 0 0
BBX 5 5 -5 11
BITMAP
0100
0780
0380
0280
7E00
ENDCHAR
STARTCHAR uni031C
ENCODING 796
SWIDTH 0 0
DWIDTH 0 0
BBX 4 5 -8 -6
BITMAP
1E
70
60
34
1E
ENDCHAR
STARTCHAR uni031D
ENCODING 797
SWIDTH 0 0
DWIDTH 0 0
BBX 5 4 -8 -5
BITMAP
0800
0C00
0C00
FF80
ENDCHAR
STARTCHAR uni031E
ENCODING 798
SWIDTH 0 0
DWIDTH 0 0
BBX 5 4 -8 -5
BITMAP
BF80
0C00
0C00
0C00
ENDCHAR
STARTCHAR uni031F
ENCODING 799
SWIDTH 0 0
DWIDTH 0 0
BBX 5 5 -8 -6
BITMAP
0C00
0C00
BF80
0C00
0C00
ENDCHAR
STARTCHAR uni0320
ENCODING 800
SWIDTH 0 0
DWIDTH 0 0
BBX 5 1 -8 -4
BITMAP
BF80
ENDCHAR
STARTCHAR uni0321
ENCODING 801
SWIDTH 0 0
DWIDTH 0 0
BBX 8 7 -11 -6
BITMAP
0014
002D
002D
002D
242C
7D34
2FE0
ENDCHAR
STARTCHAR uni0322
ENCODING 802
SWIDTH 0 0
DWIDTH 0 0
BBX 7 7 -6 -6
BITMAP
5000
B400
B400
7400
7428
28BC
0BF4
ENDCHAR
STARTCHAR uni0323
ENCODING 803
SWIDTH 0 0
DWIDTH 0 0
BBX 3 3 -7 -4
BITMAP
64
F8
74
ENDCHAR
STARTCHAR uni0324
ENCODING 804
SWIDTH 0 0
DWIDTH 0 0
BBX 9 3 -10 -4
BITMAP
280A00
7C1F40
780B00
ENDCHAR
STARTCHAR uni0325
ENCODING 805
SWIDTH 0 0
DWIDTH 0 0
BBX 5 5 -8 -6
BITMAP
2E00
9180
C0C0
9180
2E00
ENDCHAR
STARTCHAR uni0326
ENCODING 806
SWIDTH 0 0
DWIDTH 0 0
BBX 3 6 -7 -7
BITMAP
64
FC
BC
1C
24
90
ENDCHAR
STARTCHAR uni0327
ENCODING 807
SWIDTH 0 0
DWIDTH 0 0
BBX 5 6 -8 -5
BITMAP
0400
1400
2F40
0280
0280
6E00
ENDCHAR
STARTCHAR uni0328
ENCODING 808
SWIDTH 0 0
DWIDTH 0 0
BBX 5 6 -8 -6
BITMAP
1800
7000
A000
F040
7F40
0400
ENDCHAR
STARTCHAR uni0329
ENCODING 809
SWIDTH 0 0
DWIDTH 0 0
BBX 2 4 -7 -6
BITMAP
70
70
70
70
ENDCHAR
STARTCHAR uni032A
ENCODING 810
SWIDTH 0 0
DWIDTH 0 0
BBX 7 3 -9 -4
BITMAP
7FF4
9024
5014
ENDCHAR
STARTCHAR uni032B
ENCODING 811
SWIDTH 0 0
DWIDTH 0 0
BBX 9 3 -10 -4
BITMAP
60C240
31C300
1E6D00
ENDCHAR
STARTCHAR uni032C
ENCODING 812
SWIDTH 0 0
DWIDTH 0 0
BBX 7 4 -9 -5
BITMAP
A028
3470
1ED0
0B80
ENDCHAR
STARTCHAR uni032D
ENCODING 813
SWIDTH 0 0
DWIDTH 0 0
BBX 7 4 -9 -5
BITMAP
0B80
1ED0
34B0
A028
ENDCHAR
STARTCHAR uni032E
ENCODING 814
SWIDTH 0 0
DWIDTH 0 0
BBX 7 4 -9 -5
BITMAP
C008
9028
7FF4
1F90
ENDCHAR
STARTCHAR uni032F
ENCODING 815
SWIDTH 0 0
DWIDTH 0 0
BBX 7 4 -9 -5
BITMAP
1A90
7FF4
A028
C008
ENDCHAR
STARTCHAR uni0330
ENCODING 816
SWIDTH 0 0
DWIDTH 0 0
BBX 8 3 -10 -4
BITMAP
1A01
3FD2
51B8
ENDCHAR
STARTCHAR uni0331
ENCODING 817
SWIDTH 0 0
DWIDTH 0 0
BBX 7 1 -9 -3
BITMAP
FFFC
ENDCHAR
STARTCHAR uni0332
ENCODING 818
SWIDTH 0 0
DWIDTH 0 0
BBX 13 1 -12 -3
BITMAP
BFFFFF80
ENDCHAR
STARTCHAR uni0333
ENCODING 819
SWIDTH 0 0
DWIDTH 0 0
BBX 13 4 -12 -6
BITMAP
BFFFFF80
00000000
00000000
BFFFFF80
ENDCHAR
STARTCHAR uni0334
ENCODING 820
SWIDTH 0 0
DWIDTH 0 0
BBX 9 2 -10 5
BITMAP
2F9240
51BD00
ENDCHAR
STARTCHAR uni0335
ENCODING 821
SWIDTH 0 0
DWIDTH 0 0
BBX 9 1 -10 6
BITMAP
7FFF40
ENDCHAR
STARTCHAR uni0336
ENCODING 822
SWIDTH 0 0
DWIDTH 0 0
BBX 13 1 -12 6
BITMAP
BFFFFF80
ENDCHAR
STARTCHAR uni0337
ENCODING 823
SWIDTH 0 0
DWIDTH 0 0
BBX 7 6 -9 6
BITMAP
0004
0074
0290
0A00
7400
4000
ENDCHAR
STARTCHAR uni0338
ENCODING 824
SWIDTH 0 0
DWIDTH 0 0
BBX 10 21 -10 -4
BITMAP
000050
0000D0
0001C0
000340
000700
000A00
000D00
002800
003400
007000
00D000
01C000
028000
034000
0A0000
0D0000
1C0000
340000
700000
A00000
D00000
ENDCHAR
STARTCHAR uni0339
ENCODING 825
SWIDTH 0 0
DWIDTH 0 0
BBX 4 5 -7 -6
BITMAP
B4
1C
09
1C
A4
ENDCHAR
STARTCHAR uni033A
ENCODING 826
SWIDTH 0 0
DWIDTH 0 0
BBX 7 3 -9 -4
BITMAP
9024
9024
7FF4
ENDCHAR
STARTCHAR uni033B
ENCODING 827
SWIDTH 0 0
DWIDTH 0 0
BBX 5 4 -8 -6
BITMAP
BF80
9180
9180
BF80
ENDCHAR
STARTCHAR uni033C
ENCODING 828
SWIDTH 0 0
DWIDTH 0 0
BBX 7 3 -9 -5
BITMAP
B9B8
4B44
0200
ENDCHAR
STARTCHAR uni033D
ENCODING 829
SWIDTH 0 0
DWIDTH 0 0
BBX 5 5 -8 13
BITMAP
4040
6240
2D00
2B00
9180
ENDCHAR
STARTCHAR uni033E
ENCODING 830
SWIDTH 0 0
DWIDTH 0 0
BBX 3 9 -7 12
BITMAP
04
24
A0
A0
74
38
28
34
50
ENDCHAR
STARTCHAR uni033F
ENCODING 831
SWIDTH 0 0
DWIDTH 0 0
BBX 11 4 -11 13
BITMAP
7FFFF4
000000
000000
7FFFF4
ENDCHAR
STARTCHAR uni0346
ENCODING 838
SWIDTH 0 0
DWIDTH 0 0
BBX 7 4 -9 12
BITMAP
FFFC
D01C
D01C
4014
ENDCHAR
STARTCHAR uni0347
ENCODING 839
SWIDTH 0 0
DWIDTH 0 0
BBX 9 4 -10 -5
BITMAP
7FFF40
000000
000000
7FFF40
ENDCHAR
STARTCHAR uni034C
ENCODING 844
SWIDTH 0 0
DWIDTH 0 0
BBX 8 6 -9 13
BITMAP
2905
BF48
86F4
2905
BF48
86F4
ENDCHAR
STARTCHAR uni034D
ENCODING 845
SWIDTH 0 0
DWIDTH 0 0
BBX 11 5 -11 -7
BITMAP
080080
740060
FFFFFC
740074
080080
ENDCHAR
STARTCHAR uni0359
ENCODING 857
SWIDTH 0 0
DWIDTH 0 0
BBX 7 8 -9 -9
BITMAP
0300
E328
BAB8
0B40
BAB4
E328
0700
0300
ENDCHAR
STARTCHAR uni035C
ENCODING 860
SWIDTH 0 0
DWIDTH 0 0
BBX 16 4 -8 -6
BITMAP
80000002
9000000A
2E4001B8
06BFFE90
ENDCHAR
STARTCHAR uni0360
ENCODING 864
SWIDTH 0 0
DWIDTH 0 0
BBX 12 3 -6 13
BITMAP
2F9001
907906
4006F8
ENDCHAR
STARTCHAR uni0361
ENCODING 865
SWIDTH 0 0
DWIDTH 0 0
BBX 12 5 -6 13
BITMAP
06AA90
2FFFF4
79006D
900006
400001
ENDCHAR
STARTCHAR uni0362
ENCODING 866
SWIDTH 0 0
DWIDTH 0 0
BBX 19 5 -9 -7
BITMAP
0000000100
00000000D0
FFFFFFFFF4
00000000D0
0000000100
ENDCHAR
STARTCHAR uni037E
ENCODING 894
SWIDTH 261 0
DWIDTH 6 0
BBX 4 16 1 -4
BITMAP
2D
3E
2D
00
00
00
00
00
00
29
7F
3F
07
0A
28
10
ENDCHAR
STARTCHAR tonos
ENCODING 900
SWIDTH 165 0
DWIDTH 4 0
BBX 4 4 0 13
BITMAP
3D
38
74
70
ENDCHAR
STARTCHAR dieresistonos
ENCODING 901
SWIDTH 426 0
DWIDTH 10 0
BBX 9 4 1 13
BITMAP
02E000
F2CF40
F28B40
034000
ENDCHAR
STARTCHAR Alphatonos
ENCODING 902
SWIDTH 718 0
DWIDTH 17 0
BBX 17 16 0 0
BITMAP
1E01D00000
2D02E00000
2803F00000
240AF80000
000D7C0000
001C3D0000
00282E0000
00741F4000
00A00F8000
00D00BC000
01FFFFE000
038002F000
070001F400
0A0000FC00
1E0000BE00
FFC007FFC0
ENDCHAR
STARTCHAR anoteleia
ENCODING 903
SWIDTH 261 0
DWIDTH 6 0
BBX 3 3 2 9
BITMAP
B4
F8
B4
ENDCHAR
STARTCHAR Epsilontonos
ENCODING 904
SWIDTH 745 0
DWIDTH 18 0
BBX 18 16 -1 0
BITMAP
3D6FFFFFD0
3807D005D0
7403D00090
6003D00000
0003D00600
0003D00600
0003D00A00
0003FFFE00
0003D00A00
0003D00600
0003D00000
0003D00020
0003D00030
0003D000B0
0007D006E0
006FFFFFE0
ENDCHAR
STARTCHAR Etatonos
ENCODING 905
SWIDTH 896 0
DWIDTH 22 0
BBX 22 16 -1 0
BITMAP
3D7FFE07FFE0
3807E0007E00
7403D0003D00
6003D0003D00
0003D0003D00
0003D0003D00
0003D0003D00
0003FFFFFD00
0003D0003D00
0003D0003D00
0003D0003D00
0003D0003D00
0003D0003D00
0003D0003D00
0007E0007E00
007FFE07FFE0
ENDCHAR
STARTCHAR Iotatonos
ENCODING 906
SWIDTH 478 0
DWIDTH 11 0
BBX 12 16 -1 0
BITMAP
3D7FFE
3807E0
7403D0
6003D0
0003D0
0003D0
0003D0
0003D0
0003D0
0003D0
0003D0
0003D0
0003D0
0003D0
0007E0
007FFE
ENDCHAR
STARTCHAR Omicrontonos
ENCODING 908
SWIDTH 806 0
DWIDTH 19 0
BBX 19 16 -1 0
BITMAP
3D006FE400
3807D01F40
741F0007D0
603D0001F0
007C0000F8
00F80000BC
00F40000BC
00F400007C
00F400007C
00F400007C
00F80000B8
00BC0000F4
003D0001F0
001F0002D0
0007D01F40
00006FE400
ENDCHAR
STARTCHAR Upsilontonos
ENCODING 910
SWIDTH 787 0
DWIDTH 19 0
BBX 20 16 -1 0
BITMAP
78BFF807FF
B41FD000B4
A007D000D0
9002F00280
0000F80700
00007D0900
00002F1C00
00000FB400
000007E000
000003D000
000003D000
000003D000
000003D000
000003D000
000007E000
00007FFE00
ENDCHAR
STARTCHAR Omegatonos
ENCODING 911
SWIDTH 830 0
DWIDTH 20 0
BBX 20 16 -1 0
BITMAP
3D006FE900
3807D01F80
741F4002E0
603D0001F4
007C0000B8
00BC0000BC
00B80000BC
00B80000BC
00BC0000B8
007C0000F4
003E0001F0
011F0002D1
0247800742
01C1D01D0A
01FFF43FFD
01FFF43FFD
ENDCHAR
STARTCHAR iotadieresistonos
ENCODING 912
SWIDTH 259 0
DWIDTH 6 0
BBX 9 17 -2 0
BITMAP
00B400
3CB3C0
7CE3C0
00C000
000000
01F000
01E000
01E000
01D000
01D000
01D000
01C000
01C000
01C000
01D000
01FB00
00B900
ENDCHAR
STARTCHAR Alpha
ENCODING 913
SWIDTH 718 0
DWIDTH 17 0
BBX 17 16 0 0
BITMAP
0001D00000
0002E00000
0003F00000
000AF80000
000D7C0000
001C3D0000
00282E0000
00741F4000
00A00F8000
00D00BC000
01FFFFE000
038002F000
070001F400
0A0000FC00
1E0000BE00
FFC007FFC0
ENDCHAR
STARTCHAR Beta
ENCODING 914
SWIDTH 618 0
DWIDTH 15 0
BBX 13 16 1 0
BITMAP
BFFFE400
0F407D00
0F402F00
0B401F40
0B401F00
0B401E00
0B407800
0BFFD000
0B407D00
0B401F40
0B400B80
0B400BC0
0B400BC0
0F400F80
0F406E00
BFFFE400
ENDCHAR
STARTCHAR Gamma
ENCODING 915
SWIDTH 569 0
DWIDTH 14 0
BBX 12 16 1 0
BITMAP
BFFFFF
0F405B
0F4003
0B4002
0B4001
0B4000
0B4000
0B4000
0B4000
0B4000
0B4000
0B4000
0B4000
0F4000
1F8000
FFF800
ENDCHAR
STARTCHAR Delta
ENCODING 916
SWIDTH 667 0
DWIDTH 16 0
BBX 15 16 0 0
BITMAP
00028000
0003C000
000BE000
000EF000
0018F400
0034BC00
00703D00
00902E00
01C01F00
02800F80
03000BC0
0A0003D0
0D0002F0
280001F4
3FFFFFF8
7FFFFFFC
ENDCHAR
STARTCHAR Epsilon
ENCODING 917
SWIDTH 626 0
DWIDTH 15 0
BBX 14 16 1 0
BITMAP
BFFFFF40
0F401780
0F400180
0B400040
0B400800
0B401800
0B402800
0BFFF800
0B402800
0B400800
0B400000
0B400090
0B4000C0
0F4001C0
0F4017C0
BFFFFF80
ENDCHAR
STARTCHAR Zeta
ENCODING 918
SWIDTH 594 0
DWIDTH 14 0
BBX 14 16 0 0
BITMAP
1FFFFFD0
1E000F80
18002F00
24007D00
0000F800
0002F000
0007D000
000F8000
002F0000
007D0000
00F80000
02F00010
07D00050
0F8000D0
2F0002C0
7FFFFFC0
ENDCHAR
STARTCHAR Eta
ENCODING 919
SWIDTH 777 0
DWIDTH 19 0
BBX 17 16 1 0
BITMAP
FFF80FFF80
1F8001F800
0F4000B400
0B4000B400
0B4000B400
0B4000B400
0B4000B400
0BFFFFF400
0B4000B400
0B4000B400
0B4000B400
0B4000B400
0B4000B400
0F4000B400
1F8000F800
FFF80FFF80
ENDCHAR
STARTCHAR Theta
ENCODING 920
SWIDTH 738 0
DWIDTH 18 0
BBX 16 16 1 0
BITMAP
006FF900
02E41B80
0F4002E0
2E0000F4
3D0000B8
7C20087C
BC20087D
B83FF83D
BC3FF83D
BC20087D
7C00007D
3D0000BC
2E0000F4
0F4002E0
02E41B80
006FE900
ENDCHAR
STARTCHAR Iota
ENCODING 921
SWIDTH 357 0
DWIDTH 9 0
BBX 8 16 0 0
BITMAP
7FFE
07E0
03D0
02D0
02D0
02D0
02D0
02D0
02D0
02D0
02D0
02D0
02D0
03D0
07E0
7FFE
ENDCHAR
STARTCHAR Kappa
ENCODING 922
SWIDTH 702 0
DWIDTH 17 0
BBX 17 16 0 0
BITMAP
7FFE1FFE00
07E003E000
03D0078000
02D00E0000
02D0740000
02D1D00000
02D7400000
02EE000000
02EF400000
02D7D00000
02D1F80000
02D07E0000
02D01F8000
03D007E000
07E003F800
7FFE1FFF80
ENDCHAR
STARTCHAR Lambda
ENCODING 923
SWIDTH 710 0
DWIDTH 17 0
BBX 17 16 0 0
BITMAP
0001C00000
0002D00000
0007F00000
000AF40000
000CB80000
00187D0000
00242E0000
00701F0000
00A00F4000
00D00BC000
018007D000
034002E000
070001F400
0A0000F800
1E0000FD00
FFC007FFC0
ENDCHAR
STARTCHAR Mu
ENCODING 924
SWIDTH 895 0
DWIDTH 21 0
BBX 21 16 0 0
BITMAP
7FE00001FF40
07F40002F800
03F80007F400
03BC000AF400
037D000DF400
032F001CF400
031F4034F400
030B8070F400
0307C0A0F400
0303E0D0F400
0301F280F400
0300F740F400
0300BF00F400
03407E00F400
07802C01F800
7FF4180FFF40
ENDCHAR
STARTCHAR Nu
ENCODING 925
SWIDTH 742 0
DWIDTH 18 0
BBX 17 16 0 0
BITMAP
7FD001FFC0
0BF0002E00
03F8001C00
03BD001C00
036F401C00
030FC01C00
0307E01C00
0302F41C00
0300BD1C00
03003F1C00
03001F9C00
030007EC00
030002FC00
034000BC00
0B80003C00
7FF4001C00
ENDCHAR
STARTCHAR Xi
ENCODING 926
SWIDTH 648 0
DWIDTH 16 0
BBX 14 16 1 0
BITMAP
7FFFFFC0
7FFFFFC0
740001C0
500000C0
00000000
02000800
03001800
03FFF800
03FFF800
03402800
02000800
00000000
80000050
A40001D0
BFFFFFD0
BFFFFFD0
ENDCHAR
STARTCHAR Omicron
ENCODING 927
SWIDTH 738 0
DWIDTH 18 0
BBX 16 16 1 0
BITMAP
006FE900
02E01B80
0F4002E0
2E0000F4
3D0000BC
7C00007D
B800003D
B800003D
B800003D
BC00003D
7C00007C
3D0000B8
2E0000F4
0F4002E0
02E00B80
006FF900
ENDCHAR
STARTCHAR Pi
ENCODING 928
SWIDTH 759 0
DWIDTH 18 0
BBX 17 16 1 0
BITMAP
BFFFFFFE40
0F4001F400
0F4001F000
0B4001F000
0B4001F000
0B4001F000
0B4001F000
0B4001F000
0B4001F000
0B4001F000
0B4001F000
0B4001F000
0B4001F000
0F4001F000
0F8001F400
FFF81FFF40
ENDCHAR
STARTCHAR Rho
ENCODING 929
SWIDTH 569 0
DWIDTH 14 0
BBX 12 16 1 0
BITMAP
BFFFA0
0F41BD
0B402E
0B401F
0B401F
0B401F
0B402D
0B41B8
0BFE90
0B4000
0B4000
0B4000
0B4000
0F4000
1F8000
FFF800
ENDCHAR
STARTCHAR Sigma
ENCODING 931
SWIDTH 604 0
DWIDTH 15 0
BBX 14 16 0 0
BITMAP
7FFFFFC0
2F4007C0
0BD001C0
02F000C0
00F80000
007E0000
001F4000
000B8000
000A0000
002C0000
00700000
01D00020
034000A0
0A0001D0
2FFFFFD0
7FFFFFC0
ENDCHAR
STARTCHAR Tau
ENCODING 932
SWIDTH 603 0
DWIDTH 14 0
BBX 14 16 0 0
BITMAP
7FFFFFF0
740F40B0
A00F4030
900F4020
000F4000
000F4000
000F4000
000F4000
000F4000
000F4000
000F4000
000F4000
000F4000
000F4000
001F8000
01FFF800
ENDCHAR
STARTCHAR Upsilon
ENCODING 933
SWIDTH 647 0
DWIDTH 16 0
BBX 16 16 0 0
BITMAP
FFF40BFE
2F8000E0
0BC001C0
03E00340
01F40A00
00BC0C00
003E2800
001F7000
000BD000
0007C000
0007C000
0007C000
0007C000
0007C000
000BD000
00BFFD00
ENDCHAR
STARTCHAR Phi
ENCODING 934
SWIDTH 718 0
DWIDTH 17 0
BBX 16 16 1 0
BITMAP
00BFFC00
000BC000
000B8000
06FFFE40
2E4B86F4
B80B80BC
F40B807D
F40B803D
F40B803D
F80B807C
BC0B80B8
2F4B86E0
06BFFA40
000B8000
000BC000
00BFFC00
ENDCHAR
STARTCHAR Chi
ENCODING 935
SWIDTH 664 0
DWIDTH 16 0
BBX 16 16 0 0
BITMAP
BFFC0BFE
0BE002E0
02F00380
01F80700
007C1D00
002E3400
001FA000
0007C000
0007E000
001DF400
00347D00
00A02E00
02C01F80
07400BD0
1F0007F4
FFD02FFE
ENDCHAR
STARTCHAR Psi
ENCODING 936
SWIDTH 720 0
DWIDTH 17 0
BBX 17 16 0 0
BITMAP
B42FFF06C0
2D02F00F00
1E01E01E00
1F01E02E00
1E01E02E00
1E01E01E00
1F01E02E00
1F01E02D00
0B81E07C00
02E1E1F000
006FFE4000
0001E00000
0001E00000
0001E00000
0002F00000
002FFF0000
ENDCHAR
STARTCHAR Omega
ENCODING 937
SWIDTH 777 0
DWIDTH 19 0
BBX 17 16 1 0
BITMAP
001BF90000
01F407D000
0B8001F400
1F40007C00
2E00003D00
3E00003E00
3E00002E00
3E00003E00
3E00003E00
2F00007D00
0F4000B800
478000F000
82D002D140
A0740B4740
BFFC1FFF40
7FFC1FFF00
ENDCHAR
STARTCHAR Iotadieresis
ENCODING 938
SWIDTH 357 0
DWIDTH 9 0
BBX 9 20 0 0
BITMAP
640A00
BC1F40
780E00
000000
7FFE00
07E000
03D000
02D000
02D000
02D000
02D000
02D000
02D000
02D000
02D000
02D000
02D000
03D000
07E000
7FFE00
ENDCHAR
STARTCHAR Upsilondieresis
ENCODING 939
SWIDTH 647 0
DWIDTH 16 0
BBX 16 20 0 0
BITMAP
00640A00
00B81F00
00741E00
00000000
FFF40BFE
2F8000E0
0BC001C0
03E00340
01F40A00
00BC0C00
003E2800
001F7000
000BD000
0007C000
0007C000
0007C000
0007C000
0007C000
000BD000
00BFFD00
ENDCHAR
STARTCHAR alphatonos
ENCODING 940
SWIDTH 561 0
DWIDTH 13 0
BBX 14 17 0 0
BITMAP
000F4000
000E0000
001D0000
00180000
00000000
01BD0F80
0BFF5F00
1E46AD00
2800BC00
3000B400
3000B000
7000A000
3001F000
34027000
2D1A3450
1FFC3F80
07E02E00
ENDCHAR
STARTCHAR epsilontonos
ENCODING 941
SWIDTH 381 0
DWIDTH 9 0
BBX 8 17 1 0
BITMAP
00B8
00B4
00A0
0090
0000
0BF9
7FFD
B918
A000
6000
2BD0
2580
A000
E000
F41D
7FFD
1BE4
ENDCHAR
STARTCHAR etatonos
ENCODING 942
SWIDTH 510 0
DWIDTH 12 0
BBX 11 23 0 -6
BITMAP
000780
000740
000B00
000900
000000
2E07D0
BF1FF0
8B7874
036038
039028
038028
078028
074028
0B4028
0B4028
0F4038
0F0038
000038
000078
000074
0000B4
0000F4
000050
ENDCHAR
STARTCHAR iotatonos
ENCODING 943
SWIDTH 259 0
DWIDTH 6 0
BBX 5 17 1 0
BITMAP
1E00
1D00
2C00
2400
0000
7C00
7800
7800
7400
7400
7400
7000
7000
7000
7400
7EC0
2E40
ENDCHAR
STARTCHAR upsilondieresistonos
ENCODING 944
SWIDTH 491 0
DWIDTH 12 0
BBX 11 17 0 0
BITMAP
007C00
2D76D0
2D72E0
00A000
000000
2E0240
BF00D0
8B0070
0B0034
0A0038
0A0038
0D0038
0D0074
0D00B4
0A46E0
07FFC0
02FE00
ENDCHAR
STARTCHAR alpha
ENCODING 945
SWIDTH 561 0
DWIDTH 13 0
BBX 14 12 0 0
BITMAP
01BD0F80
0BFF5F00
1E46AD00
2800BC00
3000B400
3000B000
7000A000
3001F000
34027000
2D1A3450
1FFC3F80
07E02E00
ENDCHAR
STARTCHAR beta
ENCODING 946
SWIDTH 530 0
DWIDTH 13 0
BBX 11 23 1 -5
BITMAP
006F80
01FFE0
0791B0
0A0034
0C0030
180060
280280
34FE00
34A680
340090
740070
740034
740028
780028
7C0038
BA41F4
B6FFE0
B4BE40
B40000
B40000
B40000
F40000
F40000
ENDCHAR
STARTCHAR gamma
ENCODING 947
SWIDTH 466 0
DWIDTH 11 0
BBX 11 17 0 -5
BITMAP
2E00B8
BF40F4
9781E0
02C2D0
01C380
00C740
00DA00
009D00
00AC00
00B400
00B000
00A000
00E000
01E000
02E000
03D000
02C000
ENDCHAR
STARTCHAR delta
ENCODING 948
SWIDTH 479 0
DWIDTH 12 0
BBX 11 18 0 0
BITMAP
01BE40
0357F0
0700A0
038000
00F400
002E00
00AF80
07FFD0
0F41F0
2C00B4
340078
300038
600038
300074
3400B0
2D06E0
1FFF80
06F900
ENDCHAR
STARTCHAR epsilon
ENCODING 949
SWIDTH 381 0
DWIDTH 9 0
BBX 8 12 1 0
BITMAP
0BF9
7FFD
B918
A000
6000
2BD0
2580
A000
E000
F41D
7FFD
1BE4
ENDCHAR
STARTCHAR zeta
ENCODING 950
SWIDTH 386 0
DWIDTH 9 0
BBX 9 25 1 -7
BITMAP
004000
030000
0B0280
0B0BC0
07FF40
01F400
07C000
0F0000
2D0000
340000
A00000
D00000
C00000
800000
C00000
E00000
BE4000
7FF900
0BFF00
001B40
000340
000300
06AD00
07F400
024000
ENDCHAR
STARTCHAR eta
ENCODING 951
SWIDTH 510 0
DWIDTH 12 0
BBX 11 18 0 -6
BITMAP
2E07D0
BF1FF0
8B7874
036038
039028
038028
078028
074028
0B4028
0B4028
0F4038
0F0038
000038
000078
000074
0000B4
0000F4
000050
ENDCHAR
STARTCHAR theta
ENCODING 952
SWIDTH 514 0
DWIDTH 12 0
BBX 11 18 1 0
BITMAP
02FD00
0BFF40
1E47C0
2801D0
7000A0
600070
A00070
900030
BFFFF4
A55574
900030
A00030
B00070
7400A0
3801D0
2E47C0
0BFF40
02F900
ENDCHAR
STARTCHAR iota
ENCODING 953
SWIDTH 259 0
DWIDTH 6 0
BBX 5 12 1 0
BITMAP
7C00
7800
7800
7400
7400
7400
7000
7000
7000
7400
7EC0
2E40
ENDCHAR
STARTCHAR kappa
ENCODING 954
SWIDTH 495 0
DWIDTH 12 0
BBX 13 12 -1 0
BITMAP
0B800B00
2FD07F00
62D1F900
01D3D000
00DB4000
00DD0000
00FA0000
01E30000
01E28000
01D1E080
02D0FF40
02D03E00
ENDCHAR
STARTCHAR lambda
ENCODING 955
SWIDTH 506 0
DWIDTH 12 0
BBX 13 18 0 0
BITMAP
02E00000
07F40000
09780000
001C0000
000C0000
000D0000
000D0000
002E0000
003A0000
00B70000
00E30000
02D34000
03C34000
0B428000
0F02C000
2E01E140
3D01FF00
BC007800
ENDCHAR
STARTCHAR mu
ENCODING 956
SWIDTH 552 0
DWIDTH 13 0
BBX 13 17 1 -5
BITMAP
7C01F000
7C01E000
7801E000
7801D000
7401D000
7401C000
7402C000
7403C000
740AC000
7C1DD140
BBF8FF00
B2E07800
B0000000
B0000000
F0000000
F0000000
E0000000
ENDCHAR
STARTCHAR nu
ENCODING 957
SWIDTH 453 0
DWIDTH 11 0
BBX 12 13 -1 -1
BITMAP
0B4064
2FC03C
62D02D
00E02D
00A03D
00A03C
00A0B8
0060F0
0062D0
006780
006E00
00B800
005000
ENDCHAR
STARTCHAR xi
ENCODING 958
SWIDTH 390 0
DWIDTH 9 0
BBX 9 23 1 -5
BITMAP
080000
280000
2C1B40
0BFF40
0B9000
3C0000
340000
340000
19BD00
1EFC00
600000
C00000
C00000
C00000
F50000
BFE400
1FFE00
01AF40
000280
000140
001700
03FD00
02A000
ENDCHAR
STARTCHAR omicron
ENCODING 959
SWIDTH 475 0
DWIDTH 11 0
BBX 10 12 1 0
BITMAP
06F900
1FFF40
7907C0
A001D0
D00090
C000A0
C000A0
C00090
E001C0
B91B80
3FFF00
0BF800
ENDCHAR
STARTCHAR pi
ENCODING 960
SWIDTH 591 0
DWIDTH 14 0
BBX 14 12 0 0
BITMAP
06FFFFE0
2FFFFFE0
64302400
40602400
00603400
00903000
00D07000
01C07000
02C0B400
0780B850
0B407FC0
1F002E00
ENDCHAR
STARTCHAR rho
ENCODING 961
SWIDTH 515 0
DWIDTH 12 0
BBX 11 17 1 -5
BITMAP
01BE40
07FFD0
1F41F0
2C0074
340024
740024
740024
740034
7C00B0
7A46E0
77FF80
75BE00
B40000
B40000
B40000
B80000
B80000
ENDCHAR
STARTCHAR uni03C2
ENCODING 962
SWIDTH 377 0
DWIDTH 9 0
BBX 8 17 1 -5
BITMAP
06FD
2FFD
7904
9000
C000
C000
C000
E000
BD00
3FE0
0BFD
006E
0007
0003
001A
07F8
0390
ENDCHAR
STARTCHAR sigma
ENCODING 963
SWIDTH 545 0
DWIDTH 13 0
BBX 12 12 1 0
BITMAP
06FFFF
1FFFFF
7D4240
B000C0
D00090
C000A0
C000B0
D000E0
E001E0
B917C0
3FFF40
0BF900
ENDCHAR
STARTCHAR tau
ENCODING 964
SWIDTH 392 0
DWIDTH 9 0
BBX 10 12 0 0
BITMAP
1BFFD0
7FFFD0
90A000
409000
00D000
00D000
01C000
01C000
01D000
01E140
01FF00
00B900
ENDCHAR
STARTCHAR upsilon
ENCODING 965
SWIDTH 491 0
DWIDTH 12 0
BBX 11 12 0 0
BITMAP
2E0240
BF00D0
8B0070
0B0034
0A0038
0A0038
0D0038
0D0074
0D00B4
0A46E0
07FFC0
02FE00
ENDCHAR
STARTCHAR phi
ENCODING 966
SWIDTH 603 0
DWIDTH 14 0
BBX 13 18 1 -5
BITMAP
00400000
0BD1F800
2F87FE00
780F4B40
A01D0340
C02C0280
C0280280
C0280240
D0280340
B4281F00
7EBABD00
1FFFE400
01BE4000
00380000
00380000
00780000
007C0000
00640000
ENDCHAR
STARTCHAR chi
ENCODING 967
SWIDTH 462 0
DWIDTH 11 0
BBX 13 17 -1 -5
BITMAP
1F400F80
3FD02F00
61E03D00
0070B800
0034F000
0026D000
001F4000
001E0000
002D0000
007D0000
00E60000
02D70000
07834000
0F428000
2E01D140
7C00FF00
F8007D00
ENDCHAR
STARTCHAR psi
ENCODING 968
SWIDTH 620 0
DWIDTH 15 0
BBX 14 23 0 -5
BITMAP
00024000
0003C000
0003C000
00038000
00038000
00038000
2E038600
BF434280
8B4341D0
0B0340E0
0A0340E0
0A0340E0
0D0340E0
0D0341E0
0A0343D0
0B976F80
03FFFE00
00BFE400
00074000
00074000
000B4000
000B4000
000B4000
ENDCHAR
STARTCHAR omega
ENCODING 969
SWIDTH 660 0
DWIDTH 16 0
BBX 14 12 1 0
BITMAP
06800900
1F800740
7E0002C0
B40F00D0
D00F00E0
C01F00B0
C00E00B0
C00D00B0
900D00E0
746A47D0
3FF2FF80
1B80BE00
ENDCHAR
STARTCHAR iotadieresis
ENCODING 970
SWIDTH 259 0
DWIDTH 6 0
BBX 8 16 -1 0
BITMAP
B41E
F82F
6419
0000
07C0
0780
0780
0740
0740
0740
0700
0700
0700
0740
07EC
02E4
ENDCHAR
STARTCHAR upsilondieresis
ENCODING 971
SWIDTH 491 0
DWIDTH 12 0
BBX 11 16 0 0
BITMAP
1E03C0
2F07D0
1A0280
000000
2E0240
BF00D0
8B0070
0B0034
0A0038
0A0038
0D0038
0D0074
0D00B4
0A46E0
07FFC0
02FE00
ENDCHAR
STARTCHAR omicrontonos
ENCODING 972
SWIDTH 475 0
DWIDTH 11 0
BBX 10 17 1 0
BITMAP
003D00
003800
003400
007000
000000
06F900
1FFF40
7907C0
A001D0
D00090
C000A0
C000A0
C00090
E001C0
B91B80
3FFF00
0BF800
ENDCHAR
STARTCHAR upsilontonos
ENCODING 973
SWIDTH 491 0
DWIDTH 12 0
BBX 11 17 0 0
BITMAP
001E00
002D00
002800
002400
000000
2E0240
BF00D0
8B0070
0B0034
0A0038
0A0038
0D0038
0D0074
0D00B4
0A46E0
07FFC0
02FE00
ENDCHAR
STARTCHAR omegatonos
ENCODING 974
SWIDTH 660 0
DWIDTH 16 0
BBX 14 17 1 0
BITMAP
00078000
00074000
000B0000
00090000
00000000
06800900
1F800740
7E0002C0
B40F00D0
D00F00E0
C01F00B0
C00E00B0
C00D00B0
900D00E0
746A47D0
3FF2FF80
1B80BE00
ENDCHAR
STARTCHAR uni03D0
ENCODING 976
SWIDTH 438 0
DWIDTH 11 0
BBX 9 18 1 0
BITMAP
007E00
02FF80
0791C0
0D00C0
1C0080
3A4280
76FF40
70BD00
B00000
B6F800
BFFF00
BE4740
B40180
740080
3C0180
2E4740
0FFF00
02F800
ENDCHAR
STARTCHAR uni03D1
ENCODING 977
SWIDTH 541 0
DWIDTH 13 0
BBX 13 18 0 0
BITMAP
007E4000
01FFD000
0391E000
03007000
06003400
06002800
03001800
02401C00
00E40F40
003FFF00
1F46FD00
3F800C00
93800C00
02801C00
02802800
01D1B400
00FFE000
006F8000
ENDCHAR
STARTCHAR uni03D2
ENCODING 978
SWIDTH 616 0
DWIDTH 15 0
BBX 15 16 0 0
BITMAP
2FD006F0
56F419B8
007C30B8
002C6010
001D9000
000EC000
000F8000
000F8000
000B8000
000B4000
000B4000
000B4000
000B4000
000B4000
000F8000
01FFFC00
ENDCHAR
STARTCHAR uni03D5
ENCODING 981
SWIDTH 575 0
DWIDTH 14 0
BBX 12 23 1 -5
BITMAP
001900
001E00
002E00
002D00
002D00
002D00
02FFD0
1FFFF8
3D6C7D
B02C0E
D02807
C02807
C03807
D0380A
A0381D
7D79B8
1FFFE0
06FE40
007400
007400
00B400
00B400
00B400
ENDCHAR
STARTCHAR uni03D6
ENCODING 982
SWIDTH 821 0
DWIDTH 20 0
BBX 20 12 0 0
BITMAP
1BFFFFFFFE
7FFFFFFFFE
94B4000340
40D00402C0
01802E01C0
02402E01D0
02402D01D0
02802C01D0
01C02802D0
00E47D1B80
00BFD7FF40
002F41F900
ENDCHAR
STARTCHAR uni03D8
ENCODING 984
SWIDTH 627 0
DWIDTH 15 0
BBX 13 16 1 0
BITMAP
01BF9000
1F407D00
3D001F40
B8000B80
F40007C0
F40007C0
F40007C0
F80007C0
B8000B80
3D001F00
0B95B800
01BF9000
002E0000
002E0000
002E0000
02FFE000
ENDCHAR
STARTCHAR uni03D9
ENCODING 985
SWIDTH 475 0
DWIDTH 11 0
BBX 10 18 1 -6
BITMAP
06F900
1FFF40
7D07C0
B001D0
D00090
C000A0
C000A0
C00090
D001D0
B40780
3FFF40
1BF800
01D000
01D000
01D000
02D000
02D000
014000
ENDCHAR
STARTCHAR uni03DA
ENCODING 986
SWIDTH 578 0
DWIDTH 14 0
BBX 12 16 1 0
BITMAP
01BF96
1F407E
3D001E
B8000A
F40006
F40006
F40000
F40000
BC0000
7E0000
1F9000
01BF80
000780
000780
000BC0
00BFF8
ENDCHAR
STARTCHAR uni03DB
ENCODING 987
SWIDTH 490 0
DWIDTH 12 0
BBX 11 17 1 -5
BITMAP
01BFF8
1FFFF8
395014
900000
C00000
C00000
C00000
E00000
B90000
3FD000
0BF800
00BD00
000A00
000600
005D00
0BF400
078000
ENDCHAR
STARTCHAR uni03DC
ENCODING 988
SWIDTH 588 0
DWIDTH 14 0
BBX 13 16 1 0
BITMAP
BFFFFF80
0F400780
0F400180
0B400040
0B401800
0B401800
0B402800
0BFFF800
0B402800
0B401800
0B400000
0B400000
0B400000
0F400000
1F800000
FFFC0000
ENDCHAR
STARTCHAR uni03DD
ENCODING 989
SWIDTH 386 0
DWIDTH 9 0
BBX 12 18 -3 -6
BITMAP
003FFF
003FFF
003800
003800
003800
003800
003400
003AF8
003AF4
003400
003400
003000
007000
006000
009000
52C000
7F8000
2E0000
ENDCHAR
STARTCHAR uni03DE
ENCODING 990
SWIDTH 525 0
DWIDTH 13 0
BBX 12 16 0 0
BITMAP
03FF40
00B400
00A000
018000
034000
0A0000
1C0000
2FFFFF
7FFFFD
000018
000034
0000A0
0001C0
000240
000B40
007FE0
ENDCHAR
STARTCHAR uni03DF
ENCODING 991
SWIDTH 434 0
DWIDTH 10 0
BBX 12 16 -1 0
BITMAP
1F0000
7F8000
578000
028000
024000
024000
030190
066FD0
0BFEC0
0F9080
000180
000240
000340
000385
0003F8
0002E0
ENDCHAR
STARTCHAR uni03E0
ENCODING 992
SWIDTH 697 0
DWIDTH 17 0
BBX 17 16 0 0
BITMAP
001F400000
000F800000
0007C00000
0003E00000
0003F00000
000AF80000
001DBC0000
00283E0000
00703F0000
00E0AF8000
01C1DBC000
034283E000
0B0702F000
0D0E00F800
282C00FD00
74340BFF80
ENDCHAR
STARTCHAR uni03E1
ENCODING 993
SWIDTH 458 0
DWIDTH 11 0
BBX 11 23 -1 -7
BITMAP
780000
7F4000
1FE000
02F400
00BD00
001F00
000B80
0007C0
01BDE0
0FE0B0
0F4074
000038
0001B8
006FAC
00BD1C
00501C
00001C
00001C
00001C
000018
000024
000030
000020
ENDCHAR
STARTCHAR uni03F0
ENCODING 1008
SWIDTH 504 0
DWIDTH 12 0
BBX 13 12 0 0
BITMAP
2E002F00
7F407D00
9740F400
0282E000
02878000
014F4000
016F0000
02BA0000
03F34000
07D28140
1F41FF00
3E00BD00
ENDCHAR
STARTCHAR uni03F1
ENCODING 1009
SWIDTH 467 0
DWIDTH 11 0
BBX 10 18 1 -6
BITMAP
02FD00
0FFF40
2D07C0
3001D0
6000D0
A000D0
B000D0
B907C0
AFFF40
B2FD00
740000
3E0000
1FE000
06F800
002C00
001800
0FF000
078000
ENDCHAR
STARTCHAR uni03F4
ENCODING 1012
SWIDTH 737 0
DWIDTH 18 0
BBX 16 16 1 0
BITMAP
006FE900
02E41B80
0F4002E0
2E0000F4
3D0000BC
7C00007D
B800003D
BFFFFFFD
B955557D
BC00003D
7C00007C
3D0000B8
2E0000F4
0F4002E0
02E41B80
006FF900
ENDCHAR
STARTCHAR uni03F5
ENCODING 1013
SWIDTH 380 0
DWIDTH 9 0
BBX 8 12 1 0
BITMAP
06F9
2FFD
7518
9000
C000
FFF0
D540
D000
A004
791D
3FFD
0BE4
ENDCHAR
STARTCHAR uni03F6
ENCODING 1014
SWIDTH 382 0
DWIDTH 9 0
BBX 9 12 0 0
BITMAP
2FE000
7FF800
141E00
000300
000300
0BFF40
000340
000340
100B00
742E00
7FFC00
1BE000
ENDCHAR
STARTCHAR uni0400
ENCODING 1024
SWIDTH 626 0
DWIDTH 15 0
BBX 14 20 1 0
BITMAP
00BC0000
001E0000
00028000
00000000
BFFFFF40
0F401780
0F400180
0B400040
0B400800
0B401800
0B402800
0BFFF800
0B402800
0B400800
0B400000
0B400090
0B4000C0
0F4001C0
0F4017C0
BFFFFF80
ENDCHAR
STARTCHAR uni0401
ENCODING 1025
SWIDTH 626 0
DWIDTH 15 0
BBX 14 20 1 0
BITMAP
02806400
07D0F800
03C0B400
00000000
BFFFFF40
0F401780
0F400180
0B400040
0B400800
0B401800
0B402800
0BFFF800
0B402800
0B400800
0B400000
0B400090
0B4000C0
0F4001C0
0F4017C0
BFFFFF80
ENDCHAR
STARTCHAR uni0402
ENCODING 1026
SWIDTH 731 0
DWIDTH 18 0
BBX 17 16 0 0
BITMAP
7FFFFFF400
740F407400
600F403400
500F402400
400F401400
000F400000
000F400000
000FABE400
000F806E00
000F400F40
000F400B80
000F400780
000F400B80
000F590B40
001F5F0E00
01FF4BE400
ENDCHAR
STARTCHAR uni0403
ENCODING 1027
SWIDTH 548 0
DWIDTH 13 0
BBX 12 20 1 0
BITMAP
000BC0
002E00
006400
000000
BFFFFE
0F406E
0F400A
0B4006
0B4006
0B4000
0B4000
0B4000
0B4000
0B4000
0B4000
0B4000
0B4000
0F4000
1F8000
FFFC00
ENDCHAR
STARTCHAR uni0404
ENCODING 1028
SWIDTH 668 0
DWIDTH 16 0
BBX 14 16 1 0
BITMAP
006FF9A0
02D01BE0
0F4002E0
2D0000E0
7C0000A0
B8000060
B8000000
BFFFF400
B8000000
B8000000
BC000000
7C000000
2E000010
0F4000A0
07E00680
006FE800
ENDCHAR
STARTCHAR uni0405
ENCODING 1029
SWIDTH 504 0
DWIDTH 12 0
BBX 11 16 1 0
BITMAP
0BFFD0
3D07D0
B400D0
B400A0
B80060
7E0000
2FD000
0BF900
01BF80
001FE0
0003F0
8001F4
C000F4
E000F0
F806D0
FFFE40
ENDCHAR
STARTCHAR uni0406
ENCODING 1030
SWIDTH 357 0
DWIDTH 9 0
BBX 8 16 0 0
BITMAP
7FFE
07E0
03D0
02D0
02D0
02D0
02D0
02D0
02D0
02D0
02D0
02D0
02D0
03D0
07E0
7FFE
ENDCHAR
STARTCHAR uni0407
ENCODING 1031
SWIDTH 357 0
DWIDTH 9 0
BBX 9 20 0 0
BITMAP
640A00
BC1F40
780E00
000000
7FFE00
07E000
03D000
02D000
02D000
02D000
02D000
02D000
02D000
02D000
02D000
02D000
02D000
03D000
07E000
7FFE00
ENDCHAR
STARTCHAR uni0408
ENCODING 1032
SWIDTH 396 0
DWIDTH 10 0
BBX 9 16 0 0
BITMAP
0BFFC0
00BD00
007C00
007800
007800
007800
007800
007800
007800
007800
007800
007800
007800
F07800
F8B400
6F9000
ENDCHAR
STARTCHAR uni0409
ENCODING 1033
SWIDTH 924 0
DWIDTH 22 0
BBX 23 16 -1 0
BITMAP
00BFFFFE4000
000B01F40000
000701F00000
000601F00000
000601F00000
000A01F00000
000901F00000
000901FFFA00
000C01F01BD0
001C01F002F0
001801F001F4
002401F000F4
007001F001F4
29A001F002F0
7FC001F00BD0
2E401BFFF900
ENDCHAR
STARTCHAR uni040A
ENCODING 1034
SWIDTH 1013 0
DWIDTH 24 0
BBX 23 16 1 0
BITMAP
FFF81FFF8000
1F8001F80000
0F4000F40000
0B4000F40000
0B4000F40000
0B4000F40000
0B4000F40000
0BFFFFFFFA40
0B4000F41BD0
0B4000F401F4
0B4000F400F8
0B4000F400F8
0B4000F400F4
0F4000F401F0
1F8001F407D0
FFF80FFFFA00
ENDCHAR
STARTCHAR uni040B
ENCODING 1035
SWIDTH 761 0
DWIDTH 18 0
BBX 18 16 0 0
BITMAP
7FFFFFF400
740F407400
600F402400
500F402400
400F400000
000F400000
000F400000
000FABE400
000F907E00
000F401F00
000F401F00
000F400F00
000F400F00
000F401F00
001F801F40
01FFF4FFF0
ENDCHAR
STARTCHAR uni040C
ENCODING 1036
SWIDTH 658 0
DWIDTH 16 0
BBX 15 20 1 0
BITMAP
0001F400
00078000
001D0000
00000000
FFF802F4
1F800BF8
0F401D64
0B402400
0B403000
0B406000
0B41D000
0BFF8000
0B43D000
0B41F000
0B40F800
0B407D00
0B402E00
0F401F40
1F800BC0
FFF807FC
ENDCHAR
STARTCHAR uni040D
ENCODING 1037
SWIDTH 780 0
DWIDTH 19 0
BBX 17 20 1 0
BITMAP
00BC000000
001E000000
0002800000
0000000000
FFF80FFF80
1F8000FC00
0F4000B800
0B4001F800
0B4007B800
0B400DB800
0B4034B800
0B4090B800
0B4280B800
0B4600B800
0B5C00B800
0BB400B800
0BD000B800
0F8000B800
1F8000FC00
FFF80FFF80
ENDCHAR
STARTCHAR uni040E
ENCODING 1038
SWIDTH 625 0
DWIDTH 15 0
BBX 16 22 0 0
BITMAP
00B41E00
00F41F00
00B41E00
001BE400
00000000
00000000
FFF00BFD
1F8001E0
0B8001C0
03D00280
02E00300
00F40A00
00780C00
003D2800
001E3400
000FA000
0007D000
00028000
00034000
0A5A0000
0FFC0000
07E00000
ENDCHAR
STARTCHAR uni040F
ENCODING 1039
SWIDTH 759 0
DWIDTH 18 0
BBX 17 21 1 -5
BITMAP
FFF81FFF40
1F8002F400
0F4001F000
0B4001F000
0B4001F000
0B4001F000
0B4001F000
0B4001F000
0B4001F000
0B4001F000
0B4001F000
0B4001F000
0B4001F000
0B4001F000
0F4001F400
AFFFFFFE40
0001800000
0002C00000
0003C00000
0003D00000
0002C00000
ENDCHAR
STARTCHAR uni0410
ENCODING 1040
SWIDTH 718 0
DWIDTH 17 0
BBX 17 16 0 0
BITMAP
0001D00000
0002E00000
0003F00000
000AF80000
000D7C0000
001C3D0000
00282E0000
00741F4000
00A00F8000
00D00BC000
01FFFFE000
038002F000
070001F400
0A0000FC00
1E0000BE00
FFC007FFC0
ENDCHAR
STARTCHAR uni0411
ENCODING 1041
SWIDTH 617 0
DWIDTH 15 0
BBX 13 16 1 0
BITMAP
BFFFFE00
0F405E00
0F400600
0B400300
0B400100
0B400000
0B400000
0BFFE400
0B40BE00
0B401F40
0B400B80
0B400B80
0B400B80
0F400F40
0F407D00
BFFFE400
ENDCHAR
STARTCHAR uni0412
ENCODING 1042
SWIDTH 618 0
DWIDTH 15 0
BBX 13 16 1 0
BITMAP
BFFFE400
0F407D00
0F402F00
0B401F40
0B401F00
0B401E00
0B407800
0BFFD000
0B407D00
0B401F40
0B400B80
0B400BC0
0B400BC0
0F400F80
0F406E00
BFFFE400
ENDCHAR
STARTCHAR uni0413
ENCODING 1043
SWIDTH 548 0
DWIDTH 13 0
BBX 12 16 1 0
BITMAP
BFFFFE
0F406E
0F400A
0B4006
0B4006
0B4000
0B4000
0B4000
0B4000
0B4000
0B4000
0B4000
0B4000
0F4000
1F8000
FFFC00
ENDCHAR
STARTCHAR uni0414
ENCODING 1044
SWIDTH 663 0
DWIDTH 16 0
BBX 15 21 0 -5
BITMAP
02FFFFF8
00740BC0
00300B80
00700B80
00700B80
00600B80
00A00B80
00900B80
00D00B80
01C00B80
02800B80
03400B80
07000B80
0A000B80
2C000BC0
FFFFFFFC
F400007C
E000002C
D000001C
C000001C
C0000008
ENDCHAR
STARTCHAR uni0415
ENCODING 1045
SWIDTH 626 0
DWIDTH 15 0
BBX 14 16 1 0
BITMAP
BFFFFF40
0F401780
0F400180
0B400040
0B400800
0B401800
0B402800
0BFFF800
0B402800
0B400800
0B400000
0B400090
0B4000C0
0F4001C0
0F4017C0
BFFFFF80
ENDCHAR
STARTCHAR uni0416
ENCODING 1046
SWIDTH 937 0
DWIDTH 22 0
BBX 23 16 0 0
BITMAP
7E00FFF807E0
BF801F801FF0
65D00B4029A0
00A00B403000
00700B406000
00340B409000
001C0B418000
000BFFFF4000
001E0B47C000
003D0B42E000
00B80B41F400
01F00B40B800
02E00B403D00
07C00F402F00
0F801F800F80
FF00FFF80BF8
ENDCHAR
STARTCHAR uni0417
ENCODING 1047
SWIDTH 545 0
DWIDTH 13 0
BBX 12 16 1 0
BITMAP
66FE40
7D06E0
7400F4
6000F8
5000F4
0001F0
000780
02FE00
0007E0
0000F8
00007C
00007D
00007C
9000B8
2802E0
06FE40
ENDCHAR
STARTCHAR uni0418
ENCODING 1048
SWIDTH 780 0
DWIDTH 19 0
BBX 17 16 1 0
BITMAP
FFF80FFF80
1F8000FC00
0F4000B800
0B4001F800
0B4007B800
0B400DB800
0B4034B800
0B4090B800
0B4280B800
0B4600B800
0B5C00B800
0BB400B800
0BD000B800
0F8000B800
1F8000FC00
FFF80FFF80
ENDCHAR
STARTCHAR uni0419
ENCODING 1049
SWIDTH 780 0
DWIDTH 19 0
BBX 17 22 1 0
BITMAP
0014050000
00780F4000
00B40B4000
00780B0000
001BF80000
0000000000
FFF80FFF80
1F8000FC00
0F4000B800
0B4001F800
0B4007B800
0B400DB800
0B4034B800
0B4090B800
0B4280B800
0B4600B800
0B5C00B800
0BB400B800
0BD000B800
0F8000B800
1F8000FC00
FFF80FFF80
ENDCHAR
STARTCHAR uni041A
ENCODING 1050
SWIDTH 658 0
DWIDTH 16 0
BBX 15 16 1 0
BITMAP
FFF802F4
1F800BF8
0F401D64
0B402400
0B403000
0B406000
0B41D000
0BFF8000
0B43D000
0B41F000
0B40F800
0B407D00
0B402E00
0F401F40
1F800BC0
FFF807FC
ENDCHAR
STARTCHAR uni041B
ENCODING 1051
SWIDTH 684 0
DWIDTH 16 0
BBX 17 16 -1 0
BITMAP
00BFFFFF40
000B00F400
000700F400
000600F400
000600F400
000A00F400
000900F400
000900F400
000C00F400
001C00F400
001800F400
002400F400
007000F400
29A000F400
7FC001F800
2E401FFF40
ENDCHAR
STARTCHAR uni041C
ENCODING 1052
SWIDTH 895 0
DWIDTH 21 0
BBX 21 16 0 0
BITMAP
7FE00001FF40
07F40002F800
03F80007F400
03BC000AF400
037D000DF400
032F001CF400
031F4034F400
030B8070F400
0307C0A0F400
0303E0D0F400
0301F280F400
0300F740F400
0300BF00F400
03407E00F400
07802C01F800
7FF4180FFF40
ENDCHAR
STARTCHAR uni041D
ENCODING 1053
SWIDTH 777 0
DWIDTH 19 0
BBX 17 16 1 0
BITMAP
FFF80FFF80
1F8001F800
0F4000B400
0B4000B400
0B4000B400
0B4000B400
0B4000B400
0BFFFFF400
0B4000B400
0B4000B400
0B4000B400
0B4000B400
0B4000B400
0F4000B400
1F8000F800
FFF80FFF80
ENDCHAR
STARTCHAR uni041E
ENCODING 1054
SWIDTH 738 0
DWIDTH 18 0
BBX 16 16 1 0
BITMAP
006FE900
02E01B80
0F4002E0
2E0000F4
3D0000BC
7C00007D
B800003D
B800003D
B800003D
BC00003D
7C00007C
3D0000B8
2E0000F4
0F4002E0
02E00B80
006FF900
ENDCHAR
STARTCHAR uni041F
ENCODING 1055
SWIDTH 759 0
DWIDTH 18 0
BBX 17 16 1 0
BITMAP
BFFFFFFE40
0F4001F400
0F4001F000
0B4001F000
0B4001F000
0B4001F000
0B4001F000
0B4001F000
0B4001F000
0B4001F000
0B4001F000
0B4001F000
0B4001F000
0F4001F000
0F8001F400
FFF81FFF40
ENDCHAR
STARTCHAR uni0420
ENCODING 1056
SWIDTH 569 0
DWIDTH 14 0
BBX 12 16 1 0
BITMAP
BFFFA0
0F41BD
0B402E
0B401F
0B401F
0B401F
0B402D
0B41B8
0BFE90
0B4000
0B4000
0B4000
0B4000
0F4000
1F8000
FFF800
ENDCHAR
STARTCHAR uni0421
ENCODING 1057
SWIDTH 670 0
DWIDTH 16 0
BBX 14 16 1 0
BITMAP
006BF9A0
02E40BE0
0F4002E0
2E0000E0
3D0000A0
7C000060
B8000000
B8000000
B8000000
B8000000
7C000000
3D000000
2E000000
0F400060
03E40680
006FF900
ENDCHAR
STARTCHAR uni0422
ENCODING 1058
SWIDTH 603 0
DWIDTH 14 0
BBX 14 16 0 0
BITMAP
7FFFFFF0
740F40B0
A00F4030
900F4020
000F4000
000F4000
000F4000
000F4000
000F4000
000F4000
000F4000
000F4000
000F4000
000F4000
001F8000
01FFF800
ENDCHAR
STARTCHAR uni0423
ENCODING 1059
SWIDTH 625 0
DWIDTH 15 0
BBX 16 16 0 0
BITMAP
FFF00BFD
1F8001E0
0B8001C0
03D00280
02E00300
00F40A00
00780C00
003D2800
001E3400
000FA000
0007D000
00028000
00034000
0A5A0000
0FFC0000
07E00000
ENDCHAR
STARTCHAR uni0424
ENCODING 1060
SWIDTH 725 0
DWIDTH 17 0
BBX 16 16 1 0
BITMAP
00BFFC00
000BC000
005BD500
0BEB9BD0
3E0781F4
B807807C
F407803D
F007802E
F407802D
F407803D
7C078078
2E0781F0
07EBEB80
001BD400
000BD000
00BFFC00
ENDCHAR
STARTCHAR uni0425
ENCODING 1061
SWIDTH 664 0
DWIDTH 16 0
BBX 16 16 0 0
BITMAP
BFFC0BFE
0BE002E0
02F00380
01F80700
007C1D00
002E3400
001FA000
0007C000
0007E000
001DF400
00347D00
00A02E00
02C01F80
07400BD0
1F0007F4
FFD02FFE
ENDCHAR
STARTCHAR uni0426
ENCODING 1062
SWIDTH 756 0
DWIDTH 18 0
BBX 17 21 1 -5
BITMAP
FFF81FFF40
1F8002F400
0F4001F000
0B4001F000
0B4001F000
0B4001F000
0B4001F000
0B4001F000
0B4001F000
0B4001F000
0B4001F000
0B4001F000
0B4001F000
0F4001F000
0F4001F000
BFFFFFFF00
0000001F00
0000000700
0000000700
0000000300
0000000200
ENDCHAR
STARTCHAR uni0427
ENCODING 1063
SWIDTH 650 0
DWIDTH 16 0
BBX 15 16 0 0
BITMAP
BFF0FFF8
1F801F80
0F400F40
0F400B40
0F400B40
0F400B40
0B400B40
07D01F40
01BF9F40
00000B40
00000B40
00000B40
00000B40
00000F40
00001F80
0001FFF8
ENDCHAR
STARTCHAR uni0428
ENCODING 1064
SWIDTH 1053 0
DWIDTH 25 0
BBX 24 16 1 0
BITMAP
FFF4BFF87FFD
1F800BC007D0
0F40078003C0
0B40078003C0
0B40078003C0
0B40078003C0
0B40078003C0
0B40078003C0
0B40078003C0
0B40078003C0
0B40078003C0
0B40078003C0
0B40078003C0
0B40078003C0
0F40078003D0
AFFFFFFFFFF9
ENDCHAR
STARTCHAR uni0429
ENCODING 1065
SWIDTH 1044 0
DWIDTH 25 0
BBX 23 21 1 -5
BITMAP
FFF4BFF87FFC
1F800FC00BD0
0F400B8007C0
0B400B800780
0B400B800780
0B400B800780
0B400B800780
0B400B800780
0B400B800780
0B400B800780
0B400B800780
0B400B800780
0B400B800780
0F400B800780
0F400B8007C0
BFFFFFFFFFFC
00000000007C
00000000002C
00000000001C
00000000000C
00000000000C
ENDCHAR
STARTCHAR uni042A
ENCODING 1066
SWIDTH 723 0
DWIDTH 17 0
BBX 17 16 0 0
BITMAP
7FFFF80000
750B800000
A00B400000
900B400000
400B400000
000B400000
000B400000
000BFFE400
000B41BD00
000B401F40
000B400F80
000B400F80
000B400F40
000B401F00
000F407D00
00BFFFA000
ENDCHAR
STARTCHAR uni042B
ENCODING 1067
SWIDTH 887 0
DWIDTH 21 0
BBX 21 16 0 0
BITMAP
7FFE001FFF40
07E00002F400
03D00000F000
02D00000F000
02D00000F000
02D00000F000
02D00000F000
02FFE800F000
02D06F40F000
02D00BC0F000
02D003D0F000
02D003D0F000
02D003D0F000
03D00BC0F000
07D02F41F400
3FFFE41FFF40
ENDCHAR
STARTCHAR uni042C
ENCODING 1068
SWIDTH 606 0
DWIDTH 15 0
BBX 14 16 0 0
BITMAP
7FFE0000
07E00000
03D00000
02D00000
02D00000
02D00000
02D00000
02FFF900
02D02F80
02D007D0
02D002E0
02D002E0
02D002E0
03D003D0
03D01F40
2FFFF900
ENDCHAR
STARTCHAR uni042D
ENCODING 1069
SWIDTH 667 0
DWIDTH 16 0
BBX 14 16 1 0
BITMAP
66FF9000
7E407D00
B8001F40
B0000BC0
A00003D0
900003E0
000002E0
01FFFFE0
000002E0
000002E0
000003D0
000003C0
40000B80
A0001E00
2900B800
06BF9000
ENDCHAR
STARTCHAR uni042E
ENCODING 1070
SWIDTH 1042 0
DWIDTH 25 0
BBX 23 16 1 0
BITMAP
FFF8006FE400
1F8007D02F40
0F401F0007C0
0B403D0002E0
0B407C0000F4
0B40B80000F8
0B40F80000B8
0BFFF40000B8
0B40F40000B8
0B40B80000B8
0B40B80000F4
0B407C0000F0
0B403D0001E0
0F401F0003C0
1F8007D01E00
FFF8006FE400
ENDCHAR
STARTCHAR uni042F
ENCODING 1071
SWIDTH 654 0
DWIDTH 16 0
BBX 15 16 0 0
BITMAP
006BFFF4
02F40B80
07D00B80
0BC00B80
0B800B80
07C00B80
03D00B80
01F90B80
002FFF80
002E0B80
00BC0B80
01F40B80
02E00B80
07D00B80
1F800F80
FF40FFF8
ENDCHAR
STARTCHAR uni0430
ENCODING 1072
SWIDTH 480 0
DWIDTH 12 0
BBX 10 12 1 0
BITMAP
0BF800
382E00
B40F00
740F40
000B40
006F40
0B9B40
780B40
F00B40
F00B40
B81B40
2F87E0
ENDCHAR
STARTCHAR uni0431
ENCODING 1073
SWIDTH 520 0
DWIDTH 12 0
BBX 11 18 1 0
BITMAP
000020
0016F0
01FFD0
0BF900
2E0000
740000
A1BE40
DA07D0
EC01F0
F800F4
F400B8
F400B8
F400B8
B400B4
7800B4
3C01E0
1E02C0
06F900
ENDCHAR
STARTCHAR uni0432
ENCODING 1074
SWIDTH 505 0
DWIDTH 12 0
BBX 11 12 1 0
BITMAP
BFFE40
2D07D0
2D01E0
2D01E0
2D01E0
2D0780
2FFE40
2D02E0
2D00F0
2D00F4
2D02F0
BFFE80
ENDCHAR
STARTCHAR uni0433
ENCODING 1075
SWIDTH 429 0
DWIDTH 10 0
BBX 10 12 0 0
BITMAP
2FFFE0
0B40E0
0B4060
0B4020
0B4010
0B4000
0B4000
0B4000
0B4000
0B4000
0B8000
7FF400
ENDCHAR
STARTCHAR uni0434
ENCODING 1076
SWIDTH 530 0
DWIDTH 13 0
BBX 12 16 0 -4
BITMAP
0BFFFE
00C0F4
00C0F0
0080F0
0180F0
0180F0
0240F0
0340F0
0700F0
0900F0
2C00F4
FFFFFF
F0000F
D00007
D00003
C00003
ENDCHAR
STARTCHAR uni0435
ENCODING 1077
SWIDTH 464 0
DWIDTH 11 0
BBX 10 12 1 0
BITMAP
06F900
280F40
700780
B003C0
FFFFD0
E00000
F00000
F40000
B80050
7E0180
2FFF40
06F900
ENDCHAR
STARTCHAR uni0436
ENCODING 1078
SWIDTH 754 0
DWIDTH 18 0
BBX 18 12 0 0
BITMAP
7D07FE07D0
BF01F40FE0
1140F01840
0080F02400
00C0F03000
0060F0A000
007FFFD000
00F4F0F400
02D0F07800
07C0F02E00
1F40F41F40
FE07FE0BF0
ENDCHAR
STARTCHAR uni0437
ENCODING 1079
SWIDTH 435 0
DWIDTH 10 0
BBX 9 12 1 0
BITMAP
9BE400
F42E00
D00F00
800F00
002D00
0BF400
002D00
000F40
000B40
400F40
902E00
2BE400
ENDCHAR
STARTCHAR uni0438
ENCODING 1080
SWIDTH 609 0
DWIDTH 15 0
BBX 14 12 0 0
BITMAP
7FF07FE0
0B800F40
0B400F40
0B403F40
0B409F40
0B424F40
0B490F40
0B680F40
0BE00F40
0B800F40
0B800F40
7FF07FE0
ENDCHAR
STARTCHAR uni0439
ENCODING 1081
SWIDTH 609 0
DWIDTH 15 0
BBX 14 17 0 0
BITMAP
01E03800
02D03D00
01D02C00
006FA000
00000000
7FF07FE0
0B800F40
0B400F40
0B403F40
0B409F40
0B424F40
0B490F40
0B680F40
0BE00F40
0B800F40
0B800F40
7FF07FE0
ENDCHAR
STARTCHAR uni043A
ENCODING 1082
SWIDTH 521 0
DWIDTH 13 0
BBX 13 12 0 0
BITMAP
7FF02E00
0B80BF00
0B40C500
0B418000
0B424000
0B470000
0BFE0000
0B4B8000
0B43D000
0B41F000
0B80B800
7FF07F80
ENDCHAR
STARTCHAR uni043B
ENCODING 1083
SWIDTH 553 0
DWIDTH 13 0
BBX 14 12 -1 0
BITMAP
01BFFFD0
00181F00
00181E00
00181E00
00241E00
00241E00
00301E00
00301E00
00601E00
14D01E00
7F801F00
2E00FFD0
ENDCHAR
STARTCHAR uni043C
ENCODING 1084
SWIDTH 697 0
DWIDTH 17 0
BBX 16 12 0 0
BITMAP
7FC001FF
0FD002F8
0BE003F4
09F006B4
09B80DB4
097C18B4
092D24B4
091E30B4
090FA0B4
0907C0B4
0E0380F8
BFC247FF
ENDCHAR
STARTCHAR uni043D
ENCODING 1085
SWIDTH 605 0
DWIDTH 15 0
BBX 14 12 0 0
BITMAP
7FF0BFE0
0B800F40
0B400F00
0B400F00
0B400F00
0BFFFF00
0B400F00
0B400F00
0B400F00
0B400F00
0B800F40
7FF0BFE0
ENDCHAR
STARTCHAR uni043E
ENCODING 1086
SWIDTH 514 0
DWIDTH 12 0
BBX 11 12 1 0
BITMAP
06FE00
2E07C0
7801E0
B400F0
F000F4
F000B4
F000B4
F400B4
B400F0
7801E0
2E0780
06F900
ENDCHAR
STARTCHAR uni043F
ENCODING 1087
SWIDTH 591 0
DWIDTH 14 0
BBX 14 12 0 0
BITMAP
6FFFFFD0
0B401E00
0B401E00
0B401E00
0B401E00
0B401E00
0B401E00
0B401E00
0B401E00
0B401E00
0B801F00
7FF0FFD0
ENDCHAR
STARTCHAR uni0440
ENCODING 1088
SWIDTH 537 0
DWIDTH 13 0
BBX 12 17 0 -5
BITMAP
1B4BE0
6F7FF8
0B907D
0B402E
0B401F
0B401F
0B400F
0B401E
0B401D
0B402C
0BD0B4
0BAF80
0B4000
0B4000
0B4000
0F8000
7FF800
ENDCHAR
STARTCHAR uni0441
ENCODING 1089
SWIDTH 446 0
DWIDTH 11 0
BBX 10 12 0 0
BITMAP
01BE40
0B43D0
1D01E0
2C0090
380000
380000
7C0000
3C0000
3D0010
1F40A0
0BFFC0
02FE00
ENDCHAR
STARTCHAR uni0442
ENCODING 1090
SWIDTH 456 0
DWIDTH 11 0
BBX 11 12 0 0
BITMAP
BFFFF8
A0B428
90B418
80B408
00B400
00B400
00B400
00B400
00B400
00B400
00B800
07FF40
ENDCHAR
STARTCHAR uni0443
ENCODING 1091
SWIDTH 483 0
DWIDTH 12 0
BBX 13 17 -1 -5
BITMAP
7FE07F80
0F800E00
0B800C00
03D01800
02E02400
00F03000
00B86000
007C8000
002D8000
001F4000
000F0000
000A0000
000D0000
00180000
00340000
2FE00000
2F800000
ENDCHAR
STARTCHAR uni0444
ENCODING 1092
SWIDTH 710 0
DWIDTH 17 0
BBX 15 23 1 -5
BITMAP
001B4000
002F4000
00074000
00074000
00074000
00074000
0BEBAF80
2D1FD1F0
780B8078
B407407C
F007403C
F007403C
F007403C
F407403C
B4074078
780B80B4
2D1FD1E0
0BE7AF80
00074000
00074000
00074000
000B8000
007FF400
ENDCHAR
STARTCHAR uni0445
ENCODING 1093
SWIDTH 479 0
DWIDTH 12 0
BBX 12 12 0 0
BITMAP
BFD2FC
1F40E0
0B81C0
03D340
01F900
00BC00
007D00
01DF00
034780
0A02E0
2C01F4
FF07FE
ENDCHAR
STARTCHAR uni0446
ENCODING 1094
SWIDTH 590 0
DWIDTH 14 0
BBX 14 16 0 -4
BITMAP
7FF0FFD0
0B802E00
0B401E00
0B401E00
0B401E00
0B401E00
0B401E00
0B401E00
0B401E00
0B401E00
0B802E00
6FFFFFE0
000001E0
000000E0
00000090
00000050
ENDCHAR
STARTCHAR uni0447
ENCODING 1095
SWIDTH 535 0
DWIDTH 13 0
BBX 12 12 0 0
BITMAP
FFC7FF
2E00B8
1E00B4
1E00B4
1E00B4
0F41B4
06FAB4
0000B4
0000B4
0000B4
0000B8
0007FF
ENDCHAR
STARTCHAR uni0448
ENCODING 1096
SWIDTH 812 0
DWIDTH 19 0
BBX 19 12 0 0
BITMAP
7FE2FF1FF8
0B807C03D0
0B407803C0
0B407803C0
0B407803C0
0B407803C0
0B407803C0
0B407803C0
0B407803C0
0B407803C0
0B807803D0
7FFFFFFFF8
ENDCHAR
STARTCHAR uni0449
ENCODING 1097
SWIDTH 814 0
DWIDTH 20 0
BBX 19 16 0 -4
BITMAP
7FE2FF1FF8
0B807C03D0
0B407803C0
0B407803C0
0B407803C0
0B407803C0
0B407803C0
0B407803C0
0B407803C0
0B407803C0
0B807803C0
6FFFFFFFFC
000000007C
000000002C
000000001C
000000000C
ENDCHAR
STARTCHAR uni044A
ENCODING 1098
SWIDTH 568 0
DWIDTH 14 0
BBX 13 12 0 0
BITMAP
BFFE0000
A0B80000
90B40000
80B40000
00B40000
00BFF900
00B81F40
00B407C0
00B407C0
00B407C0
00B41F40
02FFF900
ENDCHAR
STARTCHAR uni044B
ENCODING 1099
SWIDTH 728 0
DWIDTH 17 0
BBX 17 12 0 0
BITMAP
7FF402FF80
0B80003D00
0B40003C00
0B40003C00
0B40003C00
0BFF903C00
0B41F43C00
0B40B83C00
0B40783C00
0B40B83C00
0B41F07D00
7FFF82FF80
ENDCHAR
STARTCHAR uni044C
ENCODING 1100
SWIDTH 489 0
DWIDTH 12 0
BBX 11 12 0 0
BITMAP
7FF400
0B8000
0B4000
0B4000
0B4000
0BFF90
0B41F4
0B407C
0B403C
0B407C
0B41F4
6FFF90
ENDCHAR
STARTCHAR uni044D
ENCODING 1101
SWIDTH 467 0
DWIDTH 11 0
BBX 10 12 1 0
BITMAP
9BF800
F41F00
D00780
8003C0
0003D0
07FFD0
0003D0
0003D0
0003C0
400B80
601E00
1BE400
ENDCHAR
STARTCHAR uni044E
ENCODING 1102
SWIDTH 774 0
DWIDTH 19 0
BBX 18 12 0 0
BITMAP
7FF00BF900
0B80780B40
0B40F003C0
0B41E002D0
0B42E002E0
0BFFD001E0
0B42E001E0
0B41E002E0
0B41E002D0
0B40B403C0
0B803D0B40
7FF00BF800
ENDCHAR
STARTCHAR uni044F
ENCODING 1103
SWIDTH 518 0
DWIDTH 12 0
BBX 12 12 0 0
BITMAP
02BFFE
0F80F0
1E00F0
1E00F0
1F00F0
0B90F0
01BFF0
01F4F0
03D0F0
0BC0F0
1F40F4
FF0BFE
ENDCHAR
STARTCHAR uni0450
ENCODING 1104
SWIDTH 464 0
DWIDTH 11 0
BBX 10 17 1 0
BITMAP
0B8000
03C000
00D000
007000
000000
06F900
280F40
700780
B003C0
FFFFD0
E00000
F00000
F40000
B80050
7E0180
2FFF40
06F900
ENDCHAR
STARTCHAR uni0451
ENCODING 1105
SWIDTH 464 0
DWIDTH 11 0
BBX 10 17 1 0
BITMAP
280640
3D0F80
2D0B40
000000
000000
06F900
280F40
700780
B003C0
FFFFD0
E00000
F00000
F40000
B80050
7E0180
2FFF40
06F900
ENDCHAR
STARTCHAR uni0452
ENCODING 1106
SWIDTH 563 0
DWIDTH 14 0
BBX 12 23 0 -5
BITMAP
1B4000
6F4000
0B4000
7FFF40
0B4000
0B4000
0B46E4
0B6FFC
0BE03D
0B802E
0B401E
0B401E
0B401E
0B401E
0B401E
0B401E
0B801E
7FF41D
00001D
00002C
006028
00B970
006F80
ENDCHAR
STARTCHAR uni0453
ENCODING 1107
SWIDTH 429 0
DWIDTH 10 0
BBX 10 17 0 0
BITMAP
002E00
003C00
007000
00D000
000000
2FFFE0
0B40E0
0B4060
0B4020
0B4010
0B4000
0B4000
0B4000
0B4000
0B4000
0B8000
7FF400
ENDCHAR
STARTCHAR uni0454
ENCODING 1108
SWIDTH 460 0
DWIDTH 11 0
BBX 10 12 1 0
BITMAP
06FE00
2D0B80
7803C0
B40040
F00000
FFFC00
F00000
F00000
F40000
780050
2E0180
06F900
ENDCHAR
STARTCHAR uni0455
ENCODING 1109
SWIDTH 394 0
DWIDTH 9 0
BBX 8 12 1 0
BITMAP
1FE8
B42C
E00C
F408
BD00
2FD0
07F8
00BD
801E
C01E
E42D
EFE4
ENDCHAR
STARTCHAR uni0456
ENCODING 1110
SWIDTH 285 0
DWIDTH 7 0
BBX 6 16 0 0
BITMAP
0740
0F80
0640
0000
1B40
1B40
0B40
0B40
0B40
0B40
0B40
0B40
0B40
0B40
0B80
7FF0
ENDCHAR
STARTCHAR uni0457
ENCODING 1111
SWIDTH 285 0
DWIDTH 7 0
BBX 8 16 -1 0
BITMAP
782D
BC3E
6419
0000
06D0
06D0
02D0
02D0
02D0
02D0
02D0
02D0
02D0
02D0
02E0
1FFC
ENDCHAR
STARTCHAR uni0458
ENCODING 1112
SWIDTH 263 0
DWIDTH 6 0
BBX 8 21 -3 -5
BITMAP
002D
003E
0019
0000
00AD
007D
002D
002D
002D
002D
002D
002D
002D
002D
002D
002D
002D
002D
242C
7D74
2FD0
ENDCHAR
STARTCHAR uni0459
ENCODING 1113
SWIDTH 742 0
DWIDTH 18 0
BBX 18 12 -1 0
BITMAP
01BFFF9000
00181E0000
00181E0000
00181E0000
00241E0000
00241FFE40
00301E07E0
00301E01F0
00601E00F0
14D01E01F0
7F801E02D0
2E00BFFE40
ENDCHAR
STARTCHAR uni045A
ENCODING 1114
SWIDTH 790 0
DWIDTH 19 0
BBX 19 12 0 0
BITMAP
7FF0BFE000
0B801F0000
0B400F0000
0B400F0000
0B400F0000
0BFFFFFE80
0B400F02F0
0B400F00F4
0B400F00B8
0B400F00F4
0B801F02E0
7FF0BFFE40
ENDCHAR
STARTCHAR uni045B
ENCODING 1115
SWIDTH 579 0
DWIDTH 14 0
BBX 14 17 0 0
BITMAP
1B400000
5F400000
0B400000
7FFF4000
0B400000
0B47E400
0B6FFC00
0BE03D00
0B802E00
0B401E00
0B401E00
0B401E00
0B401E00
0B401E00
0B401E00
0B802F00
7FF4FFD0
ENDCHAR
STARTCHAR uni045C
ENCODING 1116
SWIDTH 521 0
DWIDTH 13 0
BBX 13 17 0 0
BITMAP
000B8000
000F0000
002C0000
00340000
00000000
7FF02E00
0B80BF00
0B40C500
0B418000
0B424000
0B470000
0BFE0000
0B4B8000
0B43D000
0B41F000
0B80B800
7FF07F80
ENDCHAR
STARTCHAR uni045D
ENCODING 1117
SWIDTH 609 0
DWIDTH 15 0
BBX 14 17 0 0
BITMAP
00B80000
002C0000
000E0000
00070000
00000000
7FF07FE0
0B800F40
0B400F40
0B403F40
0B409F40
0B424F40
0B490F40
0B680F40
0BE00F40
0B800F40
0B800F40
7FF07FE0
ENDCHAR
STARTCHAR uni045E
ENCODING 1118
SWIDTH 483 0
DWIDTH 12 0
BBX 13 23 -1 -5
BITMAP
00401400
02E07C00
02D03D00
01D07800
006FA000
00000000
7FE07F80
0F800E00
0B800C00
03D01800
02E02400
00F03000
00B86000
007C9000
002D8000
001F4000
000F0000
000A0000
000D0000
001C0000
04340000
2FE00000
1F800000
ENDCHAR
STARTCHAR uni045F
ENCODING 1119
SWIDTH 587 0
DWIDTH 14 0
BBX 14 17 0 -5
BITMAP
7FF0FFD0
0B802E00
0B401E00
0B401E00
0B401E00
0B401E00
0B401E00
0B401E00
0B401E00
0B401E00
0B802E00
6FFFFF90
00060000
000A0000
000F0000
000F4000
000B0000
ENDCHAR
STARTCHAR uni0462
ENCODING 1122
SWIDTH 727 0
DWIDTH 17 0
BBX 17 18 0 0
BITMAP
01FFF40000
002F400000
001F000000
7FFFFFFC00
B40F002C00
A00F000D00
900F000900
000F000000
000F000000
000FFFA000
000F01BD00
000F002F00
000F000F40
000F000F40
000F000F40
001F002F00
001F00BD00
01BFFF9000
ENDCHAR
STARTCHAR uni0463
ENCODING 1123
SWIDTH 561 0
DWIDTH 13 0
BBX 13 18 0 0
BITMAP
00100000
07F40000
00B40000
00B40000
00B40000
00B40000
BFFFF800
A0B42800
90B41800
80B40800
00B40000
00BFF900
00B41F40
00B40780
00B407C0
00B40780
00B41F40
07FFF900
ENDCHAR
STARTCHAR uni046A
ENCODING 1130
SWIDTH 881 0
DWIDTH 21 0
BBX 23 16 -1 0
BITMAP
003FFFFFF000
002F4000D000
000B80028000
0007D0070000
0001F40D0000
0000B8280000
00003E700000
00001FD00000
0002FFFE0000
000F8B87D000
002E0B82F000
007D0B80F400
00F80B80BC00
02F00B803E00
07E00B801F80
7FC07FF40FF8
ENDCHAR
STARTCHAR uni046B
ENCODING 1131
SWIDTH 667 0
DWIDTH 16 0
BBX 18 12 -1 0
BITMAP
01FFFFF000
00B800D000
003D028000
001F470000
0007CD0000
0002F80000
002EFB8000
00B4F1E000
01F0F0F400
02D0F07800
07C0F03D00
6F47FD1F90
ENDCHAR
STARTCHAR uni0472
ENCODING 1138
SWIDTH 737 0
DWIDTH 18 0
BBX 16 16 1 0
BITMAP
006FE900
02D01B80
0F4002E0
2E0000B4
3C00007C
7800003D
B9BE403D
BFFFFFFD
B806FE7D
B800003D
7C00007C
3D000078
2E0000F4
0F4002E0
02E01B40
006FF900
ENDCHAR
STARTCHAR uni0473
ENCODING 1139
SWIDTH 514 0
DWIDTH 12 0
BBX 11 12 1 0
BITMAP
06FE00
2E07C0
7801E0
B400F0
F000B4
F7E0B4
F06EB4
F000B4
B400F0
7801E0
2E0780
06F900
ENDCHAR
STARTCHAR uni0474
ENCODING 1140
SWIDTH 705 0
DWIDTH 17 0
BBX 19 16 -1 0
BITMAP
7FFD0006E0
0BE0000FF4
03E0001D60
02F0003800
00F4007000
00BC00A000
007D00D000
003E01C000
001F028000
000F434000
000BC60000
0003D90000
0002EC0000
0001F80000
0000F40000
0000700000
ENDCHAR
STARTCHAR uni0475
ENCODING 1141
SWIDTH 520 0
DWIDTH 12 0
BBX 14 12 -1 0
BITMAP
7FE002E0
0F800BF0
07801C50
03C02400
02E03000
01F06000
00F49000
00B8C000
003D8000
002F4000
001F0000
000E0000
ENDCHAR
STARTCHAR uni0490
ENCODING 1168
SWIDTH 525 0
DWIDTH 13 0
BBX 12 20 1 0
BITMAP
000005
000009
00000D
00002D
BFFFFD
0F4000
0F4000
0B4000
0B4000
0B4000
0B4000
0B4000
0B4000
0B4000
0B4000
0B4000
0B4000
0F4000
1F8000
FFFC00
ENDCHAR
STARTCHAR uni0491
ENCODING 1169
SWIDTH 404 0
DWIDTH 10 0
BBX 10 15 0 0
BITMAP
000060
0000A0
0001E0
2FFFD0
0B4000
0B4000
0B4000
0B4000
0B4000
0B4000
0B4000
0B4000
0B4000
0B8000
7FF400
ENDCHAR
STARTCHAR uni1D00
ENCODING 7424
SWIDTH 511 0
DWIDTH 12 0
BBX 14 12 -1 0
BITMAP
000B0000
001F4000
002B8000
0033D000
0062E000
00C1F000
0180F400
02EAF800
03003D00
0A002E00
1D002F40
7F40BFE0
ENDCHAR
STARTCHAR uni1D07
ENCODING 7431
SWIDTH 495 0
DWIDTH 12 0
BBX 10 12 1 0
BITMAP
BFFFD0
2D0090
2D0060
2D0010
2D0200
2D0300
2FFF00
2D0200
2D0010
2D0030
2D00A0
BFFFE0
ENDCHAR
STARTCHAR uni1D1C
ENCODING 7452
SWIDTH 584 0
DWIDTH 14 0
BBX 14 12 0 0
BITMAP
BFF03FE0
0F400740
0B400700
0B400300
0B400300
0B400300
0B400300
0B400300
0B400600
0B400600
03D01C00
00BFE000
ENDCHAR
STARTCHAR uni1D81
ENCODING 7553
SWIDTH 539 0
DWIDTH 13 0
BBX 13 22 0 -5
BITMAP
0001B800
0001B800
00007800
00007800
00007800
01BFB800
0741F800
0E00B800
2C007800
3C007800
3C007800
7C007800
3C007800
3D007800
2F40B800
0FFFBD00
06F87B40
00000240
00000240
00000200
0002C700
0001F900
ENDCHAR
STARTCHAR uni1D84
ENCODING 7556
SWIDTH 542 0
DWIDTH 13 0
BBX 13 22 0 -5
BITMAP
1B400000
1F400000
0B400000
0B400000
0B400000
0B43FF00
0B40F400
0B428000
0B4A0000
0B680000
0BF80000
0B7E0000
0B4F4000
0B47D000
0B41F400
0B80BD00
7FF1FFC0
000000C0
000000C0
00004180
0000E240
0000BE00
ENDCHAR
STARTCHAR uni1D85
ENCODING 7557
SWIDTH 283 0
DWIDTH 7 0
BBX 7 22 0 -5
BITMAP
1B40
5F40
0B40
0B40
0B40
0B40
0B40
0B40
0B40
0B40
0B40
0B40
0B40
0B40
0B40
0B80
7FF4
0024
0020
0030
2C60
1F80
ENDCHAR
STARTCHAR uni1D8A
ENCODING 7562
SWIDTH 395 0
DWIDTH 9 0
BBX 8 17 1 -5
BITMAP
1FE8
B42C
E00C
F408
BD00
2FD0
07F8
00BD
801E
C01E
E42D
EFED
000D
000D
040C
0F18
07E0
ENDCHAR
STARTCHAR uni1D8D
ENCODING 7565
SWIDTH 479 0
DWIDTH 12 0
BBX 12 17 0 -5
BITMAP
BFD2FC
1F40E0
0B81C0
03D340
01F900
00BC00
007D00
01DF00
034780
0A02E0
2C01F4
FF07FE
000006
000006
000109
00074C
0002F4
ENDCHAR
STARTCHAR uni1D8E
ENCODING 7566
SWIDTH 458 0
DWIDTH 11 0
BBX 11 17 0 -5
BITMAP
2FFFF0
2803E0
300BC0
201F40
002E00
007C00
00F400
02E000
07C024
0F4030
2E00B0
7FFFF0
000030
000030
001060
003890
002F80
ENDCHAR
STARTCHAR uni1D98
ENCODING 7576
SWIDTH 368 0
DWIDTH 9 0
BBX 12 23 0 -5
BITMAP
0006F8
001C7D
002C18
003800
003800
007800
007800
007800
007800
007800
007800
007800
007800
007800
007800
607800
B87400
AF9000
900000
900000
908000
72D000
1F8000
ENDCHAR
STARTCHAR uni1D9B
ENCODING 7579
SWIDTH 462 0
DWIDTH 11 0
BBX 11 10 0 6
BITMAP
6D6F40
1F56D0
1D00F0
1D00B0
1D00B4
1D00B0
1D00B0
1D00E0
1F0280
1AEA00
ENDCHAR
STARTCHAR uni1DA3
ENCODING 7587
SWIDTH 488 0
DWIDTH 12 0
BBX 11 14 0 2
BITMAP
7FC7F8
0E01E0
0E00E0
0E00E0
0E00E0
0E00E0
0E00E0
0F00E0
0B42E0
02E9E0
0000E0
0000E0
0000E0
0000F8
ENDCHAR
STARTCHAR uni1E00
ENCODING 7680
SWIDTH 718 0
DWIDTH 17 0
BBX 17 22 0 -6
BITMAP
0001D00000
0002E00000
0003F00000
000AF80000
000D7C0000
001C3D0000
00282E0000
00741F4000
00A00F8000
00D00BC000
01FFFFE000
038002F000
070001F400
0A0000FC00
1E0000BE00
FFC007FFC0
0000000000
0007D00000
001C340000
0018240000
001C340000
0007D00000
ENDCHAR
STARTCHAR uni1E01
ENCODING 7681
SWIDTH 480 0
DWIDTH 12 0
BBX 10 18 1 -6
BITMAP
0BF800
382E00
B40F00
740F40
000B40
006F40
0B9B40
780B40
F00B40
F00B40
B81B40
2F87E0
000000
02E000
091800
0C0C00
091800
02E000
ENDCHAR
STARTCHAR uni1E02
ENCODING 7682
SWIDTH 618 0
DWIDTH 15 0
BBX 13 20 1 0
BITMAP
00280000
007D0000
002C0000
00000000
BFFFE400
0F407D00
0F402F00
0B401F40
0B401F00
0B401E00
0B407800
0BFFD000
0B407D00
0B401F40
0B400B80
0B400BC0
0B400BC0
0F400F80
0F406E00
BFFFE400
ENDCHAR
STARTCHAR uni1E03
ENCODING 7683
SWIDTH 522 0
DWIDTH 13 0
BBX 12 21 0 0
BITMAP
002800
007D00
002C00
000000
6B0000
6F0000
0F0000
0F0000
0F0000
0F1BD0
0F7FF8
0F80BC
0F003D
0F002E
0F002E
0F002E
0F002D
0F002C
0F0078
0F81E0
06FE40
ENDCHAR
STARTCHAR uni1E04
ENCODING 7684
SWIDTH 618 0
DWIDTH 15 0
BBX 13 20 1 -4
BITMAP
BFFFE400
0F407D00
0F402F00
0B401F40
0B401F00
0B401E00
0B407800
0BFFD000
0B407D00
0B401F40
0B400B80
0B400BC0
0B400BC0
0F400F80
0F406E00
BFFFE400
00000000
00280000
007D0000
002C0000
ENDCHAR
STARTCHAR uni1E05
ENCODING 7685
SWIDTH 522 0
DWIDTH 13 0
BBX 12 21 0 -4
BITMAP
6B0000
6F0000
0F0000
0F0000
0F0000
0F1BD0
0F7FF8
0F80BC
0F003D
0F002E
0F002E
0F002E
0F002D
0F002C
0F0078
0F81E0
06FE40
000000
002800
007D00
002C00
ENDCHAR
STARTCHAR uni1E06
ENCODING 7686
SWIDTH 618 0
DWIDTH 15 0
BBX 13 19 1 -3
BITMAP
BFFFE400
0F407D00
0F402F00
0B401F40
0B401F00
0B401E00
0B407800
0BFFD000
0B407D00
0B401F40
0B400B80
0B400BC0
0B400BC0
0F400F80
0F406E00
BFFFE400
00000000
00000000
07FFE000
ENDCHAR
STARTCHAR uni1E07
ENCODING 7687
SWIDTH 522 0
DWIDTH 13 0
BBX 12 20 0 -3
BITMAP
6B0000
6F0000
0F0000
0F0000
0F0000
0F1BD0
0F7FF8
0F80BC
0F003D
0F002E
0F002E
0F002E
0F002D
0F002C
0F0078
0F81E0
06FE40
000000
000000
07FFE0
ENDCHAR
STARTCHAR uni1E08
ENCODING 7688
SWIDTH 670 0
DWIDTH 16 0
BBX 14 25 1 -5
BITMAP
0001F400
0003D000
000A0000
00000000
006BF9A0
02E40BE0
0F4002E0
2E0000E0
3D0000A0
7C000060
B8000000
B8000000
B8000000
B8000000
7C000000
3D000000
2E000000
0F400060
03E40680
006FF900
00050000
000B9000
0000A000
0010A000
001B8000
ENDCHAR
STARTCHAR uni1E09
ENCODING 7689
SWIDTH 446 0
DWIDTH 11 0
BBX 10 22 0 -5
BITMAP
000F40
001E00
003800
006000
000000
01BE40
0B43D0
1D01E0
2C0090
380000
380000
7C0000
3C0000
3D0010
2F40A0
0FFFC0
02FE00
002000
003E00
000740
000700
00BD00
ENDCHAR
STARTCHAR uni1E0A
ENCODING 7690
SWIDTH 730 0
DWIDTH 18 0
BBX 16 20 1 0
BITMAP
000A0000
000F8000
000B4000
00000000
BFFFE400
0F416F40
0F4007E0
0B4001F4
0B4000F8
0B4000BC
0B40007D
0B40007D
0B40007D
0B40007D
0B40007C
0B4000B8
0B4001F4
0F4003D0
0F406F40
BFFFE400
ENDCHAR
STARTCHAR uni1E0B
ENCODING 7691
SWIDTH 539 0
DWIDTH 13 0
BBX 12 21 0 0
BITMAP
001900
003E00
002D00
000000
0001B8
0001B8
000078
000078
000078
01BFB8
0741F8
0E00B8
2C0078
3C0078
3C0078
7C0078
3C0078
3D0078
2F40B8
0FFFBD
06F87A
ENDCHAR
STARTCHAR uni1E0C
ENCODING 7692
SWIDTH 730 0
DWIDTH 18 0
BBX 16 20 1 -4
BITMAP
BFFFE400
0F416F40
0F4007E0
0B4001F4
0B4000F8
0B4000BC
0B40007D
0B40007D
0B40007D
0B40007D
0B40007C
0B4000B8
0B4001F4
0F4003D0
0F406F40
BFFFE400
00000000
001A0000
002F0000
001E0000
ENDCHAR
STARTCHAR uni1E0D
ENCODING 7693
SWIDTH 539 0
DWIDTH 13 0
BBX 12 21 0 -4
BITMAP
0001B8
0001B8
000078
000078
000078
01BFB8
0741F8
0E00B8
2C0078
3C0078
3C0078
7C0078
3C0078
3D0078
2F40B8
0FFFBD
06F87A
000000
001900
003E00
002D00
ENDCHAR
STARTCHAR uni1E0E
ENCODING 7694
SWIDTH 730 0
DWIDTH 18 0
BBX 16 19 1 -3
BITMAP
BFFFE400
0F416F40
0F4007E0
0B4001F4
0B4000F8
0B4000BC
0B40007D
0B40007D
0B40007D
0B40007D
0B40007C
0B4000B8
0B4001F4
0F4003D0
0F406F40
BFFFE400
00000000
00000000
02FFF400
ENDCHAR
STARTCHAR uni1E0F
ENCODING 7695
SWIDTH 539 0
DWIDTH 13 0
BBX 12 20 0 -3
BITMAP
0001B8
0001B8
000078
000078
000078
01BFB8
0741F8
0E00B8
2C0078
3C0078
3C0078
7C0078
3C0078
3D0078
2F40B8
0FFFBD
06F87A
000000
000000
03FFF0
ENDCHAR
STARTCHAR uni1E10
ENCODING 7696
SWIDTH 730 0
DWIDTH 18 0
BBX 16 23 1 -7
BITMAP
BFFFE400
0F416F40
0F4007E0
0B4001F4
0B4000F8
0B4000BC
0B40007D
0B40007D
0B40007D
0B40007D
0B40007C
0B4000B8
0B4001F4
0F4003D0
0F406F40
BFFFE400
00000000
001A0000
002F4000
001F4000
00034000
000A0000
00140000
ENDCHAR
STARTCHAR uni1E11
ENCODING 7697
SWIDTH 539 0
DWIDTH 13 0
BBX 12 24 0 -7
BITMAP
0001B8
0001B8
000078
000078
000078
01BFB8
0741F8
0E00B8
2C0078
3C0078
3C0078
7C0078
3C0078
3D0078
2F40B8
0FFFBD
06F87A
000000
001900
003F00
002F00
000700
000900
002400
ENDCHAR
STARTCHAR uni1E12
ENCODING 7698
SWIDTH 730 0
DWIDTH 18 0
BBX 16 21 1 -5
BITMAP
BFFFE400
0F416F40
0F4007E0
0B4001F4
0B4000F8
0B4000BC
0B40007D
0B40007D
0B40007D
0B40007D
0B40007C
0B4000B8
0B4001F4
0F4003D0
0F406F40
BFFFE400
00000000
001E0000
003B4000
00A1C000
01806000
ENDCHAR
STARTCHAR uni1E13
ENCODING 7699
SWIDTH 539 0
DWIDTH 13 0
BBX 12 22 0 -5
BITMAP
0001B8
0001B8
000078
000078
000078
01BFB8
0741F8
0E00B8
2C0078
3C0078
3C0078
7C0078
3C0078
3D0078
2F40B8
0FFFBD
06F87A
000000
002E00
007B40
00D280
0240A0
ENDCHAR
STARTCHAR uni1E14
ENCODING 7700
SWIDTH 626 0
DWIDTH 15 0
BBX 14 23 1 0
BITMAP
00BC0000
001E0000
00028000
00000000
02FFF400
00000000
00000000
BFFFFF40
0F401780
0F400180
0B400040
0B400800
0B401800
0B402800
0BFFF800
0B402800
0B400800
0B400000
0B400090
0B4000C0
0F4001C0
0F4017C0
BFFFFF80
ENDCHAR
STARTCHAR uni1E15
ENCODING 7701
SWIDTH 464 0
DWIDTH 11 0
BBX 10 20 1 0
BITMAP
0B8000
03C000
00D000
007000
000000
2FFF40
000000
000000
06F900
280F40
700780
B003C0
FFFFD0
E00000
F00000
F40000
B80050
7E0180
2FFF40
06F900
ENDCHAR
STARTCHAR uni1E16
ENCODING 7702
SWIDTH 626 0
DWIDTH 15 0
BBX 14 23 1 0
BITMAP
000BD000
001E0000
00740000
00000000
02FFF400
00000000
00000000
BFFFFF40
0F401780
0F400180
0B400040
0B400800
0B401800
0B402800
0BFFF800
0B402800
0B400800
0B400000
0B400090
0B4000C0
0F4001C0
0F4017C0
BFFFFF80
ENDCHAR
STARTCHAR uni1E17
ENCODING 7703
SWIDTH 464 0
DWIDTH 11 0
BBX 10 20 1 0
BITMAP
003D00
007800
00E000
018000
000000
2FFF40
000000
000000
06F900
280F40
700780
B003C0
FFFFD0
E00000
F00000
F40000
B80050
7E0180
2FFF40
06F900
ENDCHAR
STARTCHAR uni1E18
ENCODING 7704
SWIDTH 626 0
DWIDTH 15 0
BBX 14 21 1 -5
BITMAP
BFFFFF40
0F401780
0F400180
0B400040
0B400800
0B401800
0B402800
0BFFF800
0B402800
0B400800
0B400000
0B400090
0B4000C0
0F4001C0
0F4017C0
BFFFFF80
00000000
001E0000
003B4000
00A1C000
01806000
ENDCHAR
STARTCHAR uni1E19
ENCODING 7705
SWIDTH 464 0
DWIDTH 11 0
BBX 10 17 1 -5
BITMAP
06F900
280F40
700780
B003C0
FFFFD0
E00000
F00000
F40000
B80050
7E0180
2FFF40
06F900
000000
01F000
03B800
0A1D00
180600
ENDCHAR
STARTCHAR uni1E1A
ENCODING 7706
SWIDTH 626 0
DWIDTH 15 0
BBX 14 20 1 -4
BITMAP
BFFFFF40
0F401780
0F400180
0B400040
0B400800
0B401800
0B402800
0BFFF800
0B402800
0B400800
0B400000
0B400090
0B4000C0
0F4001C0
0F4017C0
BFFFFF80
00000000
00A41400
02FD2000
021B9000
ENDCHAR
STARTCHAR uni1E1B
ENCODING 7707
SWIDTH 464 0
DWIDTH 11 0
BBX 10 16 1 -4
BITMAP
06F900
280F40
700780
B003C0
FFFFD0
E00000
F00000
F40000
B80050
7E0180
2FFF40
06F900
000000
0A4140
2FD200
20BD00
ENDCHAR
STARTCHAR uni1E1C
ENCODING 7708
SWIDTH 626 0
DWIDTH 15 0
BBX 14 27 1 -5
BITMAP
02002000
02807000
01FFE000
006F8000
00000000
00000000
BFFFFF40
0F401780
0F400180
0B400040
0B400800
0B401800
0B402800
0BFFF800
0B402800
0B400800
0B400000
0B400090
0B4000C0
0F4001C0
0F4017C0
BFFFFF80
00080000
001F4000
0001C000
0002C000
002E4000
ENDCHAR
STARTCHAR uni1E1D
ENCODING 7709
SWIDTH 464 0
DWIDTH 11 0
BBX 10 22 1 -5
BITMAP
240240
280700
0FFE00
06F800
000000
06F900
280F40
700780
B003C0
FFFFD0
E00000
F00000
F40000
B80050
7E0180
2FFF40
06F900
008000
01F400
001C00
002C00
02E400
ENDCHAR
STARTCHAR uni1E1E
ENCODING 7710
SWIDTH 588 0
DWIDTH 14 0
BBX 13 20 1 0
BITMAP
000A0000
002F0000
001E0000
00000000
BFFFFF80
0F400780
0F400180
0B400040
0B401800
0B401800
0B402800
0BFFF800
0B402800
0B401800
0B400000
0B400000
0B400000
0F400000
1F800000
FFFC0000
ENDCHAR
STARTCHAR uni1E1F
ENCODING 7711
SWIDTH 307 0
DWIDTH 7 0
BBX 9 21 0 0
BITMAP
064000
0BC000
078000
007E40
0287C0
038280
074000
074000
0B4000
7FFD00
0B4000
0B4000
0B4000
0B4000
0B4000
0B4000
0B4000
0B4000
0B4000
0F8000
BFFC00
ENDCHAR
STARTCHAR uni1E20
ENCODING 7712
SWIDTH 720 0
DWIDTH 17 0
BBX 16 19 1 0
BITMAP
007FFE00
00000000
00000000
006FF9A0
02E00BE0
0F4001E0
2E0000E0
3D0000A0
7C000060
B8000000
B8000000
B8001FFD
B80002F0
BC0001F0
7D0001E0
2E0001E0
1F4001E0
07E407E0
006FF900
ENDCHAR
STARTCHAR uni1E21
ENCODING 7713
SWIDTH 484 0
DWIDTH 12 0
BBX 12 20 0 -5
BITMAP
0BFFD0
000000
000000
02FFFD
0F07D0
2D01E0
2D01F0
2E01E0
1F42D0
0ABE00
050000
1C0000
2D0000
2FFE90
0BFFF8
18006C
34000C
780018
7D0060
1BFA40
ENDCHAR
STARTCHAR uni1E22
ENCODING 7714
SWIDTH 777 0
DWIDTH 19 0
BBX 17 20 1 0
BITMAP
0001900000
0003E00000
0002D00000
0000000000
FFF80FFF80
1F8001F800
0F4000B400
0B4000B400
0B4000B400
0B4000B400
0B4000B400
0BFFFFF400
0B4000B400
0B4000B400
0B4000B400
0B4000B400
0B4000B400
0F4000B400
1F8000F800
FFF80FFF80
ENDCHAR
STARTCHAR uni1E23
ENCODING 7715
SWIDTH 577 0
DWIDTH 14 0
BBX 14 21 0 0
BITMAP
000A0000
001F4000
000F0000
00000000
1B400000
5F400000
0B400000
0B400000
0B400000
0B47E400
0B6FFC00
0BD07D00
0B402D00
0B402E00
0B401E00
0B401E00
0B401E00
0B401E00
0B401E00
0B802E00
7FF0FFD0
ENDCHAR
STARTCHAR uni1E24
ENCODING 7716
SWIDTH 777 0
DWIDTH 19 0
BBX 17 20 1 -4
BITMAP
FFF80FFF80
1F8001F800
0F4000B400
0B4000B400
0B4000B400
0B4000B400
0B4000B400
0BFFFFF400
0B4000B400
0B4000B400
0B4000B400
0B4000B400
0B4000B400
0F4000B400
1F8000F800
FFF80FFF80
0000000000
0001900000
0003E00000
0002D00000
ENDCHAR
STARTCHAR uni1E25
ENCODING 7717
SWIDTH 577 0
DWIDTH 14 0
BBX 14 21 0 -4
BITMAP
1B400000
5F400000
0B400000
0B400000
0B400000
0B47E400
0B6FFC00
0BD07D00
0B402D00
0B402E00
0B401E00
0B401E00
0B401E00
0B401E00
0B401E00
0B802E00
7FF0FFD0
00000000
000A0000
001F4000
000F0000
ENDCHAR
STARTCHAR uni1E26
ENCODING 7718
SWIDTH 777 0
DWIDTH 19 0
BBX 17 20 1 0
BITMAP
00640A0000
00BC1F4000
00780F0000
0000000000
FFF80FFF80
1F8001F800
0F4000B400
0B4000B400
0B4000B400
0B4000B400
0B4000B400
0BFFFFF400
0B4000B400
0B4000B400
0B4000B400
0B4000B400
0B4000B400
0F4000B400
1F8000F800
FFF80FFF80
ENDCHAR
STARTCHAR uni1E27
ENCODING 7719
SWIDTH 577 0
DWIDTH 14 0
BBX 14 21 0 0
BITMAP
01906400
03E0BC00
02D07800
00000000
1B400000
5F400000
0B400000
0B400000
0B400000
0B47E400
0B6FFC00
0BD07D00
0B402D00
0B402E00
0B401E00
0B401E00
0B401E00
0B401E00
0B401E00
0B802E00
7FF0FFD0
ENDCHAR
STARTCHAR uni1E28
ENCODING 7720
SWIDTH 777 0
DWIDTH 19 0
BBX 17 21 1 -5
BITMAP
FFF80FFF80
1F8001F800
0F4000B400
0B4000B400
0B4000B400
0B4000B400
0B4000B400
0BFFFFF400
0B4000B400
0B4000B400
0B4000B400
0B4000B400
0B4000B400
0F4000B400
1F8000F800
FFF80FFF80
0800000000
0B80000000
00E0000000
10D0000000
1B80000000
ENDCHAR
STARTCHAR uni1E29
ENCODING 7721
SWIDTH 577 0
DWIDTH 14 0
BBX 14 22 0 -5
BITMAP
1B400000
5F400000
0B400000
0B400000
0B400000
0B47E400
0B6FFC00
0BD07D00
0B402D00
0B402E00
0B401E00
0B401E00
0B401E00
0B401E00
0B401E00
0B802E00
7FF0FFD0
08000000
0B800000
00E00000
10D00000
1B800000
ENDCHAR
STARTCHAR uni1E2A
ENCODING 7722
SWIDTH 777 0
DWIDTH 19 0
BBX 17 21 1 -5
BITMAP
FFF80FFF80
1F8001F800
0F4000B400
0B4000B400
0B4000B400
0B4000B400
0B4000B400
0BFFFFF400
0B4000B400
0B4000B400
0B4000B400
0B4000B400
0B4000B400
0F4000B400
1F8000F800
FFF80FFF80
0000000000
0020020000
00340A0000
002FFD0000
000BE40000
ENDCHAR
STARTCHAR uni1E2B
ENCODING 7723
SWIDTH 577 0
DWIDTH 14 0
BBX 14 22 0 -5
BITMAP
1B400000
5F400000
0B400000
0B400000
0B400000
0B47E400
0B6FFC00
0BD07D00
0B402D00
0B402E00
0B401E00
0B401E00
0B401E00
0B401E00
0B401E00
0B802E00
7FF0FFD0
00000000
01401400
01C03400
00FFF000
002F8000
ENDCHAR
STARTCHAR uni1E2C
ENCODING 7724
SWIDTH 357 0
DWIDTH 9 0
BBX 8 20 0 -4
BITMAP
7FFE
07E0
03D0
02D0
02D0
02D0
02D0
02D0
02D0
02D0
02D0
02D0
02D0
03D0
07E0
7FFE
0000
1A02
7F86
91B8
ENDCHAR
STARTCHAR uni1E2D
ENCODING 7725
SWIDTH 285 0
DWIDTH 7 0
BBX 8 20 -1 -4
BITMAP
01D0
03E0
0190
0000
06D0
06D0
02D0
02D0
02D0
02D0
02D0
02D0
02D0
02D0
02E0
1FFC
0000
1A01
3FD2
51B8
ENDCHAR
STARTCHAR uni1E2E
ENCODING 7726
SWIDTH 357 0
DWIDTH 9 0
BBX 9 23 0 0
BITMAP
00B800
02D000
0A0000
640A00
BC1F40
780F00
000000
7FFE00
07E000
03D000
02D000
02D000
02D000
02D000
02D000
02D000
02D000
02D000
02D000
02D000
03D000
07E000
7FFE00
ENDCHAR
STARTCHAR uni1E2F
ENCODING 7727
SWIDTH 285 0
DWIDTH 7 0
BBX 8 21 -1 0
BITMAP
00B4
01E0
02C0
0300
0000
782D
BC3E
6419
0000
06D0
06D0
02D0
02D0
02D0
02D0
02D0
02D0
02D0
02D0
02E0
1FFC
ENDCHAR
STARTCHAR uni1E30
ENCODING 7728
SWIDTH 702 0
DWIDTH 17 0
BBX 17 20 0 0
BITMAP
0000BC0000
0002E00000
0006400000
0000000000
7FFE1FFE00
07E003E000
03D0078000
02D00E0000
02D0740000
02D1D00000
02D7400000
02EE000000
02EF400000
02D7D00000
02D1F80000
02D07E0000
02D01F8000
03D007E000
07E003F800
7FFE1FFF80
ENDCHAR
STARTCHAR uni1E31
ENCODING 7729
SWIDTH 542 0
DWIDTH 13 0
BBX 13 21 0 0
BITMAP
000BC000
001E0000
00740000
00000000
1B400000
1F400000
0B400000
0B400000
0B400000
0B43FF00
0B40F400
0B428000
0B4A0000
0B680000
0BF80000
0B7E0000
0B4F4000
0B47D000
0B41F400
0B80BD00
7FF1FFC0
ENDCHAR
STARTCHAR uni1E32
ENCODING 7730
SWIDTH 702 0
DWIDTH 17 0
BBX 17 20 0 -4
BITMAP
7FFE1FFE00
07E003E000
03D0078000
02D00E0000
02D0740000
02D1D00000
02D7400000
02EE000000
02EF400000
02D7D00000
02D1F80000
02D07E0000
02D01F8000
03D007E000
07E003F800
7FFE1FFF80
0000000000
0001900000
0003E00000
0002D00000
ENDCHAR
STARTCHAR uni1E33
ENCODING 7731
SWIDTH 542 0
DWIDTH 13 0
BBX 13 21 0 -4
BITMAP
1B400000
1F400000
0B400000
0B400000
0B400000
0B43FF00
0B40F400
0B428000
0B4A0000
0B680000
0BF80000
0B7E0000
0B4F4000
0B47D000
0B41F400
0B80BD00
7FF1FFC0
00000000
00190000
002F0000
001E0000
ENDCHAR
STARTCHAR uni1E34
ENCODING 7732
SWIDTH 702 0
DWIDTH 17 0
BBX 17 19 0 -3
BITMAP
7FFE1FFE00
07E003E000
03D0078000
02D00E0000
02D0740000
02D1D00000
02D7400000
02EE000000
02EF400000
02D7D00000
02D1F80000
02D07E0000
02D01F8000
03D007E000
07E003F800
7FFE1FFF80
0000000000
0000000000
003FFF0000
ENDCHAR
STARTCHAR uni1E35
ENCODING 7733
SWIDTH 542 0
DWIDTH 13 0
BBX 13 20 0 -3
BITMAP
1B400000
1F400000
0B400000
0B400000
0B400000
0B43FF00
0B40F400
0B428000
0B4A0000
0B680000
0BF80000
0B7E0000
0B4F4000
0B47D000
0B41F400
0B80BD00
7FF1FFC0
00000000
00000000
03FFF000
ENDCHAR
STARTCHAR uni1E36
ENCODING 7734
SWIDTH 585 0
DWIDTH 14 0
BBX 13 20 1 -4
BITMAP
FFF80000
1F800000
0F400000
0B400000
0B400000
0B400000
0B400000
0B400000
0B400000
0B400000
0B400000
0B400040
0B400240
0B400340
0F801B00
BFFFFF00
00000000
00280000
007D0000
003C0000
ENDCHAR
STARTCHAR uni1E37
ENCODING 7735
SWIDTH 283 0
DWIDTH 7 0
BBX 7 21 0 -4
BITMAP
1B40
5F40
0B40
0B40
0B40
0B40
0B40
0B40
0B40
0B40
0B40
0B40
0B40
0B40
0B40
0B80
7FF4
0000
0640
0F80
0B40
ENDCHAR
STARTCHAR uni1E38
ENCODING 7736
SWIDTH 585 0
DWIDTH 14 0
BBX 13 23 1 -4
BITMAP
FFFC0000
00000000
00000000
FFF80000
1F800000
0F400000
0B400000
0B400000
0B400000
0B400000
0B400000
0B400000
0B400000
0B400000
0B400040
0B400240
0B400340
0F801B00
BFFFFF00
00000000
00280000
007D0000
003C0000
ENDCHAR
STARTCHAR uni1E39
ENCODING 7737
SWIDTH 283 0
DWIDTH 7 0
BBX 7 24 0 -4
BITMAP
FFF8
0000
0000
1B40
5F40
0B40
0B40
0B40
0B40
0B40
0B40
0B40
0B40
0B40
0B40
0B40
0B40
0B40
0B80
7FF4
0000
0640
0F80
0B40
ENDCHAR
STARTCHAR uni1E3A
ENCODING 7738
SWIDTH 585 0
DWIDTH 14 0
BBX 13 19 1 -3
BITMAP
FFF80000
1F800000
0F400000
0B400000
0B400000
0B400000
0B400000
0B400000
0B400000
0B400000
0B400000
0B400040
0B400240
0B400340
0F801B00
BFFFFF00
00000000
00000000
07FFD000
ENDCHAR
STARTCHAR uni1E3B
ENCODING 7739
SWIDTH 283 0
DWIDTH 7 0
BBX 7 20 0 -3
BITMAP
1B40
5F40
0B40
0B40
0B40
0B40
0B40
0B40
0B40
0B40
0B40
0B40
0B40
0B40
0B40
0B80
7FF4
0000
0000
FFF8
ENDCHAR
STARTCHAR uni1E3C
ENCODING 7740
SWIDTH 585 0
DWIDTH 14 0
BBX 13 21 1 -5
BITMAP
FFF80000
1F800000
0F400000
0B400000
0B400000
0B400000
0B400000
0B400000
0B400000
0B400000
0B400000
0B400040
0B400240
0B400340
0F801B00
BFFFFF00
00000000
003C0000
00BE0000
01C34000
03008000
ENDCHAR
STARTCHAR uni1E3D
ENCODING 7741
SWIDTH 283 0
DWIDTH 7 0
BBX 7 22 0 -5
BITMAP
1B40
5F40
0B40
0B40
0B40
0B40
0B40
0B40
0B40
0B40
0B40
0B40
0B40
0B40
0B40
0B80
7FF4
0000
0B40
1EC0
34A0
9024
ENDCHAR
STARTCHAR uni1E3E
ENCODING 7742
SWIDTH 895 0
DWIDTH 21 0
BBX 21 20 0 0
BITMAP
00000BC00000
00002E000000
000064000000
000000000000
7FE00001FF40
07F40002F800
03F80007F400
03BC000AF400
037D000DF400
032F001CF400
031F4034F400
030B8070F400
0307C0A0F400
0303E0D0F400
0301F280F400
0300F740F400
0300BF00F400
03407E00F400
07802C01F800
7FF4180FFF40
ENDCHAR
STARTCHAR uni1E3F
ENCODING 7743
SWIDTH 852 0
DWIDTH 20 0
BBX 20 17 0 0
BITMAP
000007C000
00000F0000
00001D0000
0000240000
0000000000
2B4BE46F80
0BA07E82E0
0B802E00F0
0B402D00F0
0B402D00B4
0B402D00B4
0B402D00B4
0B402D00B4
0B402D00B4
0B402D00F4
0B803E00F4
7FF5FFDBFF
ENDCHAR
STARTCHAR uni1E40
ENCODING 7744
SWIDTH 895 0
DWIDTH 21 0
BBX 21 20 0 0
BITMAP
000019000000
00003E000000
00001D000000
000000000000
7FE00001FF40
07F40002F800
03F80007F400
03BC000AF400
037D000DF400
032F001CF400
031F4034F400
030B8070F400
0307C0A0F400
0303E0D0F400
0301F280F400
0300F740F400
0300BF00F400
03407E00F400
07802C01F800
7FF4180FFF40
ENDCHAR
STARTCHAR uni1E41
ENCODING 7745
SWIDTH 852 0
DWIDTH 20 0
BBX 20 17 0 0
BITMAP
0000190000
00003E0000
00002D0000
0000000000
0000000000
2B4BE46F80
0BA07E82E0
0B802E00F0
0B402D00F0
0B402D00B4
0B402D00B4
0B402D00B4
0B402D00B4
0B402D00B4
0B402D00F4
0B803E00F4
7FF5FFDBFF
ENDCHAR
STARTCHAR uni1E42
ENCODING 7746
SWIDTH 895 0
DWIDTH 21 0
BBX 21 20 0 -4
BITMAP
7FE00001FF40
07F40002F800
03F80007F400
03BC000AF400
037D000DF400
032F001CF400
031F4034F400
030B8070F400
0307C0A0F400
0303E0D0F400
0301F280F400
0300F740F400
0300BF00F400
03407E00F400
07802C01F800
7FF4180FFF40
000000000000
000028000000
00003E000000
00002D000000
ENDCHAR
STARTCHAR uni1E43
ENCODING 7747
SWIDTH 852 0
DWIDTH 20 0
BBX 20 16 0 -4
BITMAP
2B4BE46F80
0BA07E82E0
0B802E00F0
0B402D00F0
0B402D00B4
0B402D00B4
0B402D00B4
0B402D00B4
0B402D00B4
0B402D00F4
0B803E00F4
7FF5FFDBFF
0000000000
0000190000
00003E0000
00002D0000
ENDCHAR
STARTCHAR uni1E44
ENCODING 7748
SWIDTH 742 0
DWIDTH 18 0
BBX 17 20 0 0
BITMAP
0000A00000
0001F40000
0000F00000
0000000000
7FD001FFC0
0BF0002E00
03F8001C00
03BD001C00
036F401C00
030FC01C00
0307E01C00
0302F41C00
0300BD1C00
03003F1C00
03001F9C00
030007EC00
030002FC00
034000BC00
0B80003C00
7FF4001C00
ENDCHAR
STARTCHAR uni1E45
ENCODING 7749
SWIDTH 576 0
DWIDTH 14 0
BBX 14 17 0 0
BITMAP
000A0000
000F8000
000B4000
00000000
00000000
2B4BE400
0BA07C00
0B802D00
0B402D00
0B401E00
0B401E00
0B401E00
0B401E00
0B401E00
0B401E00
0B802E00
7FF5FFD0
ENDCHAR
STARTCHAR uni1E46
ENCODING 7750
SWIDTH 742 0
DWIDTH 18 0
BBX 17 20 0 -4
BITMAP
7FD001FFC0
0BF0002E00
03F8001C00
03BD001C00
036F401C00
030FC01C00
0307E01C00
0302F41C00
0300BD1C00
03003F1C00
03001F9C00
030007EC00
030002FC00
034000BC00
0B80003C00
7FF4001C00
0000000000
0001900000
0002F00000
0001E00000
ENDCHAR
STARTCHAR uni1E47
ENCODING 7751
SWIDTH 576 0
DWIDTH 14 0
BBX 14 16 0 -4
BITMAP
2B4BE400
0BA07C00
0B802D00
0B402D00
0B401E00
0B401E00
0B401E00
0B401E00
0B401E00
0B401E00
0B802E00
7FF5FFD0
00000000
000A0000
001F4000
000F0000
ENDCHAR
STARTCHAR uni1E48
ENCODING 7752
SWIDTH 742 0
DWIDTH 18 0
BBX 17 19 0 -3
BITMAP
7FD001FFC0
0BF0002E00
03F8001C00
03BD001C00
036F401C00
030FC01C00
0307E01C00
0302F41C00
0300BD1C00
03003F1C00
03001F9C00
030007EC00
030002FC00
034000BC00
0B80003C00
7FF4001C00
0000000000
0000000000
003FFF0000
ENDCHAR
STARTCHAR uni1E49
ENCODING 7753
SWIDTH 576 0
DWIDTH 14 0
BBX 14 15 0 -3
BITMAP
2B4BE400
0BA07C00
0B802D00
0B402D00
0B401E00
0B401E00
0B401E00
0B401E00
0B401E00
0B401E00
0B802E00
7FF5FFD0
00000000
00000000
01FFF400
ENDCHAR
STARTCHAR uni1E4A
ENCODING 7754
SWIDTH 742 0
DWIDTH 18 0
BBX 17 21 0 -5
BITMAP
7FD001FFC0
0BF0002E00
03F8001C00
03BD001C00
036F401C00
030FC01C00
0307E01C00
0302F41C00
0300BD1C00
03003F1C00
03001F9C00
030007EC00
030002FC00
034000BC00
0B80003C00
7FF4001C00
0000000000
0002E00000
0007B40000
000A1C0000
0018060000
ENDCHAR
STARTCHAR uni1E4B
ENCODING 7755
SWIDTH 576 0
DWIDTH 14 0
BBX 14 17 0 -5
BITMAP
2B4BE400
0BA07C00
0B802D00
0B402D00
0B401E00
0B401E00
0B401E00
0B401E00
0B401E00
0B401E00
0B802E00
7FF5FFD0
00000000
000F0000
002F8000
0070D000
00C02000
ENDCHAR
STARTCHAR uni1E4C
ENCODING 7756
SWIDTH 738 0
DWIDTH 18 0
BBX 16 23 1 0
BITMAP
0001F400
00079000
002F0200
007F8500
0081B800
00000000
00000000
006FE900
02E01B80
0F4002E0
2E0000F4
3D0000BC
7C00007D
B800003D
B800003D
B800003D
BC00003D
7C00007C
3D0000B8
2E0000F4
0F4002E0
02E00B80
006FF900
ENDCHAR
STARTCHAR uni1E4D
ENCODING 7757
SWIDTH 514 0
DWIDTH 12 0
BBX 11 21 1 0
BITMAP
002E00
003C00
007400
009000
000000
068040
0FF480
146E40
000000
06FE00
2E07C0
7801E0
B400F0
F000F4
F000B4
F000B4
F400B4
B400F0
7801E0
2E0780
06F900
ENDCHAR
STARTCHAR uni1E4E
ENCODING 7758
SWIDTH 738 0
DWIDTH 18 0
BBX 16 23 1 0
BITMAP
00A01900
00F82E00
00BE1F00
007F8500
0081B800
00000000
00000000
006FE900
02E01B80
0F4002E0
2E0000F4
3D0000BC
7C00007D
B800003D
B800003D
B800003D
BC00003D
7C00007C
3D0000B8
2E0000F4
0F4002E0
02E00B80
006FF900
ENDCHAR
STARTCHAR uni1E4F
ENCODING 7759
SWIDTH 514 0
DWIDTH 12 0
BBX 11 20 1 0
BITMAP
190280
2F07D0
1E0380
000000
068040
0FF480
146E40
000000
06FE00
2E07C0
7801E0
B400F0
F000F4
F000B4
F000B4
F400B4
B400F0
7801E0
2E0780
06F900
ENDCHAR
STARTCHAR uni1E50
ENCODING 7760
SWIDTH 738 0
DWIDTH 18 0
BBX 16 23 1 0
BITMAP
002F0000
0007C000
0000A000
00000000
00BFFD00
00000000
00000000
006FE900
02E01B80
0F4002E0
2E0000F4
3D0000BC
7C00007D
B800003D
B800003D
B800003D
BC00003D
7C00007C
3D0000B8
2E0000F4
0F4002E0
02E00B80
006FF900
ENDCHAR
STARTCHAR uni1E51
ENCODING 7761
SWIDTH 514 0
DWIDTH 12 0
BBX 11 20 1 0
BITMAP
07C000
01E000
00B000
002400
000000
1FFF80
000000
000000
06FE00
2E07C0
7801E0
B400F0
F000F4
F000B4
F000B4
F400B4
B400F0
7801E0
2E0780
06F900
ENDCHAR
STARTCHAR uni1E52
ENCODING 7762
SWIDTH 738 0
DWIDTH 18 0
BBX 16 23 1 0
BITMAP
0001F400
00079000
000D0000
00000000
00BFFD00
00000000
00000000
006FE900
02E01B80
0F4002E0
2E0000F4
3D0000BC
7C00007D
B800003D
B800003D
B800003D
BC00003D
7C00007C
3D0000B8
2E0000F4
0F4002E0
02E00B80
006FF900
ENDCHAR
STARTCHAR uni1E53
ENCODING 7763
SWIDTH 514 0
DWIDTH 12 0
BBX 11 20 1 0
BITMAP
002E00
003C00
007400
009000
000000
1FFF80
000000
000000
06FE00
2E07C0
7801E0
B400F0
F000F4
F000B4
F000B4
F400B4
B400F0
7801E0
2E0780
06F900
ENDCHAR
STARTCHAR uni1E54
ENCODING 7764
SWIDTH 569 0
DWIDTH 14 0
BBX 12 20 1 0
BITMAP
001F40
003D00
00A000
000000
BFFFA0
0F41BD
0B402E
0B401F
0B401F
0B401F
0B402D
0B41B8
0BFE90
0B4000
0B4000
0B4000
0B4000
0F4000
1F8000
FFF800
ENDCHAR
STARTCHAR uni1E55
ENCODING 7765
SWIDTH 537 0
DWIDTH 13 0
BBX 12 22 0 -5
BITMAP
0007C0
000B40
001D00
002800
000000
1B4BE0
6F7FF8
0B907D
0B402E
0B401F
0B401F
0B400F
0B401E
0B401D
0B402C
0BD0B4
0BAF80
0B4000
0B4000
0B4000
0F8000
7FF800
ENDCHAR
STARTCHAR uni1E56
ENCODING 7766
SWIDTH 569 0
DWIDTH 14 0
BBX 12 20 1 0
BITMAP
002800
007D00
003C00
000000
BFFFA0
0F41BD
0B402E
0B401F
0B401F
0B401F
0B402D
0B41B8
0BFE90
0B4000
0B4000
0B4000
0B4000
0F4000
1F8000
FFF800
ENDCHAR
STARTCHAR uni1E57
ENCODING 7767
SWIDTH 537 0
DWIDTH 13 0
BBX 12 22 0 -5
BITMAP
001900
003E00
001D00
000000
000000
1B4BE0
6F7FF8
0B907D
0B402E
0B401F
0B401F
0B400F
0B401E
0B401D
0B402C
0BD0B4
0BAF80
0B4000
0B4000
0B4000
0F8000
7FF800
ENDCHAR
STARTCHAR uni1E58
ENCODING 7768
SWIDTH 659 0
DWIDTH 16 0
BBX 15 20 1 0
BITMAP
00190000
002E0000
001D0000
00000000
BFFF9000
0F41BD00
0F402E00
0B401F00
0B401F00
0B401F00
0B403D00
0B41F400
0BFF8000
0B4BC000
0B42E000
0B40F800
0B407D00
0F402F40
1F800FD0
FFF807FC
ENDCHAR
STARTCHAR uni1E59
ENCODING 7769
SWIDTH 380 0
DWIDTH 9 0
BBX 9 17 0 0
BITMAP
019000
02F000
01E000
000000
000000
1B4B80
2F6FC0
0BA280
0B8000
0B4000
0B4000
0B4000
0B4000
0B4000
0B4000
0B8000
7FF800
ENDCHAR
STARTCHAR uni1E5A
ENCODING 7770
SWIDTH 659 0
DWIDTH 16 0
BBX 15 20 1 -4
BITMAP
BFFF9000
0F41BD00
0F402E00
0B401F00
0B401F00
0B401F00
0B403D00
0B41F400
0BFF8000
0B4BC000
0B42E000
0B40F800
0B407D00
0F402F40
1F800FD0
FFF807FC
00000000
000A0000
001F4000
000F0000
ENDCHAR
STARTCHAR uni1E5B
ENCODING 7771
SWIDTH 380 0
DWIDTH 9 0
BBX 9 16 0 -4
BITMAP
1B4B80
2F6FC0
0BA280
0B8000
0B4000
0B4000
0B4000
0B4000
0B4000
0B4000
0B8000
7FF800
000000
064000
0BC000
078000
ENDCHAR
STARTCHAR uni1E5C
ENCODING 7772
SWIDTH 659 0
DWIDTH 16 0
BBX 15 23 1 -4
BITMAP
03FFF000
00000000
00000000
BFFF9000
0F41BD00
0F402E00
0B401F00
0B401F00
0B401F00
0B403D00
0B41F400
0BFF8000
0B4BC000
0B42E000
0B40F800
0B407D00
0F402F40
1F800FD0
FFF807FC
00000000
000A0000
001F4000
000F0000
ENDCHAR
STARTCHAR uni1E5D
ENCODING 7773
SWIDTH 380 0
DWIDTH 9 0
BBX 9 19 0 -4
BITMAP
2FFF00
000000
000000
1B4B80
2F6FC0
0BA280
0B8000
0B4000
0B4000
0B4000
0B4000
0B4000
0B4000
0B8000
7FF800
000000
064000
0BC000
078000
ENDCHAR
STARTCHAR uni1E5E
ENCODING 7774
SWIDTH 659 0
DWIDTH 16 0
BBX 15 19 1 -3
BITMAP
BFFF9000
0F41BD00
0F402E00
0B401F00
0B401F00
0B401F00
0B403D00
0B41F400
0BFF8000
0B4BC000
0B42E000
0B40F800
0B407D00
0F402F40
1F800FD0
FFF807FC
00000000
00000000
01FFF400
ENDCHAR
STARTCHAR uni1E5F
ENCODING 7775
SWIDTH 380 0
DWIDTH 9 0
BBX 9 15 0 -3
BITMAP
1B4B80
2F6FC0
0BA280
0B8000
0B4000
0B4000
0B4000
0B4000
0B4000
0B4000
0B8000
7FF800
000000
000000
BFFC00
ENDCHAR
STARTCHAR uni1E60
ENCODING 7776
SWIDTH 504 0
DWIDTH 12 0
BBX 11 20 1 0
BITMAP
00A000
01F400
00B000
000000
0BFFD0
3D07D0
B400D0
B400A0
B80060
7E0000
2FD000
0BF900
01BF80
001FE0
0003F0
8001F4
C000F4
E000F0
F806D0
FFFE40
ENDCHAR
STARTCHAR uni1E61
ENCODING 7777
SWIDTH 394 0
DWIDTH 9 0
BBX 8 17 1 0
BITMAP
0280
0BC0
0780
0000
0000
1FE8
B42C
E00C
F408
BD00
2FD0
07F8
00BD
801E
C01E
E42D
EFE4
ENDCHAR
STARTCHAR uni1E62
ENCODING 7778
SWIDTH 504 0
DWIDTH 12 0
BBX 11 20 1 -4
BITMAP
0BFFD0
3D07D0
B400D0
B400A0
B80060
7E0000
2FD000
0BF900
01BF80
001FE0
0003F0
8001F4
C000F4
E000F0
F806D0
FFFE40
000000
00A000
01F400
00E000
ENDCHAR
STARTCHAR uni1E63
ENCODING 7779
SWIDTH 394 0
DWIDTH 9 0
BBX 8 16 1 -4
BITMAP
1FE8
B42C
E00C
F408
BD00
2FD0
07F8
00BD
801E
C01E
E42D
EFE4
0000
0640
0BC0
0780
ENDCHAR
STARTCHAR uni1E64
ENCODING 7780
SWIDTH 504 0
DWIDTH 12 0
BBX 11 21 1 0
BITMAP
060000
0F4F80
062D00
00A000
000000
0BFFD0
3D07D0
B400D0
B400A0
B80060
7E0000
2FD000
0BF900
01BF80
001FE0
0003F0
8001F4
C000F4
E000F0
F806D0
FFFE40
ENDCHAR
STARTCHAR uni1E65
ENCODING 7781
SWIDTH 394 0
DWIDTH 9 0
BBX 8 18 1 0
BITMAP
2D00
3DB8
19F0
01C0
0340
0000
1FE8
B42C
E00C
F408
BD00
2FD0
07F8
00BD
801E
C01E
E42D
EFE4
ENDCHAR
STARTCHAR uni1E66
ENCODING 7782
SWIDTH 504 0
DWIDTH 12 0
BBX 11 23 1 0
BITMAP
005000
00F400
04F540
0A0A00
03EC00
01F400
000000
0BFFD0
3D07D0
B400D0
B400A0
B80060
7E0000
2FD000
0BF900
01BF80
001FE0
0003F0
8001F4
C000F4
E000F0
F806D0
FFFE40
ENDCHAR
STARTCHAR uni1E67
ENCODING 7783
SWIDTH 394 0
DWIDTH 9 0
BBX 8 19 1 0
BITMAP
0780
07C0
6258
2874
0EE0
07C0
0000
1FE8
B42C
E00C
F408
BD00
2FD0
07F8
00BD
801E
C01E
E42D
EFE4
ENDCHAR
STARTCHAR uni1E68
ENCODING 7784
SWIDTH 504 0
DWIDTH 12 0
BBX 11 24 1 -4
BITMAP
00A000
01F400
00B000
000000
0BFFD0
3D07D0
B400D0
B400A0
B80060
7E0000
2FD000
0BF900
01BF80
001FE0
0003F0
8001F4
C000F4
E000F0
F806D0
FFFE40
000000
00A000
01F400
00E000
ENDCHAR
STARTCHAR uni1E69
ENCODING 7785
SWIDTH 394 0
DWIDTH 9 0
BBX 8 21 1 -4
BITMAP
0280
0BC0
0780
0000
0000
1FE8
B42C
E00C
F408
BD00
2FD0
07F8
00BD
801E
C01E
E42D
EFE4
0000
0640
0BC0
0780
ENDCHAR
STARTCHAR uni1E6A
ENCODING 7786
SWIDTH 603 0
DWIDTH 14 0
BBX 14 20 0 0
BITMAP
000A4000
000F8000
000B4000
00000000
7FFFFFF0
740F40B0
A00F4030
900F4020
000F4000
000F4000
000F4000
000F4000
000F4000
000F4000
000F4000
000F4000
000F4000
000F4000
001F8000
01FFF800
ENDCHAR
STARTCHAR uni1E6B
ENCODING 7787
SWIDTH 315 0
DWIDTH 8 0
BBX 7 19 1 0
BITMAP
0A00
1F40
1E00
0400
0D00
1D00
3D00
FFF0
2D00
2D00
2D00
2D00
2D00
2D00
2D00
2D00
2D00
2D14
0B90
ENDCHAR
STARTCHAR uni1E6C
ENCODING 7788
SWIDTH 603 0
DWIDTH 14 0
BBX 14 20 0 -4
BITMAP
7FFFFFF0
740F40B0
A00F4030
900F4020
000F4000
000F4000
000F4000
000F4000
000F4000
000F4000
000F4000
000F4000
000F4000
000F4000
001F8000
01FFF800
00000000
000A4000
000F8000
000B4000
ENDCHAR
STARTCHAR uni1E6D
ENCODING 7789
SWIDTH 315 0
DWIDTH 8 0
BBX 7 20 1 -4
BITMAP
0400
0D00
1D00
3D00
FFF0
2D00
2D00
2D00
2D00
2D00
2D00
2D00
2D00
2D00
2D14
0B90
0000
0640
0F80
0B40
ENDCHAR
STARTCHAR uni1E6E
ENCODING 7790
SWIDTH 603 0
DWIDTH 14 0
BBX 14 19 0 -3
BITMAP
7FFFFFF0
740F40B0
A00F4030
900F4020
000F4000
000F4000
000F4000
000F4000
000F4000
000F4000
000F4000
000F4000
000F4000
000F4000
001F8000
01FFF800
00000000
00000000
01FFF800
ENDCHAR
STARTCHAR uni1E6F
ENCODING 7791
SWIDTH 315 0
DWIDTH 8 0
BBX 7 19 1 -3
BITMAP
0400
0D00
1D00
3D00
FFF0
2D00
2D00
2D00
2D00
2D00
2D00
2D00
2D00
2D00
2D14
0B90
0000
0000
FFFC
ENDCHAR
STARTCHAR uni1E70
ENCODING 7792
SWIDTH 603 0
DWIDTH 14 0
BBX 14 21 0 -5
BITMAP
7FFFFFF0
740F40B0
A00F4030
900F4020
000F4000
000F4000
000F4000
000F4000
000F4000
000F4000
000F4000
000F4000
000F4000
000F4000
001F8000
01FFF800
00000000
000F4000
002EC000
0074A000
00902400
ENDCHAR
STARTCHAR uni1E71
ENCODING 7793
SWIDTH 315 0
DWIDTH 8 0
BBX 7 21 1 -5
BITMAP
0400
0D00
1D00
3D00
FFF0
2D00
2D00
2D00
2D00
2D00
2D00
2D00
2D00
2D00
2D14
0B90
0000
0B80
1ED0
34B0
A028
ENDCHAR
STARTCHAR uni1E72
ENCODING 7794
SWIDTH 752 0
DWIDTH 18 0
BBX 18 20 0 -4
BITMAP
7FFD01FFE0
0BD0002E00
07C0000D00
07C0000D00
07C0000D00
07C0000D00
07C0000D00
07C0000D00
07C0000D00
07C0000D00
03C0000D00
03C0000D00
02D0001C00
01E0002400
00B901A000
001BFE4000
0000000000
0019068000
003E0BC000
002D078000
ENDCHAR
STARTCHAR uni1E73
ENCODING 7795
SWIDTH 570 0
DWIDTH 14 0
BBX 13 16 0 -4
BITMAP
6F41BD00
1F407D00
0B402D00
0B402D00
0B402D00
0B402D00
0B402D00
0B402D00
0B402D00
0B402D00
07D1BD00
01FE2E80
00000000
0280A000
07D0F800
03C0B400
ENDCHAR
STARTCHAR uni1E74
ENCODING 7796
SWIDTH 752 0
DWIDTH 18 0
BBX 18 20 0 -4
BITMAP
7FFD01FFE0
0BD0002E00
07C0000D00
07C0000D00
07C0000D00
07C0000D00
07C0000D00
07C0000D00
07C0000D00
07C0000D00
03C0000D00
03C0000D00
02D0001C00
01E0002400
00B901A000
001BFE4000
0000000000
0006808000
001FE14000
00246E0000
ENDCHAR
STARTCHAR uni1E75
ENCODING 7797
SWIDTH 570 0
DWIDTH 14 0
BBX 13 16 0 -4
BITMAP
6F41BD00
1F407D00
0B402D00
0B402D00
0B402D00
0B402D00
0B402D00
0B402D00
0B402D00
0B402D00
07D1BD00
01FE2E80
00000000
00A41400
03FD2000
061B9000
ENDCHAR
STARTCHAR uni1E76
ENCODING 7798
SWIDTH 752 0
DWIDTH 18 0
BBX 18 21 0 -5
BITMAP
7FFD01FFE0
0BD0002E00
07C0000D00
07C0000D00
07C0000D00
07C0000D00
07C0000D00
07C0000D00
07C0000D00
07C0000D00
03C0000D00
03C0000D00
02D0001C00
01E0002400
00B901A000
001BFE4000
0000000000
0000F40000
0002E80000
0007490000
000D024000
ENDCHAR
STARTCHAR uni1E77
ENCODING 7799
SWIDTH 570 0
DWIDTH 14 0
BBX 13 17 0 -5
BITMAP
6F41BD00
1F407D00
0B402D00
0B402D00
0B402D00
0B402D00
0B402D00
0B402D00
0B402D00
0B402D00
07D1BD00
01FE2E80
00000000
002E0000
007B4000
00A1C000
01806000
ENDCHAR
STARTCHAR uni1E78
ENCODING 7800
SWIDTH 752 0
DWIDTH 18 0
BBX 18 23 0 0
BITMAP
00002F0000
0000780000
0003E01000
000BF49000
00082F4000
0000000000
0000000000
7FFD01FFE0
0BD0002E00
07C0000D00
07C0000D00
07C0000D00
07C0000D00
07C0000D00
07C0000D00
07C0000D00
07C0000D00
03C0000D00
03C0000D00
02D0001C00
01E0002400
00B901A000
001BFE4000
ENDCHAR
STARTCHAR uni1E79
ENCODING 7801
SWIDTH 570 0
DWIDTH 14 0
BBX 13 21 0 0
BITMAP
0007C000
000B4000
000E0000
00180000
00000000
00A40400
02FD2000
020BD000
00000000
6F41BD00
1F407D00
0B402D00
0B402D00
0B402D00
0B402D00
0B402D00
0B402D00
0B402D00
0B402D00
07D1BD00
01FE2E80
ENDCHAR
STARTCHAR uni1E7A
ENCODING 7802
SWIDTH 752 0
DWIDTH 18 0
BBX 18 22 0 0
BITMAP
000A028000
001F43E000
000E02D000
000FFFC000
0000000000
0000000000
7FFD01FFE0
0BD0002E00
07C0000D00
07C0000D00
07C0000D00
07C0000D00
07C0000D00
07C0000D00
07C0000D00
07C0000D00
03C0000D00
03C0000D00
02D0001C00
01E0002400
00B901A000
001BFE4000
ENDCHAR
STARTCHAR uni1E7B
ENCODING 7803
SWIDTH 570 0
DWIDTH 14 0
BBX 13 20 0 0
BITMAP
0280A000
07D0F800
03C0B400
00000000
00000000
02FFF000
00000000
00000000
6F41BD00
1F407D00
0B402D00
0B402D00
0B402D00
0B402D00
0B402D00
0B402D00
0B402D00
0B402D00
07D1BD00
01FE2E80
ENDCHAR
STARTCHAR uni1E7C
ENCODING 7804
SWIDTH 680 0
DWIDTH 16 0
BBX 18 21 -1 0
BITMAP
0006804000
000FF48000
00146E0000
0000000000
0000000000
7FFD00BFD0
0BE0000F00
03E0000D00
02F0001C00
00F4003400
00BC007000
007D00A000
003E00D000
001F018000
000F424000
000BC70000
0003DA0000
0002ED0000
0001F80000
0000F40000
0000700000
ENDCHAR
STARTCHAR uni1E7D
ENCODING 7805
SWIDTH 481 0
DWIDTH 12 0
BBX 13 16 -1 0
BITMAP
00680800
01FE1800
0246E000
00000000
7FE07FC0
0F800E00
07800D00
03C01800
02D02400
01F07000
00F4A000
00B8C000
003D8000
002E4000
001F0000
000E0000
ENDCHAR
STARTCHAR uni1E7E
ENCODING 7806
SWIDTH 680 0
DWIDTH 16 0
BBX 18 20 -1 -4
BITMAP
7FFD00BFD0
0BE0000F00
03E0000D00
02F0001C00
00F4003400
00BC007000
007D00A000
003E00D000
001F018000
000F424000
000BC70000
0003DA0000
0002ED0000
0001F80000
0000F40000
0000700000
0000000000
0000A00000
0000F80000
0000B40000
ENDCHAR
STARTCHAR uni1E7F
ENCODING 7807
SWIDTH 481 0
DWIDTH 12 0
BBX 13 16 -1 -4
BITMAP
7FE07FC0
0F800E00
07800D00
03C01800
02D02400
01F07000
00F4A000
00B8C000
003D8000
002E4000
001F0000
000E0000
00000000
000A0000
002F0000
001E0000
ENDCHAR
STARTCHAR Wgrave
ENCODING 7808
SWIDTH 944 0
DWIDTH 23 0
BBX 24 20 -1 0
BITMAP
00001F400000
000007C00000
000000B00000
000000000000
7FFC3FFC07FE
0BE00BD000F4
03E003D000A0
02F002F000D0
01F401F401C0
00B800F80280
007C01FC0340
003D037D0700
002F072E0A00
001F4A1F4D00
000B8C0B9C00
0007D807E800
0003F403F000
0002F002E000
0001E001D000
00009000C000
ENDCHAR
STARTCHAR wgrave
ENCODING 7809
SWIDTH 749 0
DWIDTH 18 0
BBX 20 17 -1 0
BITMAP
0001E00000
0000B40000
0000380000
00000C0000
0000000000
7FE2FF42FD
0F807D00B0
07802D00A0
03C01E00C0
02D02F0180
01F03B4240
00F467C300
00B8C3D600
003D81E900
002F40FC00
001F00B800
000E007000
ENDCHAR
STARTCHAR Wacute
ENCODING 7810
SWIDTH 944 0
DWIDTH 23 0
BBX 24 20 -1 0
BITMAP
000001F40000
000003D00000
00000A000000
000000000000
7FFC3FFC07FE
0BE00BD000F4
03E003D000A0
02F002F000D0
01F401F401C0
00B800F80280
007C01FC0340
003D037D0700
002F072E0A00
001F4A1F4D00
000B8C0B9C00
0007D807E800
0003F403F000
0002F002E000
0001E001D000
00009000C000
ENDCHAR
STARTCHAR wacute
ENCODING 7811
SWIDTH 749 0
DWIDTH 18 0
BBX 20 17 -1 0
BITMAP
00000F4000
00001E0000
00002C0000
0000300000
0000000000
7FE2FF42FD
0F807D00B0
07802D00A0
03C01E00C0
02D02F0180
01F03B4240
00F467C300
00B8C3D600
003D81E900
002F40FC00
001F00B800
000E007000
ENDCHAR
STARTCHAR Wdieresis
ENCODING 7812
SWIDTH 944 0
DWIDTH 23 0
BBX 24 20 -1 0
BITMAP
000064190000
0000F82F0000
0000B41E0000
000000000000
7FFC3FFC07FE
0BE00BD000F4
03E003D000A0
02F002F000D0
01F401F401C0
00B800F80280
007C01FC0340
003D037D0700
002F072E0A00
001F4A1F4D00
000B8C0B9C00
0007D807E800
0003F403F000
0002F002E000
0001E001D000
00009000C000
ENDCHAR
STARTCHAR wdieresis
ENCODING 7813
SWIDTH 749 0
DWIDTH 18 0
BBX 20 17 -1 0
BITMAP
0006419000
000F82F000
000B41E000
0000000000
0000000000
7FE2FF42FD
0F807D00B0
07802D00A0
03C01E00C0
02D02F0180
01F03B4240
00F467C300
00B8C3D600
003D81E900
002F40FC00
001F00B800
000E007000
ENDCHAR
STARTCHAR uni1E86
ENCODING 7814
SWIDTH 944 0
DWIDTH 23 0
BBX 24 20 -1 0
BITMAP
000002800000
000007D00000
000002C00000
000000000000
7FFC3FFC07FE
0BE00BD000F4
03E003D000A0
02F002F000D0
01F401F401C0
00B800F80280
007C01FC0340
003D037D0700
002F072E0A00
001F4A1F4D00
000B8C0B9C00
0007D807E800
0003F403F000
0002F002E000
0001E001D000
00009000C000
ENDCHAR
STARTCHAR uni1E87
ENCODING 7815
SWIDTH 749 0
DWIDTH 18 0
BBX 20 17 -1 0
BITMAP
0000280000
00007D0000
00003C0000
0000000000
0000000000
7FE2FF42FD
0F807D00B0
07802D00A0
03C01E00C0
02D02F0180
01F03B4240
00F467C300
00B8C3D600
003D81E900
002F40FC00
001F00B800
000E007000
ENDCHAR
STARTCHAR uni1E88
ENCODING 7816
SWIDTH 944 0
DWIDTH 23 0
BBX 24 20 -1 -4
BITMAP
7FFC3FFC07FE
0BE00BD000F4
03E003D000A0
02F002F000D0
01F401F401C0
00B800F80280
007C01FC0340
003D037D0700
002F072E0A00
001F4A1F4D00
000B8C0B9C00
0007D807E800
0003F403F000
0002F002E000
0001E001D000
00009000C000
000000000000
000001900000
000002F00000
000001D00000
ENDCHAR
STARTCHAR uni1E89
ENCODING 7817
SWIDTH 749 0
DWIDTH 18 0
BBX 20 16 -1 -4
BITMAP
7FE2FF42FD
0F807D00B0
07802D00A0
03C01E00C0
02D02F0180
01F03B4240
00F467C300
00B8C3D600
003D81E900
002F40FC00
001F00B800
000E007000
0000000000
0000280000
00007D0000
00003C0000
ENDCHAR
ENDFONT
